<svg width="57" height="50" viewBox="0 0 57 50" fill="none" xmlns="http://www.w3.org/2000/svg">
<g filter="url(#filter0_d)">
<path d="M47.1683 45.084H10.7571C7.90136 45.084 5.52155 42.8736 5.52155 40.221V39.9999C5.52155 39.5578 5.91818 39.1894 6.39414 39.1894H51.4519C51.9279 39.1894 52.3245 39.5578 52.3245 39.9999V40.2946C52.3245 42.9472 50.024 45.084 47.1683 45.084Z" stroke="#6771DC" stroke-width="1.25" stroke-miterlimit="10"/>
<path d="M46.4043 13.4002H48.1727C49.2043 13.4002 50.0885 14.2844 50.0885 15.316V39.1894H8.82586V15.316C8.82586 14.2844 9.71005 13.4002 10.7416 13.4002H25.9421" stroke="#6771DC" stroke-width="1.25" stroke-miterlimit="10"/>
<path d="M28.9649 5.08405L42.9647 8.76821V15.3997H39.2805L37.8069 19.8207L33.0175 15.0313H28.9649V5.08405Z" stroke="#6771DC" stroke-width="1.25" stroke-miterlimit="10"/>
<path d="M13.4457 23.3182L28.1823 19.6341V29.9497H23.0245L19.3403 34.3707L17.1298 30.6865H13.4457V23.3182Z" stroke="#6771DC" stroke-width="1.25" stroke-miterlimit="10"/>
<path d="M33.0923 29.5748H44.8816" stroke="#6771DC" stroke-width="1.5" stroke-miterlimit="10"/>
<path d="M34.4981 23.7838H43.3401" stroke="#6771DC" stroke-width="1.5" stroke-miterlimit="10"/>
<path d="M19.1672 28.1076H17.8409C17.7673 28.1076 17.7673 28.1076 17.7673 28.034V26.7077C17.7673 26.634 17.7673 26.634 17.8409 26.634H19.1672C19.2409 26.634 19.2409 26.634 19.2409 26.7077V28.034C19.2409 28.1076 19.2409 28.1076 19.1672 28.1076Z" fill="#6771DC"/>
<path d="M22.1146 27.3708H20.7883C20.7146 27.3708 20.7146 27.3708 20.7146 27.2971V25.9708C20.7146 25.8972 20.7146 25.8972 20.7883 25.8972H22.1146C22.1883 25.8972 22.1883 25.8972 22.1883 25.9708V27.2971C22.1883 27.3708 22.1883 27.3708 22.1146 27.3708Z" fill="#6771DC"/>
<path d="M25.0619 26.6339H23.7356C23.6619 26.6339 23.6619 26.6339 23.6619 26.5603V25.234C23.6619 25.1603 23.6619 25.1603 23.7356 25.1603H25.0619C25.1356 25.1603 25.1356 25.1603 25.1356 25.234V26.5603C25.1356 26.6339 25.1356 26.6339 25.0619 26.6339Z" fill="#6771DC"/>
<path d="M33.9996 11.2051H32.6733C32.5996 11.2051 32.5996 11.2051 32.5996 11.1314V9.8051C32.5996 9.73142 32.5996 9.73141 32.6733 9.73141H33.9996C34.0733 9.73141 34.0733 9.73142 34.0733 9.8051V11.1314C34.0733 11.2051 34.0733 11.2051 33.9996 11.2051Z" fill="#6771DC"/>
<path d="M36.9469 12.6787H35.6206C35.5469 12.6787 35.5469 12.6787 35.5469 12.6051V11.2788C35.5469 11.2051 35.5469 11.2051 35.6206 11.2051H36.9469C37.0206 11.2051 37.0206 11.2051 37.0206 11.2788V12.6051C37.0206 12.6787 37.0206 12.6787 36.9469 12.6787Z" fill="#6771DC"/>
<path d="M39.8942 13.4156H38.5679C38.4942 13.4156 38.4942 13.4156 38.4942 13.3419V12.0156C38.4942 11.9419 38.4942 11.9419 38.5679 11.9419H39.8942C39.9679 11.9419 39.9679 11.9419 39.9679 12.0156V13.3419C39.9679 13.4156 39.9679 13.4156 39.8942 13.4156Z" fill="#6771DC"/>
</g>
<defs>
<filter id="filter0_d" x="0.896545" y="0.273285" width="56.053" height="49.4358" filterUnits="userSpaceOnUse" color-interpolation-filters="sRGB">
<feFlood flood-opacity="0" result="BackgroundImageFix"/>
<feColorMatrix in="SourceAlpha" type="matrix" values="0 0 0 0 0 0 0 0 0 0 0 0 0 0 0 0 0 0 127 0"/>
<feOffset/>
<feGaussianBlur stdDeviation="2"/>
<feColorMatrix type="matrix" values="0 0 0 0 0.403922 0 0 0 0 0.443137 0 0 0 0 0.862745 0 0 0 0.4 0"/>
<feBlend mode="normal" in2="BackgroundImageFix" result="effect1_dropShadow"/>
<feBlend mode="normal" in="SourceGraphic" in2="effect1_dropShadow" result="shape"/>
</filter>
</defs>
</svg>
