<?xml version="1.0" encoding="utf-8"?>
<!-- Generator: Adobe Illustrator 24.2.1, SVG Export Plug-In . SVG Version: 6.00 Build 0)  -->
<svg version="1.1" id="Layer_1" xmlns="http://www.w3.org/2000/svg" xmlns:xlink="http://www.w3.org/1999/xlink" x="0px" y="0px"
	 viewBox="0 0 42 42" style="enable-background:new 0 0 42 42;" xml:space="preserve">
<style type="text/css">
	.st0{fill:none;stroke:#6771DC;stroke-width:1.25;stroke-miterlimit:10;}
	.st1{fill:none;stroke:#6771DC;stroke-width:1.5;stroke-miterlimit:10;}
	.st2{fill:#6771DC;}
</style>
<g>
	<path class="st0" d="M36.2,39.7h-31c-2.4,0-4.5-1.9-4.5-4.1v-0.2c0-0.4,0.3-0.7,0.7-0.7h38.3c0.4,0,0.7,0.3,0.7,0.7v0.3
		C40.6,37.9,38.7,39.7,36.2,39.7z"/>
	<path class="st0" d="M35.6,8.7h1.5c0.9,0,1.6,0.8,1.6,1.6v24.3H3.6V10.4c0-0.9,0.8-1.6,1.6-1.6h12.9"/>
	<path class="st0" d="M20.8,1.7l11.9,3.1v5.6h-3.1l-1.3,3.8l-4.1-4.1h-3.4V1.7z"/>
	<path class="st0" d="M7.6,19.2L20.1,16v8.8h-4.4l-3.1,4.8l-1.9-4.1H7.6V19.2z"/>
	<path class="st1" d="M24.3,24.5h10"/>
	<path class="st1" d="M25.5,19.6H33"/>
	<path class="st2" d="M12.4,23.2h-1.1c-0.1,0-0.1,0-0.1-0.1V22c0-0.1,0-0.1,0.1-0.1h1.1c0.1,0,0.1,0,0.1,0.1L12.4,23.2
		C12.5,23.2,12.5,23.2,12.4,23.2z"/>
	<path class="st2" d="M14.9,22.6h-1.1c-0.1,0-0.1,0-0.1-0.1v-1.1c0-0.1,0-0.1,0.1-0.1h1.1c0.1,0,0.1,0,0.1,0.1L14.9,22.6
		C15,22.6,15,22.6,14.9,22.6z"/>
	<path class="st2" d="M17.4,22h-1.1c-0.1,0-0.1,0-0.1-0.1v-1.1c0-0.1,0-0.1,0.1-0.1h1.1c0.1,0,0.1,0,0.1,0.1L17.4,22
		C17.5,22,17.5,22,17.4,22z"/>
	<path class="st2" d="M25,6.9h-1.1c-0.1,0-0.1,0-0.1-0.1V5.7c0-0.1,0-0.1,0.1-0.1H25c0.1,0,0.1,0,0.1,0.1L25,6.9
		C25.1,6.9,25.1,6.9,25,6.9z"/>
	<path class="st2" d="M27.6,8.1h-1.1c-0.1,0-0.1,0-0.1-0.1V6.9c0-0.1,0-0.1,0.1-0.1h1.1c0.1,0,0.1,0,0.1,0.1L27.6,8.1
		C27.6,8.1,27.6,8.1,27.6,8.1z"/>
	<path class="st2" d="M30.1,8.7h-1.1c-0.1,0-0.1,0-0.1-0.1V7.5c0-0.1,0-0.1,0.1-0.1h1.1c0.1,0,0.1,0,0.1,0.1L30.1,8.7
		C30.1,8.7,30.1,8.7,30.1,8.7z"/>
</g>
</svg>
