<svg width="40" height="41" viewBox="0 0 40 41" fill="none" xmlns="http://www.w3.org/2000/svg">
<circle cx="20" cy="20.7057" r="19.5" stroke="#B3C1C8"/>
<path d="M16.4423 26.4036C16.4423 27.3214 16.4423 28.2009 16.4423 29.1569C16.1346 29.1569 15.8269 29.1952 15.5192 29.1569C15.4039 29.1569 15.2885 28.9275 15.25 28.8128C15.1731 28.3921 15.0962 27.9715 15.0577 27.5508C15.0192 27.3596 14.9423 27.2449 14.75 27.1302C14.0192 26.6713 13.4808 26.8242 12.8654 27.3596C12.1346 28.0097 12.1731 27.9332 11.5577 27.2831C11.0577 26.786 10.5577 26.2889 10.0962 25.83C9.82693 25.5623 9.82693 25.4476 10.0577 25.1799C10.3269 24.8357 10.5962 24.4915 10.8269 24.1474C10.9039 24.0326 10.8654 23.8797 10.8654 23.765C10.8654 23.7267 10.8269 23.6885 10.8269 23.612C10.6731 22.8472 10.2115 22.5413 9.44231 22.5795C9.32693 22.5795 9.21154 22.5413 9.0577 22.5413C8.48077 22.3883 8.48077 22.3883 8.48077 21.8147C8.48077 21.0499 8.48077 20.285 8.48077 19.5202C8.48077 19.0613 8.5577 18.9848 8.98077 18.9466C9.40385 18.9084 9.82693 18.8319 10.25 18.7554C9.71154 18.8701 10.5577 18.526 10.5192 18.5642L10.5577 18.526C11.0192 17.4935 11.0192 17.4935 10.3269 16.6139C9.71154 15.8491 9.78847 15.9256 10.4039 15.3137C10.8654 14.8548 11.3654 14.3577 11.8269 13.8988C12.1731 13.5546 12.25 13.5546 12.6346 13.8606C12.9423 14.09 13.25 14.3577 13.5962 14.5489C13.7115 14.6254 13.9039 14.6636 14.0192 14.5871C14.3654 14.4724 14.7885 14.3959 14.9808 14.1282C15.1731 13.8988 15.1346 13.4399 15.2115 13.0957C15.2115 13.0575 15.2115 13.0575 15.2115 13.0193C15.3269 12.1397 15.2885 12.178 16.25 12.2162C16.3269 12.2162 16.4423 12.3309 16.4423 12.4074C16.4423 13.2487 16.4423 14.09 16.4423 14.9695C14.4808 15.1225 12.9423 15.9638 11.8654 17.6082C11.1731 18.6407 10.8269 19.7879 10.9423 20.9734C11.25 24.4533 13.9039 26.2889 16.4423 26.4036Z" fill="#B3C1C8"/>
<path d="M28.0961 11.1837C29.0577 12.1397 30.0192 13.0958 31.0192 14.09C30.25 14.09 29.5192 14.09 28.75 14.09C28.4038 14.0518 28.0961 13.7459 28.0961 13.4017C28.0577 12.6751 28.0961 11.9485 28.0961 11.1837Z" fill="#B3C1C8"/>
<path d="M16.5962 16.5374C14.25 16.5374 12.3654 18.4112 12.3654 20.7439C12.3654 23.0766 14.25 24.9504 16.5962 24.9504C18.9423 24.9504 20.827 23.0766 20.827 20.7439C20.827 18.4112 18.9423 16.5374 16.5962 16.5374ZM18.25 23.0002L16.5962 21.8147L14.9423 23.0002L15.5577 21.0881L13.9039 19.9026H15.9423L16.5577 17.9906L17.1731 19.9026H19.2116L17.5577 21.0881L18.25 23.0002Z" fill="#B3C1C8"/>
<path d="M28.9039 14.6636C28.0577 14.6636 27.5193 14.1283 27.5193 13.287C27.5193 12.5604 27.5193 11.8338 27.5193 11.1072C27.5193 10.8013 27.4424 10.6866 27.1347 10.6866C24.0962 10.6866 21.7885 10.6866 18.75 10.6866C18.1347 10.6866 17.827 11.0308 17.827 11.6426C17.827 12.5221 17.827 13.3634 17.827 14.243C17.827 14.4342 17.827 14.5872 17.827 14.7784C19.6731 15.1608 21.2116 16.3462 22.0577 17.9524H28.5193C28.9424 17.9524 29.327 18.2965 29.327 18.7554C29.327 19.2143 28.9808 19.5585 28.5193 19.5585H22.5962C22.6731 19.9409 22.7116 20.3233 22.7116 20.7057C22.7116 21.1264 22.6731 21.547 22.5962 21.9294H28.5193C28.9424 21.9294 29.327 22.2736 29.327 22.7325C29.327 23.1531 28.9808 23.5355 28.5193 23.5355H21.9808C21.1347 25.1034 19.6347 26.2889 17.827 26.633C17.827 26.7095 17.827 26.786 17.827 26.8625C17.827 27.8185 17.8654 28.7745 17.827 29.7306C17.827 30.4189 18.0962 30.7248 18.7885 30.7248C20.2885 30.7248 21.0193 30.7248 22.5193 30.7248C25.2116 30.7248 27.8654 30.7248 30.5577 30.7248C31.2116 30.7248 31.5193 30.4571 31.5193 29.7688C31.5193 28.8893 31.5193 27.9715 31.5193 27.0919C31.5193 23.0766 31.5193 19.0996 31.5193 15.0843C31.5193 14.9696 31.5193 14.8166 31.5193 14.6636C30.5962 14.6636 29.75 14.6636 28.9039 14.6636ZM28.327 27.9332H20.75C20.327 27.9332 19.9424 27.5891 19.9424 27.1302C19.9424 26.6713 20.2885 26.3271 20.75 26.3271H28.327C28.75 26.3271 29.1347 26.6713 29.1347 27.1302C29.1347 27.5891 28.7885 27.9332 28.327 27.9332Z" fill="#B3C1C8"/>
</svg>
