<?xml version="1.0" encoding="utf-8"?>
<!-- Generator: Adobe Illustrator 24.2.1, SVG Export Plug-In . SVG Version: 6.00 Build 0)  -->
<svg version="1.1" id="Layer_1" xmlns="http://www.w3.org/2000/svg" xmlns:xlink="http://www.w3.org/1999/xlink" x="0px" y="0px"
	 viewBox="0 0 42 42" style="enable-background:new 0 0 42 42;" xml:space="preserve">
<style type="text/css">
	.st0{clip-path:url(#SVGID_2_);}
	.st1{fill:none;stroke:#F16A21;stroke-width:1.25;stroke-miterlimit:10;}
	.st2{fill:none;stroke:#F16A21;stroke-miterlimit:10;}
</style>
<g>
	<defs>
		<rect id="SVGID_1_" y="0.6" width="41.8" height="40"/>
	</defs>
	<clipPath id="SVGID_2_">
		<use xlink:href="#SVGID_1_"  style="overflow:visible;"/>
	</clipPath>
	<g class="st0">
		<g>
			<path class="st1" d="M16.8,28.1c2.5,0.9,4.4,3,4.4,5.5v4"/>
			<path class="st1" d="M5.1,37.6v-4c0-2.3,1.6-4.2,3.8-5.3"/>
			<path class="st1" d="M13,28.3c2.1,0,3.8-1.7,3.8-3.8c0-2.1-1.7-3.8-3.8-3.8s-3.8,1.7-3.8,3.8C9.2,26.6,10.9,28.3,13,28.3z"/>
			<path class="st2" d="M1.7,28.9c-0.9-2.3-1.4-4.9-1.4-7.5c0-11.4,9.2-20.5,20.5-20.5c11.4,0,20.5,9.2,20.5,20.5
				c0,8.4-5,15.6-12.2,18.8H3.1"/>
			<path class="st2" d="M3.8,21.5c0-9.5,7.7-17.1,17.1-17.1C30.3,4.4,38,12,38,21.5c0,7.4-4.7,13.7-11.3,16.1H0.3"/>
			<path class="st2" d="M9.9,10.5l4.1,4.1"/>
			<path class="st2" d="M27.7,28.3l3.8,3.8"/>
			<path class="st2" d="M31.2,10.5l-3.4,3.4"/>
			<path class="st2" d="M5.8,20.8h3.4"/>
			<path class="st2" d="M29.8,20.8H36"/>
			<path class="st2" d="M20.9,24.2c1.5,0,2.7-1.2,2.7-2.7c0-1.5-1.2-2.7-2.7-2.7s-2.7,1.2-2.7,2.7C18.2,23,19.4,24.2,20.9,24.2z"/>
			<path class="st2" d="M20.9,7.1v5.5"/>
			<path class="st2" d="M20.9,14.6v4.2"/>
			<path class="st2" d="M23.6,21.5h3.4"/>
		</g>
	</g>
</g>
</svg>
