<svg width="42" height="41" viewBox="0 0 42 41" fill="none" xmlns="http://www.w3.org/2000/svg">
<g clip-path="url(#clip0)">
<g filter="url(#filter0_d)">
<path d="M16.8493 27.6183C19.3836 28.5087 21.2329 30.632 21.2329 33.0977V37.0703" stroke="#F16A21" stroke-width="1.25" stroke-miterlimit="10"/>
<path d="M5.13699 37.0703V33.0977C5.13699 30.8375 6.71234 28.8512 8.97261 27.8238" stroke="#F16A21" stroke-width="1.25" stroke-miterlimit="10"/>
<path d="M13.0137 27.8238C15.0942 27.8238 16.7808 26.1372 16.7808 24.0566C16.7808 21.9761 15.0942 20.2895 13.0137 20.2895C10.9332 20.2895 9.24658 21.9761 9.24658 24.0566C9.24658 26.1372 10.9332 27.8238 13.0137 27.8238Z" stroke="#F16A21" stroke-width="1.25" stroke-miterlimit="10"/>
<path d="M1.71233 28.4402C0.82192 26.1114 0.342468 23.5772 0.342468 20.9745C0.342468 9.6046 9.52055 0.426514 20.8904 0.426514C32.2603 0.426514 41.4384 9.6046 41.4384 20.9745C41.4384 29.3306 36.4384 36.5909 29.2466 39.7416H3.08219" stroke="#F16A21" stroke-miterlimit="10"/>
<path d="M3.76713 20.9745C3.76713 11.5224 11.4384 3.85117 20.8904 3.85117C30.3425 3.85117 38.0137 11.5224 38.0137 20.9745C38.0137 28.3717 33.2877 34.6731 26.7123 37.0703H0.342468" stroke="#F16A21" stroke-miterlimit="10"/>
<path d="M9.9315 10.0156L14.0411 14.1252" stroke="#F16A21" stroke-miterlimit="10"/>
<path d="M27.7397 27.8238L31.5069 31.5909" stroke="#F16A21" stroke-miterlimit="10"/>
<path d="M31.1644 10.0156L27.7397 13.4402" stroke="#F16A21" stroke-miterlimit="10"/>
<path d="M5.82191 20.2895H9.24657" stroke="#F16A21" stroke-miterlimit="10"/>
<path d="M29.7945 20.2895H35.9589" stroke="#F16A21" stroke-miterlimit="10"/>
<path d="M20.8904 23.7142C22.4035 23.7142 23.6301 22.4876 23.6301 20.9745C23.6301 19.4614 22.4035 18.2347 20.8904 18.2347C19.3773 18.2347 18.1507 19.4614 18.1507 20.9745C18.1507 22.4876 19.3773 23.7142 20.8904 23.7142Z" stroke="#F16A21" stroke-miterlimit="10"/>
<path d="M20.8904 6.59088V12.0703" stroke="#F16A21" stroke-miterlimit="10"/>
<path d="M20.8904 14.1252V18.3623" stroke="#F16A21" stroke-miterlimit="10"/>
<path d="M23.6301 20.9745H27.0548" stroke="#F16A21" stroke-miterlimit="10"/>
</g>
</g>
<defs>
<filter id="filter0_d" x="-8.15753" y="-8.07349" width="58.0959" height="56.3151" filterUnits="userSpaceOnUse" color-interpolation-filters="sRGB">
<feFlood flood-opacity="0" result="BackgroundImageFix"/>
<feColorMatrix in="SourceAlpha" type="matrix" values="0 0 0 0 0 0 0 0 0 0 0 0 0 0 0 0 0 0 127 0"/>
<feOffset/>
<feGaussianBlur stdDeviation="4"/>
<feColorMatrix type="matrix" values="0 0 0 0 1 0 0 0 0 0.768627 0 0 0 0 0.466667 0 0 0 0.25 0"/>
<feBlend mode="normal" in2="BackgroundImageFix" result="effect1_dropShadow"/>
<feBlend mode="normal" in="SourceGraphic" in2="effect1_dropShadow" result="shape"/>
</filter>
<clipPath id="clip0">
<rect width="41.7808" height="40" fill="white" transform="translate(0 0.0840454)"/>
</clipPath>
</defs>
</svg>
