<svg width="49" height="47" viewBox="0 0 49 47" fill="none" xmlns="http://www.w3.org/2000/svg">
<g filter="url(#filter0_d)">
<path d="M35.1927 9.45849C35.211 9.45982 35.2293 9.46115 35.2479 9.46115C35.2795 9.46115 35.3111 9.45849 35.342 9.45417C36.1692 9.47112 36.8313 10.1458 36.8323 10.9731C36.8323 11.349 37.1371 11.6538 37.513 11.6538C37.8889 11.6538 38.1937 11.349 38.1937 10.9731C38.192 9.62002 37.2501 8.44942 35.9286 8.15827V7.50417C35.9286 7.12827 35.6238 6.82349 35.2479 6.82349C34.872 6.82349 34.5672 7.12827 34.5672 7.50417V8.18918C33.17 8.56276 32.2659 9.9145 32.4544 11.3487C32.6428 12.7828 33.8653 13.855 35.3117 13.855C36.1516 13.855 36.8323 14.5361 36.8323 15.3759C36.8323 16.2155 36.1516 16.8965 35.3117 16.8965C34.4718 16.8965 33.7912 16.2155 33.7912 15.3759C33.7912 15 33.4864 14.6953 33.1105 14.6953C32.7346 14.6953 32.4298 15 32.4298 15.3759C32.4314 16.6802 33.3076 17.8212 34.5672 18.1599V18.9057C34.5672 19.2816 34.872 19.5864 35.2479 19.5864C35.6238 19.5864 35.9286 19.2816 35.9286 18.9057V18.1911C37.3661 17.8763 38.3356 16.5289 38.1771 15.0658C38.0189 13.6028 36.7835 12.494 35.3117 12.4943C34.4951 12.4947 33.8241 11.8499 33.7918 11.0339C33.7599 10.2179 34.3784 9.52197 35.1927 9.45849Z" fill="#13BC86"/>
<path d="M35.3505 3.49536C31.163 3.49536 27.5894 6.22775 26.2506 9.88644H9.3561C8.98185 9.88644 8.67807 10.2238 8.67541 10.5977L8.51454 34.4763H3.69888C3.32297 34.4763 3.00024 34.7485 3.00024 35.125V38.1552C3.00889 41.0079 5.25569 43.3514 8.1054 43.4804V43.4954H29.1216V43.4754C29.2918 43.4817 29.3619 43.4954 29.4696 43.4954H29.4842C32.4337 43.4907 34.8224 41.0983 34.8224 38.1489V22.8281C34.9926 22.8374 35.1727 22.8424 35.3489 22.8424C40.6777 22.8424 45.0141 18.4977 45.0141 13.1686C45.0141 7.83973 40.6797 3.49536 35.3505 3.49536ZM8.36431 42.134H8.35999C6.15806 42.131 4.37159 40.3505 4.36162 38.1482V35.8376H24.1016V38.1386C24.1026 39.5591 24.6699 40.9209 25.6776 41.9223C25.7491 41.9937 25.8378 42.0489 25.9126 42.134H8.36431ZM33.461 38.1482C33.4613 40.3465 31.6815 42.1297 29.4836 42.134H29.4706C27.2637 42.13 25.4739 40.3459 25.4629 38.1393V35.125C25.4686 34.9509 25.4021 34.7824 25.2788 34.6594C25.1555 34.5364 24.987 34.4703 24.8132 34.4763H9.87592L10.0321 11.2478H25.8727C25.7521 11.871 25.6896 12.5038 25.6863 13.1383C25.685 14.4801 25.9648 15.8069 26.5079 17.0337H23.898C23.5218 17.0337 23.2173 17.3384 23.2173 17.7143C23.2173 18.0902 23.5218 18.395 23.898 18.395H27.2464C28.6507 20.6033 30.8955 22.1428 33.461 22.658V38.1482ZM35.3505 21.4814C30.7652 21.4814 27.0477 17.7642 27.048 13.1785C27.048 8.59287 30.7652 4.87568 35.3508 4.87568C39.9362 4.87568 43.6534 8.5932 43.6534 13.1785C43.6484 17.7619 39.9342 21.4764 35.3505 21.4814Z" fill="#13BC86"/>
<path d="M17.3503 15.1831C16.1066 15.1831 15.092 16.2048 15.092 17.458C15.092 18.7112 16.1066 19.736 17.3503 19.736C18.5941 19.736 19.6086 18.7143 19.6086 17.4611C19.6086 16.2079 18.5941 15.1831 17.3503 15.1831ZM17.3503 19.2329C16.3816 19.2329 15.5963 18.4396 15.5963 17.4611C15.5963 16.4826 16.3816 15.6893 17.3503 15.6893C18.3191 15.6893 19.1044 16.4826 19.1044 17.4611C19.1044 18.4365 18.316 19.2329 17.3503 19.2329Z" fill="#13BC86" stroke="#13BC86" stroke-width="0.5"/>
<path d="M18.4718 21.197H16.2288C14.8393 21.197 13.7059 22.2187 13.7059 23.4719V27.2655H14.8257V31.8183H19.8681V27.2655H20.9879V23.4719H20.9948C20.9948 22.2156 19.8647 21.197 18.4718 21.197ZM20.4383 26.7593H20.4349H19.3151V31.3121H17.6354V27.7717H17.0755V31.3121H15.3958V26.7593H14.276V23.4719C14.276 22.4965 15.1568 21.7002 16.2357 21.7002H18.4786C19.5609 21.7002 20.4383 22.4934 20.4383 23.4719V26.7593Z" fill="#13BC86" stroke="#13BC86" stroke-width="0.5"/>
</g>
<defs>
<filter id="filter0_d" x="0.000244141" y="0.495361" width="48.0138" height="46" filterUnits="userSpaceOnUse" color-interpolation-filters="sRGB">
<feFlood flood-opacity="0" result="BackgroundImageFix"/>
<feColorMatrix in="SourceAlpha" type="matrix" values="0 0 0 0 0 0 0 0 0 0 0 0 0 0 0 0 0 0 127 0"/>
<feOffset/>
<feGaussianBlur stdDeviation="1.5"/>
<feColorMatrix type="matrix" values="0 0 0 0 0.0745098 0 0 0 0 0.737255 0 0 0 0 0.52549 0 0 0 0.4 0"/>
<feBlend mode="normal" in2="BackgroundImageFix" result="effect1_dropShadow"/>
<feBlend mode="normal" in="SourceGraphic" in2="effect1_dropShadow" result="shape"/>
</filter>
</defs>
</svg>
