<svg width="40" height="41" viewBox="0 0 40 41" fill="none" xmlns="http://www.w3.org/2000/svg">
<g opacity="0.9">
<circle cx="20" cy="20.4299" r="19.5" stroke="white"/>
<g clip-path="url(#clip0)">
<path d="M17.9375 11.4299H12.3125C11.5887 11.4299 11 12.0187 11 12.7424V16.1174C11 16.8412 11.5887 17.43 12.3125 17.43H17.9375C18.6613 17.43 19.25 16.8412 19.25 16.1174V12.7424C19.25 12.0187 18.6613 11.4299 17.9375 11.4299Z" fill="white"/>
<path d="M17.9375 18.9299H12.3125C11.5887 18.9299 11 19.5186 11 20.2425V28.1175C11 28.8412 11.5887 29.4299 12.3125 29.4299H17.9375C18.6613 29.4299 19.25 28.8412 19.25 28.1175V20.2425C19.25 19.5186 18.6613 18.9299 17.9375 18.9299Z" fill="white"/>
<path d="M27.6875 23.4299H22.0625C21.3387 23.4299 20.7499 24.0186 20.7499 24.7425V28.1175C20.7499 28.8412 21.3387 29.4299 22.0625 29.4299H27.6875C28.4113 29.4299 29 28.8412 29 28.1175V24.7425C29 24.0186 28.4113 23.4299 27.6875 23.4299Z" fill="white"/>
<path d="M27.6875 11.4299H22.0625C21.3387 11.4299 20.7499 12.0187 20.7499 12.7424V20.6174C20.7499 21.3412 21.3387 21.93 22.0625 21.93H27.6875C28.4113 21.93 29 21.3412 29 20.6174V12.7424C29 12.0187 28.4113 11.4299 27.6875 11.4299V11.4299Z" fill="white"/>
</g>
</g>
<defs>
<clipPath id="clip0">
<rect width="18" height="18" fill="white" transform="translate(11 11.4299)"/>
</clipPath>
</defs>
</svg>
