<svg width="18" height="19" viewBox="0 0 18 19" fill="none" xmlns="http://www.w3.org/2000/svg">
<path d="M8.15653 3.33746H2.59029C2.1685 3.33746 1.76399 3.50502 1.46574 3.80327C1.16749 4.10152 0.999939 4.50603 0.999939 4.92782V16.0603C0.999939 16.4821 1.16749 16.8866 1.46574 17.1848C1.76399 17.4831 2.1685 17.6506 2.59029 17.6506H13.7228C14.1445 17.6506 14.5491 17.4831 14.8473 17.1848C15.1456 16.8866 15.3131 16.4821 15.3131 16.0603V10.4941" stroke="#209EC5" stroke-width="1.5" stroke-linecap="round" stroke-linejoin="round"/>
<path d="M14.1203 2.14469C14.4366 1.82835 14.8657 1.65063 15.3131 1.65063C15.7604 1.65063 16.1895 1.82835 16.5058 2.14469C16.8222 2.46103 16.9999 2.89008 16.9999 3.33746C16.9999 3.78483 16.8222 4.21388 16.5058 4.53022L8.95164 12.0844L5.77094 12.8796L6.56611 9.69887L14.1203 2.14469Z" stroke="#209EC5" stroke-width="1.5" stroke-linecap="round" stroke-linejoin="round"/>
</svg>
