<svg width="15" height="16" viewBox="0 0 15 16" fill="none" xmlns="http://www.w3.org/2000/svg">
<path d="M1.08765 14.9549L1.87429 10.6182L9.96531 2.12733C10.1724 1.89976 10.4224 1.71685 10.7006 1.5895C10.9788 1.46215 11.2794 1.39297 11.5844 1.3861C11.8895 1.37922 12.1928 1.43478 12.4763 1.54947C12.7598 1.66416 13.0176 1.83563 13.2344 2.05364C13.4512 2.27166 13.6225 2.53177 13.7381 2.81845C13.8538 3.10513 13.9114 3.41252 13.9075 3.72228C13.9036 4.03205 13.8383 4.33784 13.7155 4.62144C13.5926 4.90503 13.4148 5.16061 13.1926 5.37294L5.10161 13.8638L1.08765 14.9549Z" stroke="#57565C" stroke-miterlimit="10"/>
<line x1="8.77971" y1="3.53866" x2="12.3854" y2="6.6571" stroke="#57565C"/>
</svg>
