<svg xmlns="http://www.w3.org/2000/svg" viewBox="0 0 40 41" width="40" height="41">
	<style>
		tspan { white-space:pre }
		.shp0 { fill: none;stroke: #b3c1c8 } 
		.shp1 { fill: #b3c1c8 } 
	</style>
	<g id="Layer">
		<path id="Layer" class="shp0" d="M20 39.97C9.22 39.97 0.5 31.25 0.5 20.47C0.5 9.68 9.22 0.97 20 0.97C30.78 0.97 39.5 9.68 39.5 20.47C39.5 31.25 30.78 39.97 20 39.97Z" />
		<path id="Layer" class="shp1" d="M14.86 29.23C14.98 28.36 15 27.47 15.24 26.64C15.68 25.09 17.22 24.05 18.81 24.05C19.69 24.05 20.58 24.05 21.46 24.05C23.63 24.08 25.31 25.77 25.34 27.96C25.36 28.93 25.34 29.87 25.34 30.83C25.34 31.07 25.24 31.19 25.03 31.28C23.82 31.8 22.54 32.03 21.21 32.1C19.18 32.2 17.2 31.89 15.24 31.28C15 31.21 14.91 31.11 14.91 30.86C14.93 30.31 14.91 29.77 14.91 29.23C14.93 29.23 14.89 29.23 14.86 29.23Z" />
		<path id="Layer" class="shp1" d="M17.38 23.4C14.93 24.38 13.98 26.29 14.14 28.9C13.49 28.81 12.88 28.76 12.28 28.64C11.51 28.48 10.74 28.27 9.94 28.1C9.69 28.03 9.57 27.89 9.57 27.61C9.59 26.57 9.57 25.54 9.59 24.53C9.66 22.64 11.25 21 13.11 20.9C14.07 20.85 15.03 20.88 15.98 20.88C16.1 20.88 16.29 21 16.31 21.09C16.43 21.96 16.78 22.71 17.38 23.4Z" />
		<path id="Layer" class="shp1" d="M26.18 28.83C26.25 27.66 26.15 26.53 25.52 25.51C24.92 24.53 24.05 23.82 23.03 23.44C23.31 22.9 23.56 22.38 23.82 21.87C23.87 21.75 23.89 21.63 23.91 21.51C24.05 20.85 24.05 20.85 24.71 20.85C25.36 20.85 26.04 20.83 26.69 20.85C28.81 20.97 30.37 22.62 30.42 24.76C30.44 25.73 30.42 26.67 30.42 27.63C30.42 27.75 30.35 27.94 30.23 27.98C29.51 28.46 27.06 28.97 26.18 28.83Z" />
		<path id="Layer" class="shp1" d="M16.73 11.35C16.8 9.53 18.32 8.05 20.09 8.12C21.88 8.19 23.35 9.75 23.28 11.54C23.24 13.32 21.7 14.81 19.95 14.74C18.11 14.69 16.68 13.18 16.73 11.35Z" />
		<path id="Layer" class="shp1" d="M23.17 20.67C23.17 22.31 21.81 23.7 20.18 23.7C18.5 23.7 17.13 22.31 17.13 20.64C17.13 19 18.53 17.61 20.18 17.63C21.81 17.63 23.19 19.02 23.17 20.67Z" />
		<path id="Layer" class="shp1" d="M14.77 20.57C13.11 20.48 11.76 19.14 11.74 17.49C11.72 15.89 13.02 14.5 14.65 14.41C16.22 14.31 17.66 15.63 17.78 17.23C17.8 17.47 17.76 17.63 17.57 17.79C16.99 18.34 16.59 19 16.4 19.77C16.38 19.91 16.24 20.1 16.1 20.15C15.68 20.34 15.21 20.45 14.77 20.57Z" />
		<path id="Layer" class="shp1" d="M25.13 20.5C25.06 20.5 24.89 20.48 24.73 20.45C24.26 20.38 23.94 20.24 23.84 19.65C23.7 18.76 23.14 18.08 22.42 17.51C22.3 17.42 22.23 17.23 22.23 17.09C22.4 15.51 23.87 14.29 25.41 14.41C27.06 14.55 28.3 15.94 28.23 17.58C28.18 19.23 26.85 20.5 25.13 20.5Z" />
		<path id="Layer" class="shp1" d="M22.09 15.16C21.88 15.77 21.7 16.36 21.49 16.97C20.51 16.62 19.51 16.67 18.55 17.09C18.34 16.45 18.15 15.82 17.92 15.16C19.3 15.16 20.69 15.16 22.09 15.16Z" />
	</g>
</svg>