<svg width="48" height="49" viewBox="0 0 48 49" fill="none" xmlns="http://www.w3.org/2000/svg">
<g filter="url(#filter0_d)">
<circle cx="24" cy="20.4681" r="19.5" stroke="#B3C1C8"/>
<path d="M18.8641 29.232C18.9807 28.3613 19.004 27.467 19.2372 26.6433C19.6803 25.0901 21.2196 24.0547 22.8054 24.0547C23.6917 24.0547 24.5779 24.0547 25.4641 24.0547C27.633 24.0782 29.3122 25.7726 29.3355 27.9612C29.3589 28.9261 29.3355 29.8674 29.3355 30.8323C29.3355 31.0676 29.2422 31.1853 29.0324 31.2794C27.8196 31.7971 26.5369 32.0325 25.2076 32.1031C23.1786 32.1972 21.1962 31.8913 19.2372 31.2794C19.004 31.2088 18.9107 31.1147 18.9107 30.8558C18.934 30.3145 18.9107 29.7733 18.9107 29.232C18.934 29.232 18.8874 29.232 18.8641 29.232Z" fill="#B3C1C8"/>
<path d="M21.3828 23.3958C18.934 24.3842 17.9778 26.2904 18.1411 28.9025C17.4881 28.8084 16.8817 28.7613 16.2753 28.6437C15.5057 28.4789 14.7361 28.2671 13.9432 28.1024C13.6866 28.0318 13.57 27.8906 13.57 27.6082C13.5933 26.5728 13.57 25.5373 13.5933 24.5254C13.6633 22.6427 15.2492 20.9954 17.1149 20.9012C18.0711 20.8542 19.0273 20.8777 19.9835 20.8777C20.1001 20.8777 20.2867 20.9954 20.31 21.0895C20.4266 21.9602 20.7764 22.7133 21.3828 23.3958Z" fill="#B3C1C8"/>
<path d="M30.1751 28.832C30.2451 27.6553 30.1518 26.5257 29.5221 25.5138C28.9157 24.5254 28.0528 23.8194 27.0267 23.4428C27.3065 22.9016 27.5631 22.3838 27.8196 21.8661C27.8663 21.7484 27.8896 21.6308 27.9129 21.5131C28.0528 20.8542 28.0528 20.8542 28.7058 20.8542C29.3588 20.8542 30.0352 20.8306 30.6882 20.8542C32.8105 20.9718 34.373 22.6192 34.4197 24.7607C34.443 25.7256 34.4197 26.6669 34.4197 27.6318C34.4197 27.7494 34.3497 27.9377 34.2331 27.9848C33.5101 28.4554 31.0613 28.9732 30.1751 28.832Z" fill="#B3C1C8"/>
<path d="M20.7298 11.3467C20.7998 9.53469 22.3157 8.05209 24.0881 8.12269C25.8839 8.19329 27.3532 9.74648 27.2832 11.535C27.2366 13.3235 25.6973 14.8061 23.9482 14.7355C22.1058 14.6885 20.6832 13.1823 20.7298 11.3467Z" fill="#B3C1C8"/>
<path d="M27.1666 20.6659C27.1666 22.3132 25.814 23.7017 24.1814 23.7017C22.5023 23.7017 21.1263 22.3132 21.1263 20.6424C21.1263 18.995 22.5256 17.6066 24.1814 17.6301C25.814 17.6301 27.1899 19.0186 27.1666 20.6659Z" fill="#B3C1C8"/>
<path d="M18.7707 20.5718C17.1149 20.4777 15.7622 19.1363 15.7389 17.4889C15.7156 15.8887 17.0216 14.5002 18.6541 14.4061C20.2167 14.312 21.6626 15.6298 21.7792 17.2301C21.8025 17.4654 21.7559 17.6301 21.5693 17.7949C20.9863 18.3361 20.5898 18.9951 20.4032 19.7717C20.3799 19.9129 20.24 20.1011 20.1001 20.1482C19.6803 20.3365 19.2138 20.4541 18.7707 20.5718Z" fill="#B3C1C8"/>
<path d="M29.1256 20.5012C29.0556 20.5012 28.8924 20.4777 28.7291 20.4541C28.2627 20.3835 27.9362 20.2423 27.8429 19.654C27.703 18.7597 27.1433 18.0773 26.4203 17.5125C26.3037 17.4183 26.2337 17.2301 26.2337 17.0889C26.397 15.5121 27.8662 14.2884 29.4055 14.4061C31.0613 14.5473 32.2974 15.9357 32.2274 17.5831C32.1807 19.2304 30.8514 20.5012 29.1256 20.5012Z" fill="#B3C1C8"/>
<path d="M26.0938 15.1591C25.8839 15.771 25.6973 16.3593 25.4874 16.9712C24.5079 16.6182 23.5051 16.6652 22.5489 17.0888C22.339 16.4534 22.1524 15.818 21.9192 15.1591C23.2952 15.1591 24.6945 15.1591 26.0938 15.1591Z" fill="#B3C1C8"/>
</g>
<defs>
<filter id="filter0_d" x="0" y="0.468079" width="48" height="48" filterUnits="userSpaceOnUse" color-interpolation-filters="sRGB">
<feFlood flood-opacity="0" result="BackgroundImageFix"/>
<feColorMatrix in="SourceAlpha" type="matrix" values="0 0 0 0 0 0 0 0 0 0 0 0 0 0 0 0 0 0 127 0"/>
<feOffset dy="4"/>
<feGaussianBlur stdDeviation="2"/>
<feColorMatrix type="matrix" values="0 0 0 0 0 0 0 0 0 0 0 0 0 0 0 0 0 0 0.25 0"/>
<feBlend mode="normal" in2="BackgroundImageFix" result="effect1_dropShadow"/>
<feBlend mode="normal" in="SourceGraphic" in2="effect1_dropShadow" result="shape"/>
</filter>
</defs>
</svg>
