<svg xmlns="http://www.w3.org/2000/svg" viewBox="0 0 40 41" width="40" height="41">
	<style>
		tspan { white-space:pre }
		.shp0 { fill: none;stroke: #b3c1c8 } 
		.shp1 { fill: #b3c1c8 } 
	</style>
	<g id="Layer">
		<path id="Layer" class="shp0" d="M20 40.17C9.22 40.17 0.5 31.46 0.5 20.67C0.5 9.89 9.22 1.17 20 1.17C30.78 1.17 39.5 9.89 39.5 20.67C39.5 31.46 30.78 40.17 20 40.17Z" />
		<path id="Layer" fill-rule="evenodd" class="shp1" d="M17.99 27.15C17.27 27.15 16.6 27.15 15.93 27.15C15.07 27.15 14.23 27.15 13.37 27.15C12.95 27.15 12.7 26.95 12.7 26.6C12.7 26.25 12.95 26.02 13.37 26.02C14.82 26.02 16.24 26.02 17.69 26.02C17.91 26.02 18.02 25.99 18.05 25.7C18.11 25.13 18.44 24.84 19.02 24.84C19.53 24.84 19.53 24.92 19.53 24.32C19.53 24 19.5 23.65 19.53 23.33C19.55 23.05 19.44 22.96 19.16 22.96C16.85 22.96 14.54 22.96 12.23 22.96C11.25 22.96 11.14 22.84 11.14 21.8C11.14 20.99 11.14 20.21 11.14 19.41C11.14 18.86 11.36 18.62 11.89 18.62C17.33 18.62 22.79 18.62 28.22 18.62C28.75 18.62 28.97 18.89 29 19.43C29 20.33 29 21.23 29 22.12C29 22.7 28.78 22.93 28.22 22.93C25.82 22.93 23.43 22.93 21.03 22.93C20.61 22.93 20.61 22.93 20.61 23.36C20.61 23.74 20.61 24.14 20.61 24.52C20.61 24.75 20.7 24.81 20.89 24.81C21 24.81 21.11 24.81 21.2 24.81C21.7 24.84 22.03 25.15 22.06 25.67C22.06 25.93 22.17 25.99 22.4 25.99C23.79 25.99 25.18 25.99 26.58 25.99C26.66 25.99 26.77 25.99 26.85 25.99C27.19 26.02 27.41 26.25 27.38 26.57C27.38 26.89 27.16 27.09 26.85 27.12C26.58 27.12 26.3 27.12 26.02 27.12C24.79 27.12 23.59 27.12 22.37 27.12C22.15 27.12 22.06 27.18 22.03 27.44C22.01 27.93 21.67 28.3 21.2 28.3C20.42 28.33 19.64 28.33 18.86 28.3C18.38 28.3 18.08 27.96 18.02 27.47C18.02 27.38 18.02 27.26 17.99 27.15ZM21 27.18C21 26.83 21 26.48 21 26.17C21 26.11 20.89 25.99 20.84 25.99C20.33 25.96 19.8 25.96 19.3 25.99C19.25 25.99 19.14 26.11 19.14 26.17C19.11 26.51 19.14 26.83 19.14 27.21C19.78 27.18 20.36 27.18 21 27.18ZM14.43 20.82C14.43 20.45 14.12 20.13 13.76 20.13C13.4 20.13 13.09 20.45 13.06 20.82C13.06 21.2 13.37 21.51 13.73 21.51C14.12 21.51 14.43 21.2 14.43 20.82ZM16.18 21.49C16.54 21.49 16.85 21.17 16.85 20.79C16.85 20.42 16.54 20.1 16.18 20.1C15.82 20.1 15.51 20.42 15.51 20.79C15.51 21.17 15.82 21.49 16.18 21.49Z" />
		<path id="Layer" fill-rule="evenodd" class="shp1" d="M19.92 12.05C22.62 12.05 25.29 12.05 28 12.05C28.64 12.05 28.86 12.28 28.86 12.94C28.86 13.81 28.86 14.65 28.86 15.52C28.86 16.15 28.69 16.32 28.11 16.35C27.41 16.38 26.72 16.35 26.02 16.38C24.96 16.38 23.9 16.41 22.84 16.41C21.81 16.41 20.78 16.38 19.75 16.38C18.91 16.38 18.11 16.41 17.27 16.41C16.35 16.41 15.4 16.38 14.48 16.38C13.56 16.38 12.67 16.38 11.75 16.41C11.39 16.41 11.03 16.15 11.03 15.78C11 14.71 11 13.7 11 12.66C11 12.31 11.25 12.08 11.59 12.02C11.7 12.02 11.81 12.02 11.89 12.02C14.59 12.05 17.24 12.05 19.92 12.05ZM14.34 14.19C14.34 13.81 14.01 13.49 13.62 13.49C13.26 13.49 12.95 13.84 12.95 14.22C12.95 14.56 13.28 14.91 13.59 14.91C13.93 14.91 14.34 14.5 14.34 14.19ZM16.07 14.91C16.41 14.91 16.71 14.59 16.71 14.22C16.71 13.87 16.41 13.52 16.13 13.52C15.71 13.52 15.43 13.78 15.43 14.24C15.4 14.62 15.68 14.88 16.07 14.91Z" />
	</g>
</svg>