<svg width="48" height="49" viewBox="0 0 48 49" fill="none" xmlns="http://www.w3.org/2000/svg">
<g filter="url(#filter0_d)">
<circle cx="24" cy="20.6727" r="19.5" stroke="#B3C1C8"/>
<path d="M21.9938 27.1482C21.2693 27.1482 20.6006 27.1482 19.9319 27.1482C19.0681 27.1482 18.2322 27.1482 17.3684 27.1482C16.9504 27.1482 16.6997 26.946 16.6997 26.5993C16.6997 26.2526 16.9504 26.0214 17.3684 26.0214C18.8173 26.0214 20.2384 26.0214 21.6873 26.0214C21.9102 26.0214 22.0217 25.9925 22.0495 25.7036C22.1053 25.1258 22.4396 24.8368 23.0248 24.8368C23.5263 24.8368 23.5263 24.9235 23.5263 24.3168C23.5263 23.9989 23.4984 23.6522 23.5263 23.3344C23.5542 23.0455 23.4427 22.9588 23.1641 22.9588C20.8514 22.9588 18.5387 22.9588 16.226 22.9588C15.2507 22.9588 15.1393 22.8432 15.1393 21.8031C15.1393 20.9941 15.1393 20.214 15.1393 19.405C15.1393 18.8561 15.3622 18.6249 15.8916 18.6249C21.3251 18.6249 26.7864 18.6249 32.2198 18.6249C32.7493 18.6249 32.9722 18.885 33 19.4339C33 20.3296 33 21.2253 33 22.1209C33 22.6988 32.7771 22.9299 32.2198 22.9299C29.8235 22.9299 27.4273 22.9299 25.031 22.9299C24.613 22.9299 24.613 22.9299 24.613 23.3633C24.613 23.7389 24.613 24.1434 24.613 24.519C24.613 24.7501 24.6966 24.8079 24.8916 24.8079C25.0031 24.8079 25.1146 24.8079 25.1981 24.8079C25.6997 24.8368 26.0341 25.1546 26.0619 25.6747C26.0619 25.9347 26.1734 25.9925 26.3963 25.9925C27.7895 25.9925 29.1827 25.9925 30.5759 25.9925C30.6595 25.9925 30.7709 25.9925 30.8545 25.9925C31.1889 26.0214 31.4118 26.2526 31.3839 26.5704C31.3839 26.8882 31.161 27.0904 30.8545 27.1193C30.5759 27.1193 30.2972 27.1193 30.0186 27.1193C28.7926 27.1193 27.5944 27.1193 26.3684 27.1193C26.1455 27.1193 26.0619 27.1771 26.0341 27.4372C26.0062 27.9283 25.6718 28.3039 25.1981 28.3039C24.418 28.3328 23.6378 28.3328 22.8576 28.3039C22.3839 28.3039 22.0774 27.9572 22.0217 27.4661C22.0217 27.3794 22.0217 27.2638 21.9938 27.1482ZM25.0031 27.1771C25.0031 26.8304 25.0031 26.4837 25.0031 26.1659C25.0031 26.1081 24.8916 25.9925 24.8359 25.9925C24.3344 25.9636 23.8049 25.9636 23.3034 25.9925C23.2477 25.9925 23.1362 26.1081 23.1362 26.1659C23.1084 26.5126 23.1362 26.8304 23.1362 27.206C23.7771 27.1771 24.3622 27.1771 25.0031 27.1771ZM18.4272 20.8208C18.4272 20.4452 18.1207 20.1273 17.7585 20.1273C17.3963 20.1273 17.0898 20.4452 17.0619 20.8208C17.0619 21.1964 17.3684 21.5142 17.7306 21.5142C18.1207 21.5142 18.4272 21.1964 18.4272 20.8208ZM20.1826 21.4853C20.5449 21.4853 20.8514 21.1675 20.8514 20.7919C20.8514 20.4163 20.5449 20.0984 20.1826 20.0984C19.8204 20.0984 19.5139 20.4163 19.5139 20.7919C19.5139 21.1675 19.8204 21.4853 20.1826 21.4853Z" fill="#B3C1C8"/>
<path d="M23.9164 12.0487C26.6192 12.0487 29.2942 12.0487 31.997 12.0487C32.6378 12.0487 32.8607 12.2798 32.8607 12.9443C32.8607 13.8111 32.8607 14.649 32.8607 15.5158C32.8607 16.1514 32.6936 16.3248 32.1084 16.3537C31.4118 16.3826 30.7152 16.3537 30.0186 16.3826C28.9598 16.3826 27.901 16.4114 26.8421 16.4114C25.8112 16.4114 24.7802 16.3826 23.7493 16.3826C22.9133 16.3826 22.1053 16.4114 21.2694 16.4114C20.3499 16.4114 19.4025 16.3826 18.483 16.3826C17.5635 16.3826 16.6718 16.3826 15.7523 16.4114C15.3901 16.4114 15.0279 16.1514 15.0279 15.7758C15 14.7068 15 13.6955 15 12.6554C15 12.3087 15.2508 12.0776 15.5851 12.0198C15.6966 12.0198 15.8081 12.0198 15.8916 12.0198C18.5944 12.0487 21.2415 12.0487 23.9164 12.0487ZM18.3437 14.1867C18.3437 13.8111 18.0093 13.4933 17.6192 13.4933C17.257 13.4933 16.9505 13.84 16.9505 14.2156C16.9505 14.5623 17.2848 14.909 17.5913 14.909C17.9257 14.909 18.3437 14.5045 18.3437 14.1867ZM20.0712 14.909C20.4056 14.909 20.7121 14.5912 20.7121 14.2156C20.7121 13.8689 20.4056 13.5222 20.127 13.5222C19.709 13.5222 19.4304 13.7822 19.4304 14.2445C19.4025 14.6201 19.6811 14.8801 20.0712 14.909Z" fill="#B3C1C8"/>
</g>
<defs>
<filter id="filter0_d" x="0" y="0.672699" width="48" height="48" filterUnits="userSpaceOnUse" color-interpolation-filters="sRGB">
<feFlood flood-opacity="0" result="BackgroundImageFix"/>
<feColorMatrix in="SourceAlpha" type="matrix" values="0 0 0 0 0 0 0 0 0 0 0 0 0 0 0 0 0 0 127 0"/>
<feOffset dy="4"/>
<feGaussianBlur stdDeviation="2"/>
<feColorMatrix type="matrix" values="0 0 0 0 0 0 0 0 0 0 0 0 0 0 0 0 0 0 0.25 0"/>
<feBlend mode="normal" in2="BackgroundImageFix" result="effect1_dropShadow"/>
<feBlend mode="normal" in="SourceGraphic" in2="effect1_dropShadow" result="shape"/>
</filter>
</defs>
</svg>
