<svg width="41" height="36" viewBox="0 0 41 36" fill="none" xmlns="http://www.w3.org/2000/svg">
<path d="M21.245 35.2465C30.3652 35.2465 37.7585 28.046 37.7585 19.1637C37.7585 10.2814 30.3652 3.08093 21.245 3.08093C12.1248 3.08093 4.73138 10.2814 4.73138 19.1637C4.73138 28.046 12.1248 35.2465 21.245 35.2465Z" fill="url(#paint0_linear)"/>
<path d="M19.0909 35.1029C19.5217 35.1029 19.8089 35.1029 20.2397 35.1029C23.3988 35.2465 26.4143 34.5285 29.2862 32.8054C30.1478 32.231 31.0094 31.513 31.7274 30.795C32.4454 30.077 33.0197 29.5026 33.5941 28.6411C35.0301 26.7743 35.8917 24.6204 36.3225 22.1792C36.6097 20.7433 36.7532 19.3073 36.4661 17.7278C35.8917 12.8455 33.8813 8.68118 29.717 5.80926C27.8503 4.66049 25.6963 3.79891 23.2552 3.36812C21.8192 3.08093 20.3833 3.08093 18.9473 3.22453C14.783 3.79891 11.3367 5.66566 8.60838 8.82478C7.45961 10.2607 6.45443 11.6967 5.88005 13.4199C5.88005 13.4199 5.88005 13.5635 5.73645 13.5635C5.88005 13.2763 5.88005 12.9891 6.02364 12.8455C7.02882 9.82996 8.60838 7.10163 11.0495 4.94768C15.9318 0.496196 22.3936 -0.652575 28.1375 1.21418C32.4454 2.65014 35.6045 5.37847 37.902 9.25557C39.0508 11.2659 39.7688 13.4199 40.1996 15.7174C40.3432 17.1534 40.4868 18.4457 40.3432 19.8817C40.1996 22.61 39.4816 25.1948 38.1892 27.4923C35.7481 31.9438 32.1582 34.6721 26.9887 35.6773C25.4091 35.9645 23.8296 35.9645 22.25 35.8209C21.532 35.6773 20.6705 35.5337 19.9525 35.3901C19.5217 35.3901 19.3781 35.2465 19.0909 35.1029Z" fill="#1B154C"/>
<path d="M6.16726 12.5583C5.88007 12.7019 5.59287 12.989 5.30568 13.1326C5.16208 13.2762 4.87489 13.5634 4.7313 13.707C4.30051 14.2814 4.30051 14.8558 4.7313 15.4302C5.16208 16.1482 5.73647 16.4354 6.45445 16.7225C7.60322 17.0097 8.75199 17.2969 9.90076 17.2969C10.7623 17.4405 11.6239 17.4405 12.4855 17.4405C13.2035 17.4405 13.9215 17.4405 14.6394 17.4405C15.6446 17.4405 16.6498 17.2969 17.655 17.2969C19.8089 17.1533 21.8193 16.8661 23.8296 16.2918C25.4092 15.861 26.9887 15.4302 28.5683 14.9994C29.1427 14.8558 29.5735 14.5686 30.1478 14.425C30.0042 14.5686 29.8606 14.5686 29.717 14.7122C29.2863 14.9994 28.7119 15.2866 28.2811 15.5738C26.5579 16.4354 24.8348 17.1533 23.1116 17.7277C21.5321 18.1585 20.0961 18.5893 18.5165 18.8765C17.5114 19.0201 16.5062 19.1637 15.501 19.3073C14.2087 19.4509 12.7727 19.5945 11.4803 19.5945C10.6187 19.5945 9.61357 19.5945 8.75199 19.5945C7.31603 19.4509 5.88007 19.3073 4.4441 18.8765C3.43893 18.4457 2.57735 18.1585 1.85937 17.5841C1.57218 17.4405 1.42858 17.1533 1.14139 16.8661C0.854196 16.4354 0.710599 15.861 0.997792 15.2866C1.28498 14.425 2.00297 13.707 2.72095 13.2762C3.58253 12.8455 4.4441 12.5583 5.30568 12.5583C5.59287 12.5583 5.88007 12.5583 6.16726 12.5583Z" fill="url(#paint1_linear)"/>
<path d="M7.02886 20.1689C6.59807 20.3125 6.16728 20.5997 5.88009 21.0305C5.4493 21.4613 5.3057 22.1792 5.73649 22.61C6.16728 23.1844 6.59807 23.4716 7.31605 23.6152C8.17763 23.7588 9.03921 23.9024 9.90078 24.046C10.6188 24.1896 11.3367 24.1896 12.1983 24.1896C13.0599 24.1896 13.7779 24.1896 14.6395 24.1896C15.3574 24.1896 16.0754 24.046 16.7934 24.046C17.5114 23.9024 18.373 23.9024 19.0909 23.7588C20.3833 23.4716 21.6757 23.328 22.8244 22.8972C24.1168 22.61 25.2656 22.1792 26.4144 21.892H26.558C26.1272 22.1792 25.6964 22.4664 25.122 22.61C24.6912 22.8972 24.2604 23.0408 23.8296 23.1844C22.968 23.4716 22.1065 23.9024 21.2449 24.1896C19.8089 24.6204 18.2294 25.0512 16.6498 25.3384C15.6446 25.4819 14.7831 25.6255 13.7779 25.6255C12.6291 25.7691 11.3367 25.7691 10.188 25.7691C9.3264 25.7691 8.46482 25.6255 7.60324 25.6255C6.74167 25.6255 5.88009 25.3384 5.16211 25.1948C4.44412 25.0512 3.72614 24.764 3.15176 24.1896C2.72097 23.7588 2.43378 23.328 2.43378 22.7536C2.43378 22.3228 2.57737 22.0356 2.86457 21.7484C3.43895 20.8869 4.30053 20.4561 5.3057 20.1689C6.02368 20.1689 6.59807 20.1689 7.02886 20.1689Z" fill="url(#paint2_linear)"/>
<path d="M11.4803 27.0615C11.3367 27.2051 11.0495 27.3487 10.9059 27.4923C10.7624 27.6359 10.4752 27.7795 10.4752 28.0667C10.4752 28.3539 10.4752 28.4975 10.6188 28.7846C10.7624 29.0718 11.1931 29.359 11.4803 29.5026C12.1983 29.6462 12.9163 29.7898 13.6343 29.9334C14.6395 30.077 15.6446 30.077 16.7934 30.077C18.2294 30.077 19.6653 29.9334 21.1013 29.6462C22.3937 29.359 23.5424 29.0718 24.8348 28.6411C25.122 28.4975 25.2656 28.4975 25.5528 28.4975C25.2656 28.6411 24.9784 28.7846 24.6912 28.9282C23.5424 29.5026 22.3937 29.9334 21.1013 30.3642C19.9525 30.6514 18.9473 30.9386 17.7986 31.0822C16.3626 31.2258 14.9266 31.3694 13.4907 31.2258C12.3419 31.2258 11.0495 31.0822 9.90077 30.6514C9.61358 30.5078 9.32639 30.3642 9.0392 30.2206C8.32121 29.7898 8.32121 29.0718 8.752 28.4975C9.18279 27.9231 9.61358 27.6359 10.3316 27.4923C10.6188 27.0615 11.0495 27.0615 11.4803 27.0615C11.4803 26.9179 11.4803 26.9179 11.4803 27.0615Z" fill="url(#paint3_linear)"/>
<defs>
<linearGradient id="paint0_linear" x1="14.9507" y1="33.9919" x2="27.574" y2="4.2534" gradientUnits="userSpaceOnUse">
<stop stop-color="white"/>
<stop offset="0.0886699" stop-color="white"/>
<stop offset="1" stop-color="#C7C3C3"/>
</linearGradient>
<linearGradient id="paint1_linear" x1="15.2631" y1="11.8957" x2="15.7723" y2="19.1757" gradientUnits="userSpaceOnUse">
<stop stop-color="#F8A066"/>
<stop offset="0.2069" stop-color="#F16A21"/>
<stop offset="0.6473" stop-color="#F16C23"/>
<stop offset="0.806" stop-color="#F2722A"/>
<stop offset="0.9186" stop-color="#F37C35"/>
<stop offset="1" stop-color="#F58944"/>
</linearGradient>
<linearGradient id="paint2_linear" x1="13.7813" y1="18.7257" x2="15.1429" y2="25.7305" gradientUnits="userSpaceOnUse">
<stop stop-color="#F8A066"/>
<stop offset="0.0479498" stop-color="#F7975A"/>
<stop offset="0.1332" stop-color="#F47F3C"/>
<stop offset="0.197" stop-color="#F16A21"/>
<stop offset="0.6311" stop-color="#F16C23"/>
<stop offset="0.7875" stop-color="#F2712A"/>
<stop offset="0.8985" stop-color="#F37B35"/>
<stop offset="0.9881" stop-color="#F58A46"/>
<stop offset="1" stop-color="#F58C49"/>
</linearGradient>
<linearGradient id="paint3_linear" x1="16.3478" y1="25.8554" x2="17.4278" y2="30.9364" gradientUnits="userSpaceOnUse">
<stop stop-color="#F8A066"/>
<stop offset="0.0410102" stop-color="#F79A5F"/>
<stop offset="0.1018" stop-color="#F58B4B"/>
<stop offset="0.1747" stop-color="#F2712A"/>
<stop offset="0.1921" stop-color="#F16A21"/>
<stop offset="0.6289" stop-color="#F16C23"/>
<stop offset="0.7862" stop-color="#F2712A"/>
<stop offset="0.8979" stop-color="#F37B35"/>
<stop offset="0.988" stop-color="#F58A46"/>
<stop offset="1" stop-color="#F58C49"/>
</linearGradient>
</defs>
</svg>
