<?xml version="1.0" encoding="utf-8"?>
<!-- Generator: Adobe Illustrator 24.2.1, SVG Export Plug-In . SVG Version: 6.00 Build 0)  -->
<svg version="1.1" id="Layer_1" xmlns="http://www.w3.org/2000/svg" xmlns:xlink="http://www.w3.org/1999/xlink" x="0px" y="0px"
	 viewBox="0 0 19 20" style="enable-background:new 0 0 19 20;" xml:space="preserve">
<style type="text/css">
	.st0{fill:none;stroke:#92A7B1;stroke-miterlimit:10;stroke-opacity:0.5;}
	.st1{fill:none;stroke:#92A7B1;stroke-width:0.8726;stroke-miterlimit:10;stroke-opacity:0.5;}
	.st2{fill:none;stroke:#92A7B1;stroke-width:1.1558;stroke-miterlimit:10;stroke-opacity:0.5;}
	.st3{fill:none;stroke:#92A7B1;stroke-width:1.0232;stroke-miterlimit:10;stroke-opacity:0.5;}
	.st4{fill:none;stroke:#92A7B1;stroke-width:1.1481;stroke-miterlimit:10;stroke-opacity:0.5;}
	.st5{fill:#92A7B1;fill-opacity:0.5;}
</style>
<path class="st0" d="M15.3,19.3H3.5c-1.6,0-2.9-1.3-2.9-2.9V1.6c0-0.5,0.4-0.9,0.9-0.9h12.9c0.5,0,0.9,0.4,0.9,0.9V19.3z"/>
<path class="st0" d="M15.8,10.7h2.7v6.1c0,1.4-1.3,2.5-2.8,2.5"/>
<path class="st1" d="M7,5.9H2.5v2.9H7V5.9z"/>
<path class="st2" d="M8.6,5.9h4.3"/>
<path class="st2" d="M8.6,8.4h4.3"/>
<path class="st3" d="M2.5,11.2h10.5"/>
<path class="st3" d="M2.5,14.1h4.9"/>
<path class="st4" d="M8.6,14.1h4.2"/>
<path class="st3" d="M2.5,16.6h4.9"/>
<path class="st4" d="M8.9,16.6h4.3"/>
<path class="st5" d="M3.6,1.9C3.6,1.9,3.6,2,3.6,1.9L3.7,2l1.1,1.4c0,0,0-0.1,0-0.1s0-0.1,0-0.1V1.9h0.4V4H4.9c0,0-0.1,0-0.1,0
	c0,0,0,0-0.1,0L3.6,2.6c0,0,0,0.1,0,0.1c0,0,0,0.1,0,0.1V4H3.3V1.9H3.6C3.5,1.9,3.5,1.9,3.6,1.9z"/>
<path class="st5" d="M7.1,1.9v0.3H6.2v0.6H7v0.3H6.2v0.6h0.9V4H5.8V1.9H7.1z"/>
<path class="st5" d="M7.6,1.9h0.3c0,0,0.1,0,0.1,0C8,2,8,2,8,2l0.4,1.3c0,0,0,0.1,0,0.1c0,0,0,0.1,0,0.1c0,0,0-0.1,0-0.1
	c0,0,0-0.1,0-0.1L8.9,2c0,0,0,0,0-0.1c0,0,0,0,0.1,0h0.1c0,0,0.1,0,0.1,0c0,0,0,0,0,0.1l0.4,1.3c0,0.1,0,0.1,0.1,0.2
	c0,0,0-0.1,0-0.1c0,0,0-0.1,0-0.1L10.2,2c0,0,0,0,0-0.1c0,0,0,0,0.1,0h0.3L10,4H9.6L9.1,2.6c0,0,0,0,0-0.1c0,0,0,0,0-0.1
	c0,0,0,0,0,0.1c0,0,0,0,0,0.1L8.5,4H8.2L7.6,1.9z"/>
<path class="st5" d="M12.3,2.3C12.2,2.3,12.2,2.3,12.3,2.3L12.3,2.3c-0.1,0-0.1,0-0.1,0c0,0,0,0-0.1,0c0,0-0.1,0-0.1,0
	c0,0-0.1,0-0.1,0c-0.1,0-0.1,0-0.1,0c-0.1,0-0.1,0-0.2,0c0,0,0,0-0.1,0.1c0,0,0,0.1,0,0.1c0,0,0,0.1,0,0.1c0.1,0.1,0.1,0.1,0.1,0.1
	c0,0,0.1,0,0.1,0.1c0.1,0,0.1,0,0.2,0.1c0.1,0,0.1,0,0.2,0.1c0.1,0,0.1,0,0.2,0.1c0,0,0.1,0.1,0.1,0.1c0,0.1,0,0.1,0,0.2
	c0,0.1,0,0.2,0,0.3c0,0.1-0.1,0.1-0.1,0.2C12.1,3.9,12.1,3.9,12,4c-0.1,0.1-0.2,0.1-0.3,0.1c-0.1,0-0.1,0-0.2,0
	c-0.1,0-0.1,0-0.2-0.1c-0.1,0-0.1,0-0.2-0.1c0,0-0.1-0.1-0.1-0.1L11,3.6l0,0h0c0,0,0,0,0.1,0c0,0,0.1,0,0.1,0.1c0,0,0.1,0,0.1,0.1
	c0.1,0,0.1,0,0.2,0c0.1,0,0.2,0,0.3-0.1C12,3.6,12,3.5,12,3.5s0-0.1,0-0.1c0,0-0.1-0.1-0.1-0.1c0,0-0.1,0-0.1-0.1
	c0,0-0.1-0.1-0.2-0.1c-0.1,0-0.1,0-0.2-0.1c-0.1,0-0.1-0.1-0.1-0.1c0,0-0.1-0.1-0.1-0.2c0-0.1,0-0.1,0-0.3c0-0.1,0-0.1,0-0.2
	c0-0.1,0.1-0.1,0.1-0.2C11.3,2,11.4,2,11.4,2c0.1,0,0.2,0,0.3,0c0.1,0,0.3,0,0.4,0.1c0.1,0,0.2,0.1,0.3,0.2L12.3,2.3z"/>
</svg>
