<svg width="49" height="47" viewBox="0 0 49 47" fill="none" xmlns="http://www.w3.org/2000/svg">
<g filter="url(#filter0_d)">
<path d="M35.8587 3.34814C31.6712 3.34814 28.0976 6.08053 26.7588 9.73922H9.86428C9.49003 9.73922 9.18625 10.0766 9.18359 10.4505L9.02272 34.329H4.20706C3.83115 34.329 3.50842 34.6013 3.50842 34.9778V38.008C3.51706 40.8607 5.76386 43.2042 8.61358 43.3332V43.3481H29.6298V43.3282C29.8 43.3345 29.8701 43.3481 29.9778 43.3481H29.9924C32.9418 43.3435 35.3306 40.9511 35.3306 38.0017V22.6809C35.5007 22.6902 35.6809 22.6952 35.857 22.6952C41.1859 22.6952 45.5223 18.3505 45.5223 13.0213C45.5223 7.69251 41.1879 3.34814 35.8587 3.34814ZM8.87249 41.9868H8.86817C6.66624 41.9838 4.87977 40.2033 4.8698 38.001V35.6904H24.6097V37.9914C24.6107 39.4119 25.1781 40.7736 26.1858 41.7751C26.2573 41.8465 26.346 41.9017 26.4208 41.9868H8.87249ZM33.9692 38.001C33.9695 40.1993 32.1897 41.9825 29.9918 41.9868H29.9788C27.7719 41.9828 25.9821 40.1986 25.9711 37.9921V34.9778C25.9768 34.8037 25.9103 34.6352 25.787 34.5122C25.6637 34.3892 25.4952 34.3231 25.3213 34.329H10.3841L10.5403 11.1006H26.3809C26.2603 11.7238 26.1978 12.3566 26.1945 12.9911C26.1931 14.3329 26.473 15.6597 27.0161 16.8864H24.4062C24.03 16.8864 23.7255 17.1912 23.7255 17.5671C23.7255 17.943 24.03 18.2478 24.4062 18.2478H27.7546C29.1588 20.4561 31.4037 21.9956 33.9692 22.5107V38.001ZM35.8587 21.3342C31.2734 21.3342 27.5558 17.617 27.5562 13.0313C27.5562 8.44565 31.2734 4.72846 35.859 4.72846C40.4444 4.72846 44.1616 8.44598 44.1616 13.0313C44.1566 17.6147 40.4424 21.3292 35.8587 21.3342Z" fill="#239EC5"/>
<line x1="40.3847" y1="9.46345" x2="32.5847" y2="17.2635" stroke="#239EC5" stroke-width="2"/>
<line x1="40.3814" y1="17.1492" x2="32.8407" y2="9.60858" stroke="#239EC5" stroke-width="2"/>
<path d="M17.8585 15.0359C16.6148 15.0359 15.6002 16.0576 15.6002 17.3108C15.6002 18.564 16.6148 19.5888 17.8585 19.5888C19.1023 19.5888 20.1168 18.5671 20.1168 17.3139C20.1168 16.0607 19.1023 15.0359 17.8585 15.0359ZM17.8585 19.0856C16.8898 19.0856 16.1044 18.2924 16.1044 17.3139C16.1044 16.3354 16.8898 15.5421 17.8585 15.5421C18.8272 15.5421 19.6126 16.3354 19.6126 17.3139C19.6126 18.2893 18.8242 19.0856 17.8585 19.0856Z" fill="#239EC5" stroke="#239EC5" stroke-width="0.5"/>
<path d="M18.98 21.0498H16.737C15.3476 21.0498 14.2141 22.0715 14.2141 23.3247V27.1183H15.3339V31.6711H20.3763V27.1183H21.4961V23.3247H21.503C21.503 22.0684 20.3729 21.0498 18.98 21.0498ZM20.9465 26.612H20.9431H19.8233V31.1649H18.1436V27.6245H17.5837V31.1649H15.904V26.612H14.7842V23.3247C14.7842 22.3493 15.6651 21.5529 16.7439 21.5529H18.9869C20.0691 21.5529 20.9465 22.3462 20.9465 23.3247V26.612Z" fill="#239EC5" stroke="#239EC5" stroke-width="0.5"/>
</g>
<defs>
<filter id="filter0_d" x="0.508423" y="0.348145" width="48.0138" height="46" filterUnits="userSpaceOnUse" color-interpolation-filters="sRGB">
<feFlood flood-opacity="0" result="BackgroundImageFix"/>
<feColorMatrix in="SourceAlpha" type="matrix" values="0 0 0 0 0 0 0 0 0 0 0 0 0 0 0 0 0 0 127 0"/>
<feOffset/>
<feGaussianBlur stdDeviation="1.5"/>
<feColorMatrix type="matrix" values="0 0 0 0 0.137255 0 0 0 0 0.619608 0 0 0 0 0.772549 0 0 0 0.4 0"/>
<feBlend mode="normal" in2="BackgroundImageFix" result="effect1_dropShadow"/>
<feBlend mode="normal" in="SourceGraphic" in2="effect1_dropShadow" result="shape"/>
</filter>
</defs>
</svg>
