<?xml version="1.0" encoding="utf-8"?>
<!-- Generator: Adobe Illustrator 24.2.1, SVG Export Plug-In . SVG Version: 6.00 Build 0)  -->
<svg version="1.1" id="Layer_3" xmlns="http://www.w3.org/2000/svg" xmlns:xlink="http://www.w3.org/1999/xlink" x="0px" y="0px"
	 viewBox="0 0 42 42" style="enable-background:new 0 0 42 42;" xml:space="preserve">
<style type="text/css">
	.st0{fill:none;stroke:#EE5873;stroke-miterlimit:10;}
	.st1{fill:none;stroke:#EE5873;stroke-linecap:round;stroke-miterlimit:10;}
</style>
<g>
	<path class="st0" d="M21.8,6.6H2.1C1.5,6.6,0.9,6,0.9,5.3V2.7c0-0.7,0.5-1.2,1.2-1.2h19.7c0.7,0,1.2,0.5,1.2,1.2v2.6
		C23,6,22.5,6.6,21.8,6.6z"/>
	<path class="st0" d="M21.8,40.6H2.1c-0.7,0-1.2-0.5-1.2-1.2v-2.6c0-0.7,0.5-1.2,1.2-1.2h19.7c0.7,0,1.2,0.5,1.2,1.2v2.6
		C23,40.1,22.5,40.6,21.8,40.6z"/>
	<path class="st0" d="M17.1,9.6c0,4.6-2.3,8.3-5.1,8.3c-2.3,0-5.1-3.7-5.1-8.3H17.1z"/>
	<path class="st0" d="M17.1,32.4c0-4.8-2.3-8.8-5.1-8.8c-2.3,0-5.1,3.9-5.1,8.8H17.1z"/>
	<path class="st0" d="M3,6.6c0,0-0.6,9.7,7.6,14.3c0,0-8.4,4.7-7.3,14.7"/>
	<path class="st0" d="M22,6.7c0,0,0.6,9.7-7.6,14.3c0,0,8.4,4.7,7.3,14.7"/>
	<line class="st1" x1="29.2" y1="6.7" x2="27.6" y2="9.6"/>
	<line class="st1" x1="34.2" y1="12.6" x2="31.9" y2="14.2"/>
	<line class="st1" x1="33.1" y1="21.2" x2="36.3" y2="21.1"/>
	<line class="st1" x1="31.6" y1="28" x2="33.6" y2="29.7"/>
	<line class="st1" x1="27.1" y1="32" x2="28.6" y2="35.2"/>
	<polyline class="st1" points="26.1,12.6 21,21.1 23.8,25.6 	"/>
	<path class="st1" d="M22.6,1.9c10.3,0,18.6,8.6,18.6,19.2s-8.3,19.2-18.6,19.2"/>
</g>
</svg>
