<svg width="20" height="22" viewBox="0 0 20 22" fill="none" xmlns="http://www.w3.org/2000/svg">
<path d="M3.2149 16.6919H17.416C18.5612 16.6919 19.4774 15.8029 19.4774 14.6916C19.4774 13.9137 19.0193 13.2469 18.4467 12.9135L17.645 12.469C17.416 12.3579 17.1869 12.1356 17.1869 11.8022L16.2707 6.02352C15.8126 3.24528 13.2931 1.13382 10.43 1.13382C7.45232 1.13382 5.04729 3.24528 4.5892 6.02352L3.673 11.8022C3.673 12.0245 3.44395 12.3579 3.2149 12.469L2.41322 12.9135C1.72608 13.2469 1.3825 13.9137 1.3825 14.6916C1.15345 15.8029 2.06965 16.6919 3.2149 16.6919Z" stroke="#B4B0B0" stroke-width="0.999" stroke-linecap="round"/>
<path d="M12.6059 20.0271C12.0333 20.6931 11.2316 21.1372 10.3154 21.1372C9.3992 21.1372 8.59753 20.6931 8.0249 20.0271" stroke="#B4B0B0" stroke-width="0.999" stroke-linecap="round"/>
</svg>
