<?xml version="1.0" encoding="utf-8"?>
<!-- Generator: Adobe Illustrator 24.2.1, SVG Export Plug-In . SVG Version: 6.00 Build 0)  -->
<svg version="1.1" id="Layer_1" xmlns="http://www.w3.org/2000/svg" xmlns:xlink="http://www.w3.org/1999/xlink" x="0px" y="0px"
	 viewBox="0 0 20 20" style="enable-background:new 0 0 20 20;" xml:space="preserve">
<style type="text/css">
	.st0{fill:#92A7B1;}
</style>
<g>
	<path class="st0" d="M16.8,15.7H3.7c-0.7,0-1.3-0.3-1.8-0.8c-0.4-0.5-0.5-1-0.4-1.6c0-0.8,0.4-1.6,1.2-2L3.5,11
		c0.1,0,0.2-0.2,0.2-0.2l0.8-5.4C5,2.5,7.5,0.5,10.4,0.5c2.9,0,5.4,2.1,5.8,4.9l0.8,5.3c0,0.2,0.1,0.2,0.2,0.3l0.8,0.4
		c0.7,0.4,1.2,1.2,1.2,2C19.2,14.7,18.1,15.7,16.8,15.7z M10.4,1.4c-2.5,0-4.5,1.7-4.9,4.1l-0.8,5.3c0,0.3-0.3,0.8-0.7,1l-0.7,0.4
		c-0.6,0.3-0.7,0.9-0.7,1.2c-0.1,0.5,0.1,0.8,0.2,0.9c0.2,0.3,0.6,0.5,1,0.5h13.1c0.8,0,1.4-0.6,1.4-1.4c0-0.5-0.3-1-0.7-1.2
		l-0.7-0.4c-0.4-0.2-0.7-0.6-0.7-1l-0.8-5.3C14.9,3.1,12.8,1.4,10.4,1.4z"/>
</g>
<g>
	<path class="st0" d="M10.4,19.8c-0.9,0-1.8-0.4-2.5-1.2c-0.2-0.2-0.1-0.5,0-0.6c0.2-0.2,0.5-0.1,0.6,0c1,1.1,2.6,1.1,3.5,0
		c0.2-0.2,0.5-0.2,0.6,0c0.2,0.2,0.2,0.5,0,0.6C12.2,19.4,11.3,19.8,10.4,19.8z"/>
</g>
</svg>
