<?xml version="1.0" encoding="utf-8"?>
<!-- Generator: Adobe Illustrator 24.2.1, SVG Export Plug-In . SVG Version: 6.00 Build 0)  -->
<svg version="1.1" xmlns="http://www.w3.org/2000/svg" xmlns:xlink="http://www.w3.org/1999/xlink" x="0px" y="0px"
	 viewBox="0 0 22 22" style="enable-background:new 0 0 22 22;" xml:space="preserve">
<style type="text/css">
	.st0{fill:none;stroke:#B4B0B0;stroke-miterlimit:10;}
	.st1{fill:none;stroke:#B4B0B0;stroke-linecap:round;stroke-miterlimit:10;}
	.st2{display:none;}
	.st3{display:inline;}
	.st4{fill:#92A7B1;}
</style>
<g id="Layer_1">
	<path class="st0" d="M18,12.7c1.2,0.1,2.8,0.2,3.1,2.2v0c0,1.2-1,2.2-2.3,2.2H3.1c-1.3,0-2.3-1-2.3-2.2v0c0-1.2,1.1-2.3,3.3-2.2
		c0,0-1-11.5,6.6-11.9h0c7.9,0,6.9,11.9,6.9,11.9L18,12.7c-0.1,0-0.1,0-0.2,0"/>
	<path class="st1" d="M13.8,19.5c0,0.9-1.3,1.7-2.8,1.7s-2.8-0.7-2.8-1.7"/>
</g>
<g id="Layer_2" class="st2">
	<g class="st3">
		<path class="st4" d="M18.8,18.4H3.2c-0.8,0-1.5-0.4-2.1-0.9c-0.5-0.6-0.6-1.2-0.5-1.9c0-0.9,0.5-1.9,1.4-2.4l0.9-0.4
			c0.1,0,0.2-0.2,0.2-0.2L4,6.2c0.6-3.4,3.6-5.8,7-5.8s6.4,2.5,6.9,5.8l0.9,6.3c0,0.2,0.1,0.2,0.2,0.4l0.9,0.5
			c0.8,0.5,1.4,1.4,1.4,2.4C21.6,17.2,20.3,18.4,18.8,18.4z M11.1,1.4c-3,0-5.3,2-5.8,4.9l-0.9,6.3c0,0.4-0.4,0.9-0.8,1.2l-0.8,0.5
			C2.1,14.7,2,15.4,2,15.7c-0.1,0.6,0.1,0.9,0.2,1.1c0.2,0.4,0.7,0.6,1.2,0.6H19c0.9,0,1.7-0.7,1.7-1.7c0-0.6-0.4-1.2-0.8-1.4
			l-0.8-0.5C18.3,13.5,18,13,18,12.6l-1-6.3C16.4,3.4,13.9,1.4,11.1,1.4z"/>
	</g>
</g>
</svg>
