<svg width="49" height="49" viewBox="0 0 49 49" fill="none" xmlns="http://www.w3.org/2000/svg">
<g filter="url(#filter0_d)">
<path d="M44.7031 24.4954V18.0437C44.7031 15.2186 42.6741 12.8612 39.9973 12.345C40.9038 11.5186 41.4773 10.3321 41.4773 9.01149C41.4773 6.52181 39.4509 4.49536 36.9612 4.49536C34.4715 4.49536 32.4451 6.52181 32.4451 9.01149C32.4451 10.2747 32.9676 11.4167 33.807 12.2373H25.0257C24.1005 12.2373 23.3051 12.7979 22.9567 13.5967L17.5567 16.9199C17.0476 17.2328 16.4631 17.3986 15.8657 17.3986H15.5999C16.4386 16.5779 16.9612 15.436 16.9612 14.1728C16.9612 11.6831 14.9347 9.65665 12.4451 9.65665C9.95538 9.65665 7.92893 11.6831 7.92893 14.1728C7.92893 15.6154 8.61151 16.8992 9.66829 17.727C6.79345 18.6341 4.70312 21.325 4.70312 24.4954V29.0115C4.70312 30.4347 5.86054 31.5921 7.28377 31.5921H7.92893V40.6244C6.15022 40.6244 4.70312 42.0715 4.70312 43.8502V44.4954H20.187V43.8502C20.187 42.0715 18.7399 40.6244 16.9612 40.6244V24.6657C16.9612 23.567 17.5122 22.5547 18.4341 21.9579L26.4773 16.7534H31.7999C32.156 16.7534 32.4451 17.0425 32.4451 17.3986L32.4464 38.0437H32.4451C30.6663 38.0437 29.2193 39.4908 29.2193 41.2696V44.4954H44.7031V41.2696C44.7031 39.4908 43.256 38.0437 41.4773 38.0437V27.7212C43.256 27.7212 44.7031 26.2741 44.7031 24.4954ZM33.7354 9.01149C33.7354 7.23278 35.1825 5.78568 36.9612 5.78568C38.7399 5.78568 40.187 7.23278 40.187 9.01149C40.187 10.7902 38.7399 12.2373 36.9612 12.2373C35.1825 12.2373 33.7354 10.7902 33.7354 9.01149ZM9.21925 14.1728C9.21925 12.3941 10.6664 10.947 12.4451 10.947C14.2238 10.947 15.6709 12.3941 15.6709 14.1728C15.6709 15.9515 14.2238 17.3986 12.4451 17.3986C10.6664 17.3986 9.21925 15.9515 9.21925 14.1728ZM18.7864 43.205H6.10377C6.37022 42.4541 7.08764 41.9147 7.92893 41.9147H16.9612C17.8025 41.9147 18.5199 42.4541 18.7864 43.205ZM17.7334 20.8741C16.4418 21.7102 15.6709 23.1276 15.6709 24.6657V40.6244H13.0902V29.0115H11.7999V40.6244H9.21925V23.205H7.92893V30.3018H7.28377C6.57216 30.3018 5.99345 29.7231 5.99345 29.0115V24.4954C5.99345 21.2934 8.59796 18.6889 11.7999 18.6889H12.4451H15.8657C16.7012 18.6889 17.5193 18.4579 18.2328 18.0192L22.8793 15.1599C23.0934 15.8483 23.6225 16.3915 24.3025 16.6237L17.7334 20.8741ZM43.4128 41.2696V43.205H30.5096V41.2696C30.5096 40.2025 31.378 39.3341 32.4451 39.3341H41.4773C42.5444 39.3341 43.4128 40.2025 43.4128 41.2696ZM40.187 16.7534V38.0437H37.6063V23.205H36.316V38.0437H33.7367L33.7354 17.3986C33.7354 16.3315 32.867 15.4631 31.7999 15.4631H25.0257C24.4922 15.4631 24.058 15.0289 24.058 14.4954C24.058 13.9618 24.4922 13.5276 25.0257 13.5276H38.8967C41.3863 13.5276 43.4128 15.5541 43.4128 18.0437V24.4954C43.4128 25.5625 42.5444 26.4308 41.4773 26.4308V16.7534H40.187Z" fill="#6771DC"/>
<path d="M25.3482 7.72117C25.3482 5.94246 23.9011 4.49536 22.1224 4.49536H19.5418C17.7631 4.49536 16.316 5.94246 16.316 7.72117V10.947H22.1224C23.9011 10.947 25.3482 9.49988 25.3482 7.72117ZM17.6063 7.72117C17.6063 6.65407 18.4747 5.78568 19.5418 5.78568H22.1224C23.1895 5.78568 24.0579 6.65407 24.0579 7.72117C24.0579 8.78826 23.1895 9.65665 22.1224 9.65665H17.6063V7.72117Z" fill="#6771DC"/>
<path d="M18.8967 7.07593H20.187V8.36625H18.8967V7.07593Z" fill="#6771DC"/>
<path d="M21.4773 7.07593H22.7676V8.36625H21.4773V7.07593Z" fill="#6771DC"/>
<path d="M31.1547 22.5598V19.334H25.3482C23.5695 19.334 22.1224 20.7811 22.1224 22.5598C22.1224 24.3385 23.5695 25.7856 25.3482 25.7856H27.9289C29.7076 25.7856 31.1547 24.3385 31.1547 22.5598ZM29.8643 22.5598C29.8643 23.6269 28.996 24.4953 27.9289 24.4953H25.3482C24.2811 24.4953 23.4127 23.6269 23.4127 22.5598C23.4127 21.4927 24.2811 20.6243 25.3482 20.6243H29.8643V22.5598Z" fill="#6771DC"/>
<path d="M27.2838 21.9148H28.5742V23.2051H27.2838V21.9148Z" fill="#6771DC"/>
<path d="M24.7031 21.9148H25.9934V23.2051H24.7031V21.9148Z" fill="#6771DC"/>
</g>
<defs>
<filter id="filter0_d" x="0.703125" y="0.495361" width="48" height="48" filterUnits="userSpaceOnUse" color-interpolation-filters="sRGB">
<feFlood flood-opacity="0" result="BackgroundImageFix"/>
<feColorMatrix in="SourceAlpha" type="matrix" values="0 0 0 0 0 0 0 0 0 0 0 0 0 0 0 0 0 0 127 0"/>
<feOffset/>
<feGaussianBlur stdDeviation="2"/>
<feColorMatrix type="matrix" values="0 0 0 0 0.403922 0 0 0 0 0.443137 0 0 0 0 0.862745 0 0 0 0.4 0"/>
<feBlend mode="normal" in2="BackgroundImageFix" result="effect1_dropShadow"/>
<feBlend mode="normal" in="SourceGraphic" in2="effect1_dropShadow" result="shape"/>
</filter>
</defs>
</svg>
