<svg width="48" height="49" viewBox="0 0 48 49" fill="none" xmlns="http://www.w3.org/2000/svg">
<g filter="url(#filter0_d)">
<path d="M24 4.49536C20.7952 4.49536 18.1811 7.10166 18.1811 10.2985C18.1811 13.4954 20.7952 16.1095 24 16.1095C27.2047 16.1095 29.8188 13.5032 29.8188 10.3064C29.8188 7.10953 27.2047 4.49536 24 4.49536ZM24 14.8261C21.5039 14.8261 19.4803 12.8024 19.4803 10.3064C19.4803 7.81032 21.5039 5.7867 24 5.7867C26.496 5.7867 28.5196 7.81032 28.5196 10.3064C28.5196 12.7946 26.4881 14.8261 24 14.8261Z" fill="#DC67CE"/>
<path d="M26.5827 17.4009H21.4095C18.2047 17.4009 15.5906 20.0072 15.5906 23.204V32.8812H18.1733V44.4953H29.8032V32.8812H32.3858V23.204H32.4016C32.4016 19.9993 29.7953 17.4009 26.5827 17.4009ZM31.1181 31.5898H31.1102H28.5276V43.204H24.6536V34.1725H23.3622V43.204H19.4882V31.5898H16.9055V23.204C16.9055 20.7158 18.937 18.6843 21.4252 18.6843H26.5984C29.0945 18.6843 31.1181 20.708 31.1181 23.204V31.5898Z" fill="#DC67CE"/>
<path d="M11.0787 11.5898C8.56693 11.5898 6.51968 13.6371 6.51968 16.141C6.51968 18.6528 8.56693 20.6922 11.0787 20.6922C13.5905 20.6922 15.6378 18.6528 15.6378 16.141C15.6378 13.6292 13.5905 11.5898 11.0787 11.5898ZM11.0787 19.4009C9.27559 19.4009 7.81102 17.9363 7.81102 16.141C7.81102 14.3457 9.27559 12.8812 11.0787 12.8812C12.8819 12.8812 14.3465 14.3457 14.3465 16.141C14.3465 17.9363 12.8819 19.4009 11.0787 19.4009Z" fill="#DC67CE"/>
<path d="M14.3071 34.1726V43.2041H11.7402V36.7552H10.4488V43.2041H7.23622V34.1726H5.33858L5.29134 26.7237C5.29134 24.7552 6.92913 23.1568 8.94488 23.1568H14.2598V21.8655H8.94488C6.22047 21.8734 4 24.0545 4 26.7316L4.05512 35.4639H5.94488V44.4954H15.5984V35.4639H16.8898V34.1726H14.3071Z" fill="#DC67CE"/>
<path d="M36.9213 11.5898C34.4095 11.5898 32.3622 13.6292 32.3622 16.141C32.3622 18.6528 34.4095 20.6922 36.9213 20.6922C39.4331 20.6922 41.4803 18.6528 41.4803 16.141C41.4803 13.6292 39.4331 11.5898 36.9213 11.5898ZM36.9213 19.4009C35.1181 19.4009 33.6536 17.9363 33.6536 16.141C33.6615 14.3457 35.126 12.8812 36.9213 12.8812C38.7244 12.8812 40.189 14.3457 40.189 16.141C40.189 17.9363 38.7244 19.4009 36.9213 19.4009Z" fill="#DC67CE"/>
<path d="M39.0552 21.8733H33.693V23.1646H39.0552C41.0709 23.1646 42.7087 24.7631 42.7087 26.7237L42.6615 34.1725H40.7638V43.204H37.5512V36.7552H36.2599V43.204H33.693V34.1725H31.1103V35.4638H32.4016V44.4953H42.0552V35.4638H43.9449L44 26.7316C44 24.0544 41.7796 21.8733 39.0552 21.8733Z" fill="#DC67CE"/>
</g>
<defs>
<filter id="filter0_d" x="0" y="0.495361" width="48" height="48" filterUnits="userSpaceOnUse" color-interpolation-filters="sRGB">
<feFlood flood-opacity="0" result="BackgroundImageFix"/>
<feColorMatrix in="SourceAlpha" type="matrix" values="0 0 0 0 0 0 0 0 0 0 0 0 0 0 0 0 0 0 127 0"/>
<feOffset/>
<feGaussianBlur stdDeviation="2"/>
<feColorMatrix type="matrix" values="0 0 0 0 0.862745 0 0 0 0 0.403922 0 0 0 0 0.807843 0 0 0 0.4 0"/>
<feBlend mode="normal" in2="BackgroundImageFix" result="effect1_dropShadow"/>
<feBlend mode="normal" in="SourceGraphic" in2="effect1_dropShadow" result="shape"/>
</filter>
</defs>
</svg>
