<svg width="369" height="367" viewBox="0 0 369 367" fill="none" xmlns="http://www.w3.org/2000/svg">
      <path d="M129.776 312.647V6.35889" stroke="#DEE0E0" stroke-width="0.9984" stroke-miterlimit="10"
        stroke-linecap="round" />
      <path d="M53.3269 232.944V68.9978" stroke="#DEE0E0" stroke-width="0.9984" stroke-miterlimit="10"
        stroke-linecap="round" />
      <path d="M146.94 271.71V28.5537" stroke="#DEE0E0" stroke-width="0.9984" stroke-miterlimit="10"
        stroke-linecap="round" />
      <path d="M220.035 271.71V31.2173" stroke="#DEE0E0" stroke-width="0.9984" stroke-miterlimit="10"
        stroke-linecap="round" />
      <path d="M291.157 156.396V36.9385" stroke="#DEE0E0" stroke-width="0.9984" stroke-miterlimit="10"
        stroke-linecap="round" />
      <path
        d="M55.8916 66.433C55.8916 67.9127 54.7079 68.9978 53.3269 68.9978C51.8472 68.9978 50.7621 67.814 50.7621 66.433C50.7621 64.9534 51.9459 63.8683 53.3269 63.8683C54.7079 63.7697 55.8916 64.9534 55.8916 66.433Z"
        stroke="#DEE0E0" stroke-width="0.9984" stroke-miterlimit="10" stroke-linecap="round" />
      <path
        d="M132.439 3.79423C132.439 5.27388 131.255 6.35896 129.874 6.35896C128.493 6.35896 127.31 5.17524 127.31 3.79423C127.31 2.31457 128.493 1.22949 129.874 1.22949C131.255 1.22949 132.439 2.31457 132.439 3.79423Z"
        stroke="#DEE0E0" stroke-width="0.9984" stroke-miterlimit="10" stroke-linecap="round" />
      <path
        d="M149.603 25.9893C149.603 27.4689 148.419 28.554 147.038 28.554C145.559 28.554 144.474 27.3703 144.474 25.9893C144.474 24.5096 145.657 23.4246 147.038 23.4246C148.419 23.4246 149.603 24.6083 149.603 25.9893Z"
        stroke="#DEE0E0" stroke-width="0.9984" stroke-miterlimit="10" stroke-linecap="round" />
      <path
        d="M293.721 33.782C293.721 35.2617 292.538 36.3468 291.157 36.3468C289.677 36.3468 288.592 35.163 288.592 33.782C288.592 32.3024 289.776 31.2173 291.157 31.2173C292.538 31.2173 293.721 32.401 293.721 33.782Z"
        stroke="#DEE0E0" stroke-width="0.9984" stroke-miterlimit="10" stroke-linecap="round" />
      <path d="M324.695 161.624V55.6809" stroke="#DEE0E0" stroke-width="0.9984" stroke-miterlimit="10"
        stroke-linecap="round" />
      <path
        d="M327.26 52.7216C327.26 54.2013 326.076 55.2863 324.695 55.2863C323.216 55.2863 322.131 54.1026 322.131 52.7216C322.131 51.2419 323.314 50.1569 324.695 50.1569C326.076 50.0582 327.26 51.2419 327.26 52.7216Z"
        stroke="#DEE0E0" stroke-width="0.9984" stroke-miterlimit="10" stroke-linecap="round" />
      <path d="M365.435 271.612V124.534" stroke="#DEE0E0" stroke-width="0.9984" stroke-miterlimit="10"
        stroke-linecap="round" />
      <path
        d="M368 121.575C368 123.055 366.816 124.14 365.435 124.14C363.956 124.14 362.871 122.956 362.871 121.575C362.871 120.095 364.054 119.01 365.435 119.01C366.816 118.911 368 120.095 368 121.575Z"
        stroke="#DEE0E0" stroke-width="0.9984" stroke-miterlimit="10" stroke-linecap="round" />
      <path d="M15.645 264.608V117.531" stroke="#DEE0E0" stroke-width="0.9984" stroke-miterlimit="10"
        stroke-linecap="round" />
      <path
        d="M18.2097 114.571C18.2097 116.051 17.026 117.136 15.645 117.136C14.1653 117.136 13.0803 115.952 13.0803 114.571C13.0803 113.091 14.264 112.006 15.645 112.006C17.1247 112.006 18.2097 113.091 18.2097 114.571Z"
        stroke="#DEE0E0" stroke-width="0.9984" stroke-miterlimit="10" stroke-linecap="round" />
      <path
        d="M222.698 28.554C222.698 30.0336 221.514 31.1187 220.133 31.1187C218.752 31.1187 217.568 29.935 217.568 28.554C217.568 27.0743 218.752 25.9893 220.133 25.9893C221.514 25.9893 222.698 27.173 222.698 28.554Z"
        stroke="#DEE0E0" stroke-width="0.9984" stroke-miterlimit="10" stroke-linecap="round" />
      <path
        d="M349.85 171.39V141.402C349.85 138.739 347.778 136.47 345.016 136.273L331.699 135.385C329.924 128.776 327.26 122.463 323.906 116.643L332.686 106.581C334.461 104.51 334.363 101.452 332.488 99.5775L311.28 78.3691C309.406 76.4949 306.249 76.3962 304.276 78.1718L294.215 86.9511C288.395 83.5972 282.081 80.9338 275.472 79.1582L274.585 65.8414C274.387 63.178 272.118 61.0078 269.455 61.0078H239.467C236.804 61.0078 234.535 63.0793 234.338 65.8414L233.45 79.1582C226.841 80.9338 220.528 83.5972 214.708 86.9511L204.646 78.1718C202.575 76.3962 199.517 76.4949 197.642 78.3691L176.434 99.5775C174.56 101.452 174.461 104.608 176.237 106.581L185.016 116.643C181.662 122.463 178.999 128.776 177.223 135.385L163.906 136.273C161.243 136.47 159.073 138.739 159.073 141.402V171.39C159.073 174.053 161.144 176.322 163.906 176.52L177.223 177.407C178.999 184.016 181.662 190.33 185.016 196.15L176.237 206.211C174.461 208.283 174.56 211.341 176.434 213.215L197.642 234.423C199.517 236.298 202.673 236.396 204.646 234.621L214.708 225.841C220.528 229.195 226.841 231.859 233.45 233.634L234.338 246.951C234.535 249.614 236.804 251.785 239.467 251.785H269.455C272.118 251.785 274.387 249.713 274.585 246.951L275.472 233.634C282.081 231.859 288.395 229.195 294.215 225.841L304.276 234.621C306.348 236.396 309.406 236.298 311.28 234.423L332.488 213.215C334.363 211.341 334.461 208.184 332.686 206.211L323.906 196.15C327.26 190.33 329.924 184.016 331.699 177.407L345.016 176.52C347.778 176.322 349.85 174.053 349.85 171.39ZM259.295 203.449C229.307 206.409 204.35 181.452 207.31 151.464C209.48 129.269 227.433 111.415 249.628 109.146C279.615 106.187 304.572 131.143 301.613 161.131C299.443 183.326 281.49 201.279 259.295 203.449Z"
        fill="white" stroke="#8AB7CE" stroke-width="0.9984" stroke-miterlimit="10" />
      <path
        d="M155.522 208.875V188.357C155.522 186.483 154.042 185.003 152.266 184.806L143.191 184.214C142.007 179.676 140.133 175.435 137.864 171.39L143.882 164.584C145.065 163.203 145.065 161.131 143.684 159.75L129.184 145.25C127.901 143.967 125.731 143.869 124.35 145.052L117.544 151.07C113.598 148.801 109.258 147.025 104.72 145.743L104.128 136.668C104.03 134.793 102.451 133.412 100.577 133.412H80.0593C78.1851 133.412 76.7054 134.892 76.5081 136.668L75.9163 145.743C71.3787 146.927 67.137 148.801 63.0926 151.07L56.2862 145.052C54.9052 143.869 52.8337 143.869 51.4526 145.25L36.952 159.75C35.6697 161.033 35.571 163.203 36.7547 164.584L42.772 171.39C40.5032 175.336 38.7276 179.676 37.4452 184.214L28.37 184.806C26.4958 184.904 25.1148 186.483 25.1148 188.357V208.875C25.1148 210.749 26.5944 212.229 28.37 212.426L37.6425 212.919C38.8263 217.457 40.7005 221.698 42.9693 225.743L36.952 232.549C35.7683 233.93 35.7683 236.002 37.1493 237.383L51.6499 251.883C52.9323 253.166 55.1025 253.264 56.4835 252.081L63.2899 246.063C67.2356 248.332 71.5759 250.108 76.1135 251.39L76.7054 260.465C76.8041 262.34 78.3824 263.721 80.2566 263.721H100.774C102.649 263.721 104.128 262.241 104.326 260.465L104.917 251.39C109.455 250.206 113.697 248.332 117.741 246.063L124.548 252.081C125.929 253.264 128 253.264 129.381 251.883L143.882 237.383C145.164 236.1 145.263 233.93 144.079 232.549L138.062 225.743C140.331 221.797 142.106 217.457 143.388 212.919L152.464 212.327C154.042 212.229 155.522 210.749 155.522 208.875ZM93.6721 230.774C73.2529 232.845 56.1875 215.78 58.1604 195.262C59.6401 180.169 71.8719 167.839 87.063 166.359C107.482 164.288 124.548 181.353 122.575 201.871C121.095 217.062 108.863 229.294 93.6721 230.774Z"
        stroke="#8AB7CE" stroke-width="0.9984" stroke-miterlimit="10" />
      <path d="M356.163 365.619H15.645L81.9335 313.93H289.874L356.163 365.619Z" stroke="#D7E8F2"
        stroke-miterlimit="10" />
      <path d="M289.874 161.624H81.9335V282.463H289.874V161.624Z" fill="white" stroke="#A3CAEF"
        stroke-miterlimit="10" />
      <path d="M283.758 165.176H88.0494V278.912H283.758V165.176Z" fill="white" stroke="#75A7C6"
        stroke-miterlimit="10" />
      <path d="M356.163 334.152H15.645L81.9335 282.463H289.874L356.163 334.152Z" fill="white" stroke="#B3D6FF"
        stroke-miterlimit="10" stroke-linecap="round" stroke-linejoin="bevel" />
      <path d="M67.0383 285.718L76.1135 278.813" stroke="#8AB7CE" stroke-width="0.5" stroke-miterlimit="10"
        stroke-linecap="round" />
      <path d="M34.0914 310.478L63.6845 288.184" stroke="#8AB7CE" stroke-width="0.5" stroke-miterlimit="10"
        stroke-linecap="round" />
      <path d="M50.7621 345.299H7.55623C1.24304 345.299 -1.42034 337.309 3.61049 333.461L13.0803 326.359"
        stroke="#8AB7CE" stroke-width="0.5" stroke-miterlimit="10" stroke-linecap="round" />
      <path d="M233.056 345.299H81.9335" stroke="#8AB7CE" stroke-width="0.5" stroke-miterlimit="10"
        stroke-linecap="round" />
      <path d="M333.376 345.299H260.38" stroke="#8AB7CE" stroke-width="0.5" stroke-miterlimit="10"
        stroke-linecap="round" />
      <path d="M330.713 306.137L343.832 316.002" stroke="#8AB7CE" stroke-width="0.5" stroke-miterlimit="10"
        stroke-linecap="round" />
      <path d="M303.191 285.422L328.148 304.164" stroke="#8AB7CE" stroke-width="0.5" stroke-miterlimit="10"
        stroke-linecap="round" />
      <path d="M103.142 287.296H91.8965L96.0396 284.041H106.792L103.142 287.296Z" stroke="#B3D6FF"
        stroke-miterlimit="10" />
      <path d="M96.7301 293.314H84.2023L89.0359 289.565H100.972L96.7301 293.314Z" stroke="#B3D6FF"
        stroke-miterlimit="10" />
      <path d="M115.867 293.314H103.241L107.186 289.565H119.122L115.867 293.314Z" fill="white" stroke="#B3D6FF"
        stroke-width="0.8" stroke-miterlimit="10" stroke-linecap="round" stroke-linejoin="bevel" />
      <path d="M134.905 293.314H122.377L125.435 289.565H137.371L134.905 293.314Z" fill="white" stroke="#B3D6FF"
        stroke-width="0.8" stroke-miterlimit="10" stroke-linecap="round" stroke-linejoin="bevel" />
      <path d="M154.042 293.314H141.514L143.586 289.565H155.522L154.042 293.314Z" fill="white" stroke="#B3D6FF"
        stroke-width="0.8" stroke-miterlimit="10" stroke-linecap="round" stroke-linejoin="bevel" />
      <path d="M173.08 293.314H160.552L161.736 289.565H173.672L173.08 293.314Z" fill="white" stroke="#B3D6FF"
        stroke-width="0.8" stroke-miterlimit="10" stroke-linecap="round" stroke-linejoin="bevel" />
      <path d="M192.217 293.314H179.689L179.985 289.565H191.921L192.217 293.314Z" fill="white" stroke="#B3D6FF"
        stroke-width="0.8" stroke-miterlimit="10" stroke-linecap="round" stroke-linejoin="bevel" />
      <path d="M211.255 293.314H198.728L198.136 289.565H210.072L211.255 293.314Z" fill="white" stroke="#B3D6FF"
        stroke-width="0.8" stroke-miterlimit="10" stroke-linecap="round" stroke-linejoin="bevel" />
      <path d="M230.392 293.314H217.864L216.385 289.565H228.321L230.392 293.314Z" fill="white" stroke="#B3D6FF"
        stroke-width="0.8" stroke-miterlimit="10" stroke-linecap="round" stroke-linejoin="bevel" />
      <path d="M249.529 293.314H236.903L234.535 289.565H246.471L249.529 293.314Z" fill="white" stroke="#B3D6FF"
        stroke-width="0.8" stroke-miterlimit="10" stroke-linecap="round" stroke-linejoin="bevel" />
      <path d="M268.567 293.314H256.04L252.686 289.565H264.622L268.567 293.314Z" fill="white" stroke="#B3D6FF"
        stroke-width="0.8" stroke-miterlimit="10" stroke-linecap="round" stroke-linejoin="bevel" />
      <path d="M287.704 293.314H275.176L270.935 289.565H282.871L287.704 293.314Z" fill="white" stroke="#B3D6FF"
        stroke-width="0.8" stroke-miterlimit="10" stroke-linecap="round" stroke-linejoin="bevel" />
      <path d="M89.6277 299.627H76.1135L81.7362 295.287H94.5599L89.6277 299.627Z" stroke="#B3D6FF"
        stroke-miterlimit="10" />
      <path d="M110.244 299.627H96.7301L101.268 295.287H114.091L110.244 299.627Z" fill="white" stroke="#B3D6FF"
        stroke-width="0.8" stroke-miterlimit="10" stroke-linecap="round" stroke-linejoin="bevel" />
      <path d="M130.861 299.627H117.347L120.799 295.287H133.721L130.861 299.627Z" fill="white" stroke="#B3D6FF"
        stroke-width="0.8" stroke-miterlimit="10" stroke-linecap="round" stroke-linejoin="bevel" />
      <path d="M151.477 299.627H137.963L140.429 295.287H153.253L151.477 299.627Z" fill="white" stroke="#B3D6FF"
        stroke-width="0.8" stroke-miterlimit="10" stroke-linecap="round" stroke-linejoin="bevel" />
      <path d="M172.094 299.627H158.58L159.961 295.287H172.784L172.094 299.627Z" fill="white" stroke="#B3D6FF"
        stroke-width="0.8" stroke-miterlimit="10" stroke-linecap="round" stroke-linejoin="bevel" />
      <path d="M192.71 299.627H179.196L179.492 295.287H192.316L192.71 299.627Z" fill="white" stroke="#B3D6FF"
        stroke-width="0.8" stroke-miterlimit="10" stroke-linecap="round" stroke-linejoin="bevel" />
      <path d="M213.327 299.627H199.813L199.024 295.287H211.946L213.327 299.627Z" fill="white" stroke="#B3D6FF"
        stroke-width="0.8" stroke-miterlimit="10" stroke-linecap="round" stroke-linejoin="bevel" />
      <path d="M233.943 299.627H220.429L218.654 295.287H231.477L233.943 299.627Z" fill="white" stroke="#B3D6FF"
        stroke-width="0.8" stroke-miterlimit="10" stroke-linecap="round" stroke-linejoin="bevel" />
      <path d="M254.461 299.627H240.947L238.185 295.287H251.009L254.461 299.627Z" fill="white" stroke="#B3D6FF"
        stroke-width="0.8" stroke-miterlimit="10" stroke-linecap="round" stroke-linejoin="bevel" />
      <path d="M275.078 299.627H261.564L257.716 295.287H270.54L275.078 299.627Z" fill="white" stroke="#B3D6FF"
        stroke-width="0.8" stroke-miterlimit="10" stroke-linecap="round" stroke-linejoin="bevel" />
      <path d="M295.694 299.627H282.18L277.347 295.287H290.17L295.694 299.627Z" fill="white" stroke="#B3D6FF"
        stroke-width="0.8" stroke-miterlimit="10" stroke-linecap="round" stroke-linejoin="bevel" />
      <path d="M80.9471 307.42H66.2492L72.8583 302.29H86.7671L80.9471 307.42Z" stroke="#B3D6FF"
        stroke-miterlimit="10" />
      <path d="M103.438 307.42H88.6413L94.0667 302.29H107.975L103.438 307.42Z" fill="white" stroke="#B3D6FF"
        stroke-width="0.8" stroke-miterlimit="10" stroke-linecap="round" stroke-linejoin="bevel" />
      <path d="M237.889 307.42H111.132L115.275 302.29H235.028L237.889 307.42Z" fill="white" stroke="#B3D6FF"
        stroke-width="0.8" stroke-miterlimit="10" stroke-linecap="round" stroke-linejoin="bevel" />
      <path d="M260.676 307.42H245.978L242.624 302.29H256.631L260.676 307.42Z" fill="white" stroke="#B3D6FF"
        stroke-width="0.8" stroke-miterlimit="10" stroke-linecap="round" stroke-linejoin="bevel" />
      <path d="M283.167 307.42H268.469L263.832 302.29H277.84L283.167 307.42Z" fill="white" stroke="#B3D6FF"
        stroke-width="0.8" stroke-miterlimit="10" stroke-linecap="round" stroke-linejoin="bevel" />
      <path d="M305.657 307.42H290.861L285.139 302.29H299.048L305.657 307.42Z" fill="white" stroke="#B3D6FF"
        stroke-width="0.8" stroke-miterlimit="10" stroke-linecap="round" stroke-linejoin="bevel" />
      <path d="M126.126 287.296H114.782L117.938 284.041H128.691L126.126 287.296Z" fill="white" stroke="#B3D6FF"
        stroke-width="0.8" stroke-miterlimit="10" stroke-linecap="round" stroke-linejoin="bevel" />
      <path d="M142.303 287.296H130.959L133.327 284.041H144.178L142.303 287.296Z" fill="white" stroke="#B3D6FF"
        stroke-width="0.8" stroke-miterlimit="10" stroke-linecap="round" stroke-linejoin="bevel" />
      <path d="M158.481 287.296H147.137L148.814 284.041H159.665L158.481 287.296Z" fill="white" stroke="#B3D6FF"
        stroke-width="0.8" stroke-miterlimit="10" stroke-linecap="round" stroke-linejoin="bevel" />
      <path d="M174.659 287.296H163.315L164.301 284.041H175.152L174.659 287.296Z" fill="white" stroke="#B3D6FF"
        stroke-width="0.8" stroke-miterlimit="10" stroke-linecap="round" stroke-linejoin="bevel" />
      <path d="M190.737 287.296H179.492L179.788 284.041H190.54L190.737 287.296Z" fill="white" stroke="#B3D6FF"
        stroke-width="0.8" stroke-miterlimit="10" stroke-linecap="round" stroke-linejoin="bevel" />
      <path d="M206.915 287.296H195.67L195.176 284.041H206.027L206.915 287.296Z" fill="white" stroke="#B3D6FF"
        stroke-width="0.8" stroke-miterlimit="10" stroke-linecap="round" stroke-linejoin="bevel" />
      <path d="M223.684 287.296H212.34L211.157 284.041H222.007L223.684 287.296Z" fill="white" stroke="#B3D6FF"
        stroke-width="0.8" stroke-miterlimit="10" stroke-linecap="round" stroke-linejoin="bevel" />
      <path d="M249.233 287.296H237.988L235.62 284.041H246.471L249.233 287.296Z" fill="white" stroke="#B3D6FF"
        stroke-width="0.8" stroke-miterlimit="10" stroke-linecap="round" stroke-linejoin="bevel" />
      <path d="M264.622 287.296H253.278L250.318 284.041H261.169L264.622 287.296Z" fill="white" stroke="#B3D6FF"
        stroke-width="0.8" stroke-miterlimit="10" stroke-linecap="round" stroke-linejoin="bevel" />
      <path d="M280.01 287.296H268.666L265.016 284.041H275.867L280.01 287.296Z" fill="white" stroke="#B3D6FF"
        stroke-width="0.8" stroke-miterlimit="10" stroke-linecap="round" stroke-linejoin="bevel" />
      <path d="M224.769 327.149H147.137L153.253 312.648H218.654L224.769 327.149Z" stroke="#85AED6" stroke-width="0.8"
        stroke-miterlimit="10" />
      <path
        d="M351.132 339.775H20.6758C17.9138 339.775 15.645 337.506 15.645 334.744V334.053H356.163V334.744C356.163 337.506 353.993 339.775 351.132 339.775Z"
        stroke="#96C1EA" stroke-miterlimit="10" />
      <path
        d="M96.4341 262.043H56.5821C49.5784 262.043 43.9557 256.421 43.9557 249.417V209.565C43.9557 202.561 49.5784 196.938 56.5821 196.938H96.4341C103.438 196.938 109.061 202.561 109.061 209.565V249.417C109.061 256.421 103.438 262.043 96.4341 262.043Z"
        fill="white" stroke="#958ED6" stroke-width="0.9984" stroke-miterlimit="10" />
      <path
        d="M94.3626 258.591H58.6536C52.4391 258.591 47.4083 253.56 47.4083 247.345V211.636C47.4083 205.422 52.4391 200.391 58.6536 200.391H94.3626C100.577 200.391 105.608 205.422 105.608 211.636V247.345C105.608 253.56 100.577 258.591 94.3626 258.591Z"
        fill="white" stroke="#958ED6" stroke-width="0.5" stroke-miterlimit="10" />
      <path
        d="M321.638 260.367H281.786C274.782 260.367 269.159 254.744 269.159 247.74V207.888C269.159 200.884 274.782 195.262 281.786 195.262H321.638C328.641 195.262 334.264 200.884 334.264 207.888V247.74C334.165 254.744 328.543 260.367 321.638 260.367Z"
        fill="white" stroke="#80AEFF" stroke-width="0.9984" stroke-miterlimit="10" />
      <path
        d="M319.467 256.914H283.758C277.544 256.914 272.513 251.883 272.513 245.668V209.959C272.513 203.745 277.544 198.714 283.758 198.714H319.467C325.682 198.714 330.713 203.745 330.713 209.959V245.668C330.713 251.883 325.682 256.914 319.467 256.914Z"
        fill="white" stroke="#679AF4" stroke-width="0.5" stroke-miterlimit="10" />
      <path
        d="M307.236 167.642H278.925C273.993 167.642 269.948 163.597 269.948 158.665V130.354C269.948 125.422 273.993 121.378 278.925 121.378H307.236C312.168 121.378 316.212 125.422 316.212 130.354V158.665C316.212 163.597 312.168 167.642 307.236 167.642Z"
        fill="white" stroke="#13BC86" stroke-width="0.9984" stroke-miterlimit="10" />
      <path
        d="M305.756 165.175H280.503C276.064 165.175 272.513 161.624 272.513 157.185V131.933C272.513 127.494 276.064 123.942 280.503 123.942H305.756C310.195 123.942 313.746 127.494 313.746 131.933V157.185C313.746 161.624 310.195 165.175 305.756 165.175Z"
        fill="white" stroke="#13BC86" stroke-width="0.5" stroke-miterlimit="10" />
      <path
        d="M134.708 144.559H94.8558C87.8521 144.559 82.2295 138.936 82.2295 131.933V92.0805C82.2295 85.0768 87.8521 79.4541 94.8558 79.4541H134.708C141.712 79.4541 147.334 85.0768 147.334 92.0805V131.933C147.334 138.838 141.712 144.559 134.708 144.559Z"
        fill="white" stroke="#F78C57" stroke-width="0.9984" stroke-miterlimit="10" />
      <path
        d="M132.636 141.106H96.9274C90.7128 141.106 85.682 136.076 85.682 129.861V94.1521C85.682 87.9376 90.7128 82.9067 96.9274 82.9067H132.636C138.851 82.9067 143.882 87.9376 143.882 94.1521V129.861C143.882 135.977 138.851 141.106 132.636 141.106Z"
        fill="white" stroke="#F78C57" stroke-width="0.5" stroke-miterlimit="10" />
      <path
        d="M335.941 271.612C335.941 273.091 334.757 274.176 333.376 274.176C331.896 274.176 330.811 272.993 330.811 271.612C330.811 270.132 331.995 269.047 333.376 269.047C334.757 269.047 335.941 270.231 335.941 271.612Z"
        stroke="#96C1EA" stroke-width="1.3313" stroke-miterlimit="10" />
      <path
        d="M298.358 102.635C298.358 104.115 297.174 105.2 295.793 105.2C294.313 105.2 293.228 104.016 293.228 102.635C293.228 101.254 294.412 100.07 295.793 100.07C297.174 99.9718 298.358 101.156 298.358 102.635Z"
        stroke="#96C1EA" stroke-width="1.3313" stroke-miterlimit="10" />
      <path
        d="M318.58 166.063C318.58 166.951 317.79 167.74 316.903 167.74C316.015 167.74 315.226 166.951 315.226 166.063C315.226 165.175 316.015 164.386 316.903 164.386C317.79 164.386 318.58 165.077 318.58 166.063Z"
        fill="#13BC86" />
      <path
        d="M58.8509 265.397C59.7771 265.397 60.5279 264.646 60.5279 263.72C60.5279 262.794 59.7771 262.043 58.8509 262.043C57.9248 262.043 57.174 262.794 57.174 263.72C57.174 264.646 57.9248 265.397 58.8509 265.397Z"
        fill="#958ED6" />
      <path
        d="M79.862 104.312C80.7882 104.312 81.5389 103.562 81.5389 102.635C81.5389 101.709 80.7882 100.958 79.862 100.958C78.9359 100.958 78.1851 101.709 78.1851 102.635C78.1851 103.562 78.9359 104.312 79.862 104.312Z"
        fill="#F78C57" />
      <path
        d="M307.334 277.53C307.334 278.418 306.545 279.207 305.657 279.207C304.77 279.207 303.98 278.418 303.98 277.53C303.98 276.642 304.77 275.853 305.657 275.853C306.545 275.853 307.334 276.544 307.334 277.53Z"
        fill="#80AEFF" />
      <path
        d="M125.633 130.847C125.633 132.327 124.449 133.412 123.068 133.412C121.588 133.412 120.503 132.228 120.503 130.847C120.503 129.368 121.687 128.283 123.068 128.283C124.449 128.283 125.633 129.466 125.633 130.847Z"
        stroke="#96C1EA" stroke-width="1.3313" stroke-miterlimit="10" />
      <path
        d="M34.0914 270.625C34.0914 272.105 32.9076 273.19 31.5266 273.19C30.047 273.19 28.9619 272.006 28.9619 270.625C28.9619 269.146 30.1456 268.061 31.5266 268.061C32.9076 268.061 34.0914 269.244 34.0914 270.625Z"
        stroke="#96C1EA" stroke-width="1.3313" stroke-miterlimit="10" />
      <path
        d="M64.079 102.635C64.079 104.115 62.8953 105.2 61.5143 105.2C60.0346 105.2 58.9496 104.016 58.9496 102.635C58.9496 101.254 60.1333 100.07 61.5143 100.07C62.8953 99.9718 64.079 101.156 64.079 102.635Z"
        stroke="#96C1EA" stroke-width="1.3313" stroke-miterlimit="10" />
      <path
        d="M106.21 110.366H107.123L106.672 103.127H105.48L104.191 106.628C103.869 107.541 103.611 108.336 103.429 109.066H103.396C103.214 108.314 102.967 107.52 102.666 106.628L101.431 103.127H100.239L99.7343 110.366H100.626L100.819 107.262C100.883 106.177 100.937 104.964 100.959 104.062H100.98C101.184 104.921 101.474 105.855 101.818 106.875L102.988 110.323H103.697L104.975 106.811C105.34 105.823 105.641 104.91 105.888 104.062H105.92C105.91 104.964 105.974 106.177 106.028 107.187L106.21 110.366ZM114.068 106.564H111.684V107.316H113.156V109.474C112.941 109.582 112.522 109.668 111.91 109.668C110.224 109.668 109.118 108.583 109.118 106.747C109.118 104.932 110.267 103.836 112.028 103.836C112.758 103.836 113.241 103.976 113.628 104.148L113.854 103.385C113.542 103.235 112.887 103.052 112.049 103.052C109.622 103.052 108.14 104.631 108.129 106.789C108.129 107.917 108.516 108.884 109.139 109.485C109.848 110.162 110.75 110.441 111.845 110.441C112.823 110.441 113.65 110.194 114.068 110.044V106.564ZM121.785 110.366H122.697L122.246 103.127H121.054L119.766 106.628C119.443 107.541 119.186 108.336 119.003 109.066H118.971C118.788 108.314 118.541 107.52 118.241 106.628L117.006 103.127H115.813L115.309 110.366H116.2L116.393 107.262C116.458 106.177 116.512 104.964 116.533 104.062H116.554C116.759 104.921 117.048 105.855 117.392 106.875L118.563 110.323H119.272L120.55 106.811C120.915 105.823 121.215 104.91 121.462 104.062H121.495C121.484 104.964 121.548 106.177 121.602 107.187L121.785 110.366ZM125.403 110.366H126.348V103.922H128.561V103.127H123.202V103.922H125.403V110.366ZM129.103 110.484C129.5 110.484 129.747 110.194 129.747 109.807C129.747 109.41 129.49 109.131 129.114 109.131C128.738 109.131 128.469 109.41 128.469 109.807C128.469 110.194 128.727 110.484 129.092 110.484H129.103Z"
        fill="#C1CCD3" />
      <path
        d="M109.2 123.069C109.673 123.123 110.231 123.155 110.897 123.155C112.304 123.155 113.421 122.79 114.097 122.114C114.774 121.448 115.139 120.481 115.139 119.3C115.139 118.129 114.763 117.291 114.119 116.701C113.485 116.11 112.529 115.799 111.187 115.799C110.446 115.799 109.769 115.863 109.2 115.949V123.069ZM110.134 116.636C110.381 116.583 110.747 116.54 111.23 116.54C113.206 116.54 114.173 117.624 114.162 119.332C114.162 121.287 113.077 122.403 111.08 122.403C110.714 122.403 110.371 122.393 110.134 122.35V116.636ZM109.2 136.069C109.512 136.112 110.006 136.155 110.65 136.155C111.831 136.155 112.647 135.94 113.152 135.479C113.517 135.124 113.764 134.652 113.764 134.029C113.764 132.955 112.959 132.386 112.272 132.214V132.192C113.034 131.913 113.496 131.301 113.496 130.603C113.496 130.034 113.27 129.604 112.895 129.325C112.443 128.96 111.842 128.799 110.908 128.799C110.253 128.799 109.608 128.863 109.2 128.949V136.069ZM110.134 129.583C110.285 129.55 110.532 129.518 110.961 129.518C111.906 129.518 112.551 129.851 112.551 130.7C112.551 131.398 111.971 131.913 110.983 131.913H110.134V129.583ZM110.134 132.622H110.908C111.928 132.622 112.776 133.03 112.776 134.018C112.776 135.071 111.885 135.425 110.918 135.425C110.586 135.425 110.317 135.414 110.134 135.382V132.622Z"
        fill="#C1CCD3" />
      <path
        d="M74.3603 224.031V231.27H75.2946V224.031H74.3603ZM75.7349 244.27H76.68V237.826H78.8923V237.031H73.5333V237.826H75.7349V244.27Z"
        fill="#C1CCD3" />
      <path
        d="M291.064 229.028L291.837 231.305H292.836L290.366 224.067H289.238L286.779 231.305H287.745L288.497 229.028H291.064ZM288.69 228.298L289.399 226.204C289.539 225.764 289.657 225.323 289.764 224.894H289.786C289.893 225.313 290.001 225.742 290.162 226.215L290.871 228.298H288.69ZM293.902 231.284C294.375 231.337 294.933 231.37 295.599 231.37C297.006 231.37 298.123 231.004 298.8 230.328C299.476 229.662 299.841 228.695 299.841 227.514C299.841 226.344 299.465 225.506 298.821 224.915C298.187 224.325 297.232 224.013 295.889 224.013C295.148 224.013 294.472 224.077 293.902 224.163V231.284ZM294.837 224.851C295.084 224.797 295.449 224.754 295.932 224.754C297.908 224.754 298.875 225.839 298.864 227.546C298.864 229.501 297.779 230.618 295.782 230.618C295.417 230.618 295.073 230.607 294.837 230.564V224.851ZM307.338 231.305H308.251L307.799 224.067H306.607L305.319 227.568C304.996 228.481 304.739 229.275 304.556 230.006H304.524C304.341 229.254 304.094 228.459 303.794 227.568L302.559 224.067H301.367L300.862 231.305H301.753L301.946 228.201C302.011 227.117 302.065 225.903 302.086 225.001H302.108C302.312 225.86 302.602 226.795 302.945 227.815L304.116 231.262H304.825L306.103 227.75C306.468 226.762 306.768 225.85 307.015 225.001H307.048C307.037 225.903 307.101 227.117 307.155 228.126L307.338 231.305ZM309.687 224.067V231.305H310.621V224.067H309.687ZM288.207 244.305V241.212C288.207 240.009 288.186 239.139 288.132 238.227L288.164 238.216C288.529 239 289.013 239.827 289.517 240.632L291.816 244.305H292.761V237.067H291.88V240.095C291.88 241.223 291.902 242.104 291.987 243.07L291.966 243.081C291.622 242.34 291.204 241.577 290.667 240.729L288.347 237.067H287.327V244.305H288.207Z"
        fill="#C1CCD3" />
      <path
        d="M286.995 140.155V147.394H287.929V144H291.43V147.394H292.375V140.155H291.43V143.184H287.929V140.155H286.995ZM294.001 147.394H294.935V144.258H295.816C296.664 144.29 297.051 144.666 297.265 145.664C297.469 146.567 297.631 147.179 297.749 147.394H298.715C298.565 147.114 298.393 146.416 298.157 145.407C297.985 144.655 297.652 144.139 297.094 143.946V143.914C297.856 143.656 298.457 143.023 298.457 142.067C298.457 141.508 298.253 141.014 297.888 140.692C297.437 140.284 296.793 140.101 295.794 140.101C295.15 140.101 294.473 140.155 294.001 140.252V147.394ZM294.935 140.907C295.085 140.864 295.407 140.821 295.859 140.821C296.847 140.832 297.523 141.24 297.523 142.174C297.523 143.001 296.89 143.549 295.891 143.549H294.935V140.907Z"
        fill="#C1CCD3" />
      <path
        d="M228.518 220.219C227.236 220.219 226.249 219.232 226.249 217.95C226.249 216.667 227.236 215.681 228.518 215.681C229.8 215.681 230.787 216.667 230.787 217.95C230.787 219.232 229.702 220.219 228.518 220.219ZM228.518 216.667C227.729 216.667 227.137 217.259 227.137 218.048C227.137 218.837 227.729 219.429 228.518 219.429C229.307 219.429 229.899 218.837 229.899 218.048C229.8 217.259 229.208 216.667 228.518 216.667Z"
        fill="#B3D6FF" />
      <path
        d="M196.853 185.891L194.585 180.86L200.503 181.649L196.853 185.891ZM195.966 181.846L197.051 184.312L198.925 182.241L195.966 181.846Z"
        fill="#B3D6FF" />
      <path
        d="M226.446 248.924L225.657 248.825L226.15 245.471L229.307 245.767L227.827 239.454L234.141 243.005L233.746 243.696L229.011 241.131L230.392 246.754L226.841 246.359L226.446 248.924Z"
        fill="#B3D6FF" />
      <path
        d="M150.195 247.543H148.025C147.137 247.543 146.446 246.852 146.446 245.965V243.499C146.446 243.301 146.644 243.104 146.841 243.104H151.28C151.477 243.104 151.675 243.301 151.675 243.499V245.965C151.773 246.852 151.083 247.543 150.195 247.543ZM147.334 243.992V246.063C147.334 246.458 147.63 246.754 148.025 246.754H150.195C150.589 246.754 150.885 246.458 150.885 246.063V243.992H147.334Z"
        fill="#B3D6FF" />
      <path
        d="M151.773 243.104H150.984V221.994L149.208 218.443L147.433 221.994V242.808H146.644V221.896C146.644 221.797 146.644 221.797 146.644 221.698L148.814 217.259C148.913 217.161 149.011 217.062 149.208 217.062C149.406 217.062 149.504 217.161 149.603 217.259L151.773 221.698C151.773 221.797 151.773 221.797 151.773 221.896V243.104Z"
        fill="#B3D6FF" />
      <path d="M149.504 216.371H148.715V217.752H149.504V216.371Z" fill="#B3D6FF" />
      <path d="M150.096 221.6H147.038V222.389H150.096V221.6Z" fill="#B3D6FF" />
      <path
        d="M175.25 230.181H173.968V222.487C173.968 221.797 173.968 221.205 174.067 220.613C173.968 220.81 173.771 220.909 173.573 221.008C173.08 221.402 172.488 221.895 171.897 222.389L171.206 221.501L174.165 219.232H175.25V230.181Z"
        fill="#B3D6FF" />
      <path
        d="M186.693 224.559C186.693 226.433 186.397 227.913 185.805 228.8C185.213 229.688 184.326 230.181 183.043 230.181C181.86 230.181 180.972 229.688 180.281 228.702C179.689 227.715 179.393 226.334 179.393 224.46C179.393 222.586 179.689 221.106 180.281 220.218C180.873 219.331 181.761 218.837 183.043 218.837C184.227 218.837 185.115 219.331 185.805 220.317C186.397 221.303 186.693 222.783 186.693 224.559ZM180.774 224.559C180.774 226.137 180.972 227.321 181.366 228.011C181.761 228.702 182.353 229.096 183.142 229.096C183.931 229.096 184.523 228.702 184.917 228.011C185.312 227.321 185.509 226.137 185.509 224.559C185.509 222.98 185.312 221.895 184.917 221.106C184.523 220.416 183.931 220.021 183.142 220.021C182.353 220.021 181.761 220.416 181.366 221.106C180.972 221.895 180.774 222.98 180.774 224.559Z"
        fill="#B3D6FF" />
      <path
        d="M193.006 230.181H191.724V222.487C191.724 221.797 191.724 221.205 191.823 220.613C191.724 220.81 191.527 220.909 191.329 221.008C190.836 221.402 190.244 221.895 189.652 222.389L188.962 221.501L191.921 219.232H193.006V230.181Z"
        fill="#B3D6FF" />
      <path
        d="M204.449 224.559C204.449 226.433 204.153 227.913 203.561 228.8C202.969 229.688 202.081 230.181 200.799 230.181C199.615 230.181 198.728 229.688 198.037 228.702C197.445 227.715 197.149 226.334 197.149 224.46C197.149 222.586 197.445 221.106 198.037 220.218C198.629 219.331 199.517 218.837 200.799 218.837C201.983 218.837 202.871 219.331 203.561 220.317C204.054 221.303 204.449 222.783 204.449 224.559ZM198.432 224.559C198.432 226.137 198.629 227.321 199.024 228.011C199.418 228.702 200.01 229.096 200.799 229.096C201.588 229.096 202.18 228.702 202.575 228.011C202.969 227.321 203.167 226.137 203.167 224.559C203.167 222.98 202.969 221.895 202.575 221.106C202.18 220.416 201.588 220.021 200.799 220.021C200.01 220.021 199.418 220.416 199.024 221.106C198.629 221.895 198.432 222.98 198.432 224.559Z"
        fill="#B3D6FF" />
      <path
        d="M179.689 241.625C179.689 243.499 179.393 244.979 178.802 245.866C178.21 246.754 177.322 247.247 176.04 247.247C174.856 247.247 173.968 246.754 173.278 245.768C172.686 244.781 172.39 243.4 172.39 241.526C172.39 239.652 172.686 238.172 173.278 237.284C173.869 236.397 174.757 235.903 176.04 235.903C177.223 235.903 178.111 236.397 178.802 237.383C179.393 238.369 179.689 239.849 179.689 241.625ZM173.672 241.625C173.672 243.203 173.869 244.387 174.264 245.077C174.659 245.768 175.25 246.162 176.04 246.162C176.829 246.162 177.421 245.768 177.815 245.077C178.21 244.387 178.407 243.203 178.407 241.625C178.407 240.046 178.21 238.961 177.815 238.172C177.421 237.482 176.829 237.087 176.04 237.087C175.25 237.087 174.659 237.482 174.264 238.172C173.869 238.961 173.672 240.046 173.672 241.625Z"
        fill="#B3D6FF" />
      <path
        d="M185.904 247.247H184.622V239.553C184.622 238.862 184.622 238.27 184.72 237.678C184.622 237.876 184.424 237.974 184.227 238.073C183.734 238.468 183.142 238.961 182.55 239.454L181.86 238.566L184.819 236.297H185.904V247.247Z"
        fill="#B3D6FF" />
      <path
        d="M197.347 241.624C197.347 243.498 197.051 244.978 196.459 245.866C195.867 246.754 194.979 247.247 193.697 247.247C192.513 247.247 191.625 246.754 190.935 245.767C190.343 244.781 190.047 243.4 190.047 241.526C190.047 239.651 190.343 238.172 190.935 237.284C191.527 236.396 192.414 235.903 193.697 235.903C194.88 235.903 195.768 236.396 196.459 237.382C197.051 238.369 197.347 239.849 197.347 241.624ZM191.329 241.624C191.329 243.202 191.527 244.386 191.921 245.077C192.316 245.767 192.908 246.162 193.697 246.162C194.486 246.162 195.078 245.767 195.472 245.077C195.867 244.386 196.064 243.202 196.064 241.624C196.064 240.046 195.867 238.961 195.472 238.172C195.078 237.481 194.486 237.087 193.697 237.087C192.908 237.087 192.316 237.481 191.921 238.172C191.527 238.961 191.329 240.046 191.329 241.624Z"
        fill="#B3D6FF" />
      <path
        d="M203.561 247.247H202.279V239.553C202.279 238.862 202.279 238.27 202.377 237.678C202.279 237.876 202.081 237.974 201.884 238.073C201.391 238.468 200.799 238.961 200.207 239.454L199.517 238.566L202.476 236.297H203.561V247.247Z"
        fill="#B3D6FF" />
      <path d="M164.991 212.524H164.202V255.336H164.991V212.524Z" fill="#B3D6FF" />
      <path d="M197.642 209.466H175.25V210.255H197.642V209.466Z" fill="#B3D6FF" />
      <path d="M213.031 216.371H212.242V255.336H213.031V216.371Z" fill="#B3D6FF" />
      <path
        d="M156.212 255.237H155.423V220.514C155.423 218.936 156.705 217.654 158.284 217.654H164.794V218.443H158.284C157.199 218.443 156.311 219.331 156.311 220.416L156.212 255.237Z"
        fill="#B3D6FF" />
      <path
        d="M221.909 255.04H221.12V220.613C221.12 219.528 220.232 218.64 219.147 218.64H212.636V217.851H219.147C220.725 217.851 222.007 219.133 222.007 220.712L221.909 255.04Z"
        fill="#B3D6FF" />
      <path
        d="M160.059 255.533H159.27V222.191C159.27 221.797 159.566 221.501 159.961 221.501H162.624V222.29H160.158L160.059 255.533Z"
        fill="#B3D6FF" />
      <path
        d="M220.035 259.676H156.705C154.634 259.676 152.858 257.999 152.858 255.829V254.941H185.805L185.904 255.138C186.298 255.632 186.89 256.224 187.285 256.322H190.244C190.836 256.125 191.329 255.829 191.527 255.237L191.625 254.941H223.684V255.829C223.783 257.999 222.106 259.676 220.035 259.676ZM153.647 255.829C153.647 257.506 155.028 258.887 156.607 258.887H219.936C221.613 258.887 222.895 257.506 222.895 255.928V255.829H192.217C191.823 256.519 191.231 257.013 190.343 257.21H190.244H187.088C186.397 257.013 185.608 256.224 185.312 255.829H153.647Z"
        fill="#B3D6FF" />
      <path d="M226.644 258.887H219.147V259.676H226.644V258.887Z" fill="#B3D6FF" />
      <path d="M158.974 258.887H151.477V259.676H158.974V258.887Z" fill="#B3D6FF" />
      <path d="M164.794 263.326H162.821V264.115H164.794V263.326Z" fill="#B3D6FF" />
      <path d="M216.385 263.326H166.964V264.115H216.385V263.326Z" fill="#B3D6FF" />
      <path
        d="M169.233 210.847C168.247 210.847 167.063 210.65 165.781 210.157C164.794 209.762 163.808 209.17 163.019 208.48C161.835 208.776 160.75 208.874 159.566 208.874C156.508 208.874 153.647 207.987 151.181 206.112C148.025 203.844 146.052 200.292 145.559 196.544C145.46 196.051 145.46 195.459 145.46 194.867C145.46 191.119 146.94 187.567 149.504 184.904C152.168 182.241 155.719 180.761 159.467 180.761C159.467 180.761 159.467 180.761 159.566 180.761C167.359 180.761 173.573 187.074 173.672 194.768C173.672 198.221 172.39 201.575 170.121 204.238C169.924 204.929 169.924 205.619 170.022 206.31C170.318 208.184 171.502 209.368 171.995 209.762C172.094 209.861 172.192 210.058 172.094 210.157C172.094 210.354 171.896 210.453 171.798 210.453C171.107 210.749 170.318 210.847 169.233 210.847ZM163.117 207.691C163.216 207.691 163.315 207.691 163.413 207.789C164.202 208.48 165.09 209.072 166.175 209.466C168.049 210.157 169.726 210.157 170.811 209.96C170.121 209.269 169.43 208.085 169.134 206.507C169.036 205.718 169.036 204.83 169.233 203.942C169.233 203.844 169.233 203.844 169.332 203.745C171.601 201.279 172.784 198.122 172.784 194.768C172.784 187.469 166.767 181.55 159.467 181.55C155.916 181.55 152.562 182.931 150.096 185.496C147.63 187.962 146.249 191.316 146.249 194.867C146.249 195.459 146.249 195.952 146.348 196.445C146.742 199.997 148.715 203.35 151.675 205.521C153.943 207.197 156.705 208.085 159.566 208.085C160.75 208.085 161.933 207.888 163.117 207.691C163.019 207.691 163.117 207.691 163.117 207.691Z"
        fill="#B3D6FF" />
      <path
        d="M162.229 199.8L158.876 196.446H152.562L147.926 191.809L148.518 191.218L152.957 195.656H159.27L162.821 199.208L162.229 199.8Z"
        fill="#B3D6FF" />
      <path
        d="M163.709 204.238C162.229 204.238 161.046 203.054 161.046 201.575C161.046 200.095 162.229 198.911 163.709 198.911C165.189 198.911 166.372 200.095 166.372 201.575C166.372 203.054 165.189 204.238 163.709 204.238ZM163.709 199.799C162.723 199.799 161.933 200.588 161.933 201.575C161.933 202.561 162.723 203.35 163.709 203.35C164.696 203.35 165.485 202.561 165.485 201.575C165.485 200.588 164.794 199.799 163.709 199.799Z"
        fill="#B3D6FF" />
      <path
        d="M152.957 190.921C151.477 190.921 150.294 189.737 150.294 188.258C150.294 186.778 151.477 185.594 152.957 185.594C154.437 185.594 155.62 186.778 155.62 188.258C155.62 189.737 154.437 190.921 152.957 190.921ZM152.957 186.581C151.97 186.581 151.181 187.37 151.181 188.356C151.181 189.343 151.97 190.132 152.957 190.132C153.943 190.132 154.733 189.343 154.733 188.356C154.733 187.37 153.943 186.581 152.957 186.581Z"
        fill="#B3D6FF" />
      <path
        d="M169.726 199.306L162.525 192.105H156.212L154.437 190.231L154.93 189.639L156.508 191.217H162.821L170.318 198.714L169.726 199.306Z"
        fill="#B3D6FF" />
      <path d="M166.526 183.142L161.435 188.233L161.993 188.791L167.084 183.7L166.526 183.142Z" fill="#B3D6FF" />
      <path d="M169.247 185.518L165.341 189.424L165.899 189.982L169.805 186.076L169.247 185.518Z" fill="#B3D6FF" />
      <path d="M150.371 199.369L147.721 202.02L148.279 202.578L150.929 199.927L150.371 199.369Z" fill="#B3D6FF" />
      <path d="M158.021 202.395L153.347 207.069L153.905 207.627L158.579 202.953L158.021 202.395Z" fill="#B3D6FF" />
      <path d="M155.458 199.369L150.227 204.6L150.785 205.158L156.016 199.927L155.458 199.369Z" fill="#B3D6FF" />
      <path d="M223.921 190.829L221.845 193.207L222.44 193.726L224.515 191.348L223.921 190.829Z" fill="#B3D6FF" />
      <path d="M218.848 186.518L216.772 188.896L217.367 189.415L219.443 187.037L218.848 186.518Z" fill="#B3D6FF" />
      <path
        d="M226.249 193.387L216.878 185.2L219.837 181.846L229.208 190.034L226.249 193.387ZM218.062 185.101L226.151 192.204L227.926 190.132L219.837 183.03L218.062 185.101Z"
        fill="#B3D6FF" />
      <path
        d="M226.841 188.455L226.249 187.863L230.787 182.833C231.083 182.438 231.083 181.846 230.688 181.452L227.827 178.985C227.63 178.788 227.433 178.69 227.137 178.788C226.841 178.788 226.644 178.887 226.446 179.084L221.909 184.115L221.317 183.523L225.855 178.492C226.15 178.098 226.644 177.9 227.038 177.9C227.532 177.9 227.926 177.999 228.321 178.295L231.181 180.761C231.97 181.452 231.97 182.537 231.379 183.326L226.841 188.455Z"
        fill="#B3D6FF" />
      <path
        d="M211.255 214.892C207.901 214.892 204.745 213.708 202.279 211.538C196.557 206.507 195.966 197.826 200.996 192.204C206.027 186.482 214.708 185.89 220.331 190.921C226.052 195.952 226.644 204.633 221.613 210.255C219.245 213.017 215.892 214.694 212.242 214.892C211.847 214.892 211.551 214.892 211.255 214.892ZM201.49 192.598C196.853 197.925 197.347 206.112 202.673 210.847C205.238 213.116 208.592 214.201 212.044 214.004C215.497 213.807 218.654 212.228 220.922 209.664C225.559 204.337 225.065 196.149 219.739 191.414C214.412 186.778 206.224 187.271 201.49 192.598ZM211.255 211.636C208.789 211.636 206.323 210.749 204.35 209.072C202.279 207.197 200.996 204.633 200.799 201.871C200.602 199.109 201.49 196.347 203.364 194.275C205.238 192.204 207.803 190.921 210.565 190.724C213.327 190.527 216.089 191.414 218.16 193.289C220.232 195.163 221.514 197.728 221.712 200.49C221.909 203.252 221.021 206.014 219.147 208.085C217.075 210.453 214.215 211.636 211.255 211.636ZM211.255 191.414C211.058 191.414 210.762 191.414 210.565 191.414C208 191.612 205.633 192.795 203.956 194.67C202.279 196.643 201.391 199.109 201.588 201.673C201.786 204.238 202.969 206.606 204.843 208.282C208.888 211.834 215.004 211.34 218.555 207.395C220.232 205.422 221.12 202.956 220.922 200.391C220.725 197.826 219.541 195.459 217.667 193.782C215.793 192.302 213.623 191.414 211.255 191.414Z"
        fill="#B3D6FF" />
      <path
        d="M216.089 198.418H215.004V197.629H216.089V198.418ZM213.82 198.418H212.735V197.629H213.82V198.418ZM211.65 198.418H210.565V197.629H211.65V198.418ZM209.48 198.418H208.296V197.629H209.381L209.48 198.418ZM207.211 198.418H206.126V197.629H207.211V198.418Z"
        fill="#B3D6FF" />
      <path d="M218.259 200.588H215.497V201.378H218.259V200.588Z" fill="#B3D6FF" />
      <path d="M212.735 200.588H204.153V201.378H212.735V200.588Z" fill="#B3D6FF" />
      <path d="M216.385 203.646H206.126V204.435H216.385V203.646Z" fill="#B3D6FF" />
      <path
        d="M181.268 206.803L179.591 204.238C178.999 204.238 178.407 204.14 177.914 203.942L175.546 205.817L172.587 204.041L172.982 203.35L175.448 204.83L177.716 203.055L177.914 203.153C178.506 203.35 179.196 203.449 179.887 203.449H180.084L181.662 205.915L184.128 205.323L184.424 202.463L184.622 202.364C185.213 202.068 185.707 201.674 186.2 201.18L186.397 201.082L189.258 201.674L190.639 199.503L188.863 197.235L188.962 197.037C189.159 196.445 189.258 195.755 189.258 195.064V194.867L191.724 193.289L191.132 190.823L188.271 190.527L188.173 190.33C187.877 189.738 187.482 189.244 186.989 188.751L186.89 188.554L187.482 185.693L185.312 184.312L183.043 186.088L182.846 185.989C182.254 185.792 181.564 185.693 180.873 185.693H180.676L179.097 183.227L176.631 183.819L176.335 186.68L176.138 186.778C175.546 187.074 175.053 187.469 174.56 187.962L173.968 187.37C174.461 186.976 174.954 186.581 175.546 186.186L175.842 183.129L179.492 182.241L181.169 184.805C181.761 184.805 182.353 184.904 182.846 185.101L185.213 183.227L188.37 185.2L187.778 188.159C188.173 188.554 188.469 189.047 188.765 189.54L191.823 189.836L192.71 193.486L190.146 195.163C190.146 195.755 190.047 196.347 189.85 196.84L191.724 199.207L189.751 202.364L186.792 201.772C186.397 202.167 185.904 202.463 185.411 202.759L185.115 205.817L181.268 206.803ZM180.281 199.405C179.393 199.405 178.604 199.207 177.815 198.714C176.73 198.024 176.04 197.037 175.744 195.854C175.448 194.67 175.645 193.387 176.335 192.302C177.026 191.217 178.012 190.527 179.295 190.231C180.479 189.935 181.761 190.132 182.846 190.823C183.931 191.513 184.622 192.5 184.917 193.683C185.213 194.867 185.016 196.149 184.326 197.235C183.635 198.32 182.649 199.01 181.366 199.306C180.972 199.306 180.577 199.405 180.281 199.405ZM180.281 190.823C179.985 190.823 179.689 190.823 179.393 190.921C178.407 191.119 177.519 191.809 177.026 192.697C176.533 193.585 176.335 194.571 176.533 195.656C176.73 196.643 177.421 197.53 178.308 198.024C179.196 198.517 180.183 198.714 181.268 198.517C182.254 198.32 183.142 197.629 183.635 196.741C184.128 195.854 184.326 194.867 184.128 193.782C183.931 192.796 183.241 191.908 182.353 191.415C181.662 191.02 180.972 190.823 180.281 190.823Z"
        fill="#B3D6FF" />
    </svg>
