<?xml version="1.0" encoding="utf-8"?>
<!-- Generator: Adobe Illustrator 24.2.1, SVG Export Plug-In . SVG Version: 6.00 Build 0)  -->
<svg version="1.1" id="Layer_1" xmlns="http://www.w3.org/2000/svg" xmlns:xlink="http://www.w3.org/1999/xlink" x="0px" y="0px"
	 viewBox="0 0 443 403.1" style="enable-background:new 0 0 443 403.1;" xml:space="preserve">
<style type="text/css">
	.st0{fill:none;stroke:#DEE0E0;stroke-width:0.9984;stroke-linecap:round;stroke-miterlimit:10;}
	.st1{fill:#FFFFFF;stroke:#8AB7CE;stroke-width:0.9984;stroke-miterlimit:10;}
	.st2{fill:none;stroke:#8AB7CE;stroke-width:0.9984;stroke-miterlimit:10;}
	.st3{fill:none;stroke:#D7E8F2;stroke-miterlimit:10;}
	.st4{fill:#FFFFFF;stroke:#A3CAEF;stroke-miterlimit:10;}
	.st5{fill:#FFFFFF;stroke:#75A7C6;stroke-miterlimit:10;}
	.st6{fill:#FFFFFF;stroke:#B3D6FF;stroke-linecap:round;stroke-linejoin:bevel;stroke-miterlimit:10;}
	.st7{fill:none;stroke:#8AB7CE;stroke-width:0.5;stroke-linecap:round;stroke-miterlimit:10;}
	.st8{fill:none;stroke:#B3D6FF;stroke-miterlimit:10;}
	.st9{fill:#FFFFFF;stroke:#B3D6FF;stroke-width:0.8;stroke-linecap:round;stroke-linejoin:bevel;stroke-miterlimit:10;}
	.st10{fill:none;stroke:#85AED6;stroke-width:0.8;stroke-miterlimit:10;}
	.st11{fill:none;stroke:#96C1EA;stroke-miterlimit:10;}
	.st12{fill:#FFFFFF;stroke:#958ED6;stroke-width:0.9984;stroke-miterlimit:10;}
	.st13{fill:#FFFFFF;stroke:#958ED6;stroke-width:0.5;stroke-miterlimit:10;}
	.st14{fill:#FFFFFF;stroke:#80AEFF;stroke-width:0.9984;stroke-miterlimit:10;}
	.st15{fill:#FFFFFF;stroke:#679AF4;stroke-width:0.5;stroke-miterlimit:10;}
	.st16{fill:#FFFFFF;stroke:#13BC86;stroke-width:0.9984;stroke-miterlimit:10;}
	.st17{fill:#FFFFFF;stroke:#13BC86;stroke-width:0.5;stroke-miterlimit:10;}
	.st18{fill:#FFFFFF;stroke:#F78C57;stroke-width:0.9984;stroke-miterlimit:10;}
	.st19{fill:#FFFFFF;stroke:#F78C57;stroke-width:0.5;stroke-miterlimit:10;}
	.st20{fill:none;stroke:#96C1EA;stroke-width:1.3313;stroke-miterlimit:10;}
	.st21{fill:#13BC86;}
	.st22{fill:#958ED6;}
	.st23{fill:#F78C57;}
	.st24{fill:#80AEFF;}
	.st25{enable-background:new    ;}
	.st26{fill:#C1CCD3;}
	.st27{fill:#B3D6FF;}
</style>
<g id="BACKGROUND">
</g>
<g id="DESIGNED_BY_FREEPIK">
</g>
<g>
	<g id="OBJECTS">
		<g>
			<g>
				<line class="st0" x1="159.4" y1="333.1" x2="159.4" y2="22.6"/>
				<line class="st0" x1="81.9" y1="252.3" x2="81.9" y2="86.1"/>
				<line class="st0" x1="176.8" y1="291.6" x2="176.8" y2="45.1"/>
				<line class="st0" x1="250.9" y1="291.6" x2="250.9" y2="47.8"/>
				<line class="st0" x1="323" y1="174.7" x2="323" y2="53.6"/>
				<path class="st0" d="M84.5,83.5c0,1.5-1.2,2.6-2.6,2.6c-1.5,0-2.6-1.2-2.6-2.6c0-1.5,1.2-2.6,2.6-2.6
					C83.3,80.8,84.5,82,84.5,83.5z"/>
				<path class="st0" d="M162.1,20c0,1.5-1.2,2.6-2.6,2.6s-2.6-1.2-2.6-2.6c0-1.5,1.2-2.6,2.6-2.6S162.1,18.5,162.1,20z"/>
				<path class="st0" d="M179.5,42.5c0,1.5-1.2,2.6-2.6,2.6c-1.5,0-2.6-1.2-2.6-2.6c0-1.5,1.2-2.6,2.6-2.6S179.5,41.1,179.5,42.5z"
					/>
				<path class="st0" d="M325.6,50.4c0,1.5-1.2,2.6-2.6,2.6c-1.5,0-2.6-1.2-2.6-2.6c0-1.5,1.2-2.6,2.6-2.6
					C324.4,47.8,325.6,49,325.6,50.4z"/>
				<g>
					<line class="st0" x1="357" y1="180" x2="357" y2="72.6"/>
					<path class="st0" d="M359.6,69.6c0,1.5-1.2,2.6-2.6,2.6c-1.5,0-2.6-1.2-2.6-2.6c0-1.5,1.2-2.6,2.6-2.6
						C358.4,66.9,359.6,68.1,359.6,69.6z"/>
				</g>
				<g>
					<line class="st0" x1="398.3" y1="291.5" x2="398.3" y2="142.4"/>
					<path class="st0" d="M400.9,139.4c0,1.5-1.2,2.6-2.6,2.6c-1.5,0-2.6-1.2-2.6-2.6c0-1.5,1.2-2.6,2.6-2.6
						C399.7,136.7,400.9,137.9,400.9,139.4z"/>
				</g>
				<g>
					<line class="st0" x1="43.7" y1="284.4" x2="43.7" y2="135.3"/>
					<path class="st0" d="M46.3,132.3c0,1.5-1.2,2.6-2.6,2.6c-1.5,0-2.6-1.2-2.6-2.6c0-1.5,1.2-2.6,2.6-2.6
						C45.2,129.7,46.3,130.8,46.3,132.3z"/>
				</g>
				<path class="st0" d="M253.6,45.1c0,1.5-1.2,2.6-2.6,2.6s-2.6-1.2-2.6-2.6c0-1.5,1.2-2.6,2.6-2.6S253.6,43.7,253.6,45.1z"/>
			</g>
			<g>
				<path class="st1" d="M382.5,189.9v-30.4c0-2.7-2.1-5-4.9-5.2l-13.5-0.9c-1.8-6.7-4.5-13.1-7.9-19l8.9-10.2
					c1.8-2.1,1.7-5.2-0.2-7.1l-21.5-21.5c-1.9-1.9-5.1-2-7.1-0.2l-10.2,8.9c-5.9-3.4-12.3-6.1-19-7.9l-0.9-13.5
					c-0.2-2.7-2.5-4.9-5.2-4.9h-30.4c-2.7,0-5,2.1-5.2,4.9l-0.9,13.5c-6.7,1.8-13.1,4.5-19,7.9l-10.2-8.9c-2.1-1.8-5.2-1.7-7.1,0.2
					l-21.5,21.5c-1.9,1.9-2,5.1-0.2,7.1l8.9,10.2c-3.4,5.9-6.1,12.3-7.9,19l-13.5,0.9c-2.7,0.2-4.9,2.5-4.9,5.2v30.4
					c0,2.7,2.1,5,4.9,5.2l13.5,0.9c1.8,6.7,4.5,13.1,7.9,19l-8.9,10.2c-1.8,2.1-1.7,5.2,0.2,7.1l21.5,21.5c1.9,1.9,5.1,2,7.1,0.2
					l10.2-8.9c5.9,3.4,12.3,6.1,19,7.9l0.9,13.5c0.2,2.7,2.5,4.9,5.2,4.9H301c2.7,0,5-2.1,5.2-4.9l0.9-13.5c6.7-1.8,13.1-4.5,19-7.9
					l10.2,8.9c2.1,1.8,5.2,1.7,7.1-0.2l21.5-21.5c1.9-1.9,2-5.1,0.2-7.1l-8.9-10.2c3.4-5.9,6.1-12.3,7.9-19l13.5-0.9
					C380.4,194.9,382.5,192.6,382.5,189.9z M290.7,222.4c-30.4,3-55.7-22.3-52.7-52.7c2.2-22.5,20.4-40.6,42.9-42.9
					c30.4-3,55.7,22.3,52.7,52.7C331.4,202,313.2,220.2,290.7,222.4z"/>
				<path class="st2" d="M185.5,227.9v-20.8c0-1.9-1.5-3.4-3.3-3.6l-9.2-0.6c-1.2-4.6-3.1-8.9-5.4-13l6.1-6.9
					c1.2-1.4,1.2-3.5-0.2-4.9l-14.7-14.7c-1.3-1.3-3.5-1.4-4.9-0.2l-6.9,6.1c-4-2.3-8.4-4.1-13-5.4l-0.6-9.2
					c-0.1-1.9-1.7-3.3-3.6-3.3H109c-1.9,0-3.4,1.5-3.6,3.3l-0.6,9.2c-4.6,1.2-8.9,3.1-13,5.4l-6.9-6.1c-1.4-1.2-3.5-1.2-4.9,0.2
					l-14.7,14.7c-1.3,1.3-1.4,3.5-0.2,4.9l6.1,6.9c-2.3,4-4.1,8.4-5.4,13l-9.2,0.6c-1.9,0.1-3.3,1.7-3.3,3.6v20.8
					c0,1.9,1.5,3.4,3.3,3.6L66,232c1.2,4.6,3.1,8.9,5.4,13l-6.1,6.9c-1.2,1.4-1.2,3.5,0.2,4.9l14.7,14.7c1.3,1.3,3.5,1.4,4.9,0.2
					l6.9-6.1c4,2.3,8.4,4.1,13,5.4l0.6,9.2c0.1,1.9,1.7,3.3,3.6,3.3H130c1.9,0,3.4-1.5,3.6-3.3l0.6-9.2c4.6-1.2,8.9-3.1,13-5.4
					l6.9,6.1c1.4,1.2,3.5,1.2,4.9-0.2l14.7-14.7c1.3-1.3,1.4-3.5,0.2-4.9l-6.1-6.9c2.3-4,4.1-8.4,5.4-13l9.2-0.6
					C184,231.3,185.5,229.8,185.5,227.9z M122.8,250.1c-20.7,2.1-38-15.2-36-36c1.5-15.3,13.9-27.8,29.3-29.3
					c20.7-2.1,38,15.2,36,36C150.6,236.2,138.2,248.6,122.8,250.1z"/>
			</g>
			<polygon class="st3" points="388.9,386.8 43.7,386.8 110.9,334.4 321.7,334.4 			"/>
			<g>
				<rect x="110.9" y="180" class="st4" width="210.8" height="122.5"/>
				<g>
					<g>
						<rect x="117.1" y="183.6" class="st5" width="198.4" height="115.3"/>
					</g>
					<polygon class="st6" points="388.9,354.9 43.7,354.9 110.9,302.5 321.7,302.5 					"/>
					<g>
						<line class="st7" x1="95.8" y1="305.8" x2="105" y2="298.8"/>
						<line class="st7" x1="62.4" y1="330.9" x2="92.4" y2="308.3"/>
						<path class="st7" d="M79.3,366.2H35.5c-6.4,0-9.1-8.1-4-12l9.6-7.2"/>
						<line class="st7" x1="264.1" y1="366.2" x2="110.9" y2="366.2"/>
						<line class="st7" x1="365.8" y1="366.2" x2="291.8" y2="366.2"/>
						<line class="st7" x1="363.1" y1="326.5" x2="376.4" y2="336.5"/>
						<line class="st7" x1="335.2" y1="305.5" x2="360.5" y2="324.5"/>
					</g>
					<g>
						<polygon class="st8" points="132.4,307.4 121,307.4 125.2,304.1 136.1,304.1 						"/>
						<polygon class="st8" points="125.9,313.5 113.2,313.5 118.1,309.7 130.2,309.7 						"/>
						<polygon class="st9" points="145.3,313.5 132.5,313.5 136.5,309.7 148.6,309.7 						"/>
						<polygon class="st9" points="164.6,313.5 151.9,313.5 155,309.7 167.1,309.7 						"/>
						<polygon class="st9" points="184,313.5 171.3,313.5 173.4,309.7 185.5,309.7 						"/>
						<polygon class="st9" points="203.3,313.5 190.6,313.5 191.8,309.7 203.9,309.7 						"/>
						<polygon class="st9" points="222.7,313.5 210,313.5 210.3,309.7 222.4,309.7 						"/>
						<polygon class="st9" points="242,313.5 229.3,313.5 228.7,309.7 240.8,309.7 						"/>
						<polygon class="st9" points="261.4,313.5 248.7,313.5 247.2,309.7 259.3,309.7 						"/>
						<polygon class="st9" points="280.8,313.5 268,313.5 265.6,309.7 277.7,309.7 						"/>
						<polygon class="st9" points="300.1,313.5 287.4,313.5 284,309.7 296.1,309.7 						"/>
						<polygon class="st9" points="319.5,313.5 306.8,313.5 302.5,309.7 314.6,309.7 						"/>
						<polygon class="st8" points="118.7,319.9 105,319.9 110.7,315.5 123.7,315.5 						"/>
						<polygon class="st9" points="139.6,319.9 125.9,319.9 130.5,315.5 143.5,315.5 						"/>
						<polygon class="st9" points="160.5,319.9 146.8,319.9 150.3,315.5 163.4,315.5 						"/>
						<polygon class="st9" points="181.4,319.9 167.7,319.9 170.2,315.5 183.2,315.5 						"/>
						<polygon class="st9" points="202.3,319.9 188.6,319.9 190,315.5 203,315.5 						"/>
						<polygon class="st9" points="223.2,319.9 209.5,319.9 209.8,315.5 222.8,315.5 						"/>
						<polygon class="st9" points="244.1,319.9 230.4,319.9 229.6,315.5 242.7,315.5 						"/>
						<polygon class="st9" points="265,319.9 251.3,319.9 249.5,315.5 262.5,315.5 						"/>
						<polygon class="st9" points="285.8,319.9 272.1,319.9 269.3,315.5 282.3,315.5 						"/>
						<polygon class="st9" points="306.7,319.9 293,319.9 289.1,315.5 302.1,315.5 						"/>
						<polygon class="st9" points="327.6,319.9 313.9,319.9 309,315.5 322,315.5 						"/>
						<polygon class="st8" points="109.9,327.8 95,327.8 101.7,322.6 115.8,322.6 						"/>
						<polygon class="st9" points="132.7,327.8 117.7,327.8 123.2,322.6 137.3,322.6 						"/>
						<polygon class="st9" points="269,327.8 140.5,327.8 144.7,322.6 266.1,322.6 						"/>
						<polygon class="st9" points="292.1,327.8 277.2,327.8 273.8,322.6 288,322.6 						"/>
						<polygon class="st9" points="314.9,327.8 300,327.8 295.3,322.6 309.5,322.6 						"/>
						<polygon class="st9" points="337.7,327.8 322.7,327.8 316.9,322.6 331,322.6 						"/>
						<polygon class="st9" points="155.7,307.4 144.2,307.4 147.4,304.1 158.3,304.1 						"/>
						<polygon class="st9" points="172.1,307.4 160.6,307.4 163,304.1 174,304.1 						"/>
						<polygon class="st9" points="188.5,307.4 177,307.4 178.7,304.1 189.7,304.1 						"/>
						<polygon class="st9" points="204.9,307.4 193.4,307.4 194.4,304.1 205.4,304.1 						"/>
						<polygon class="st9" points="221.2,307.4 209.8,307.4 210.1,304.1 221,304.1 						"/>
						<polygon class="st9" points="237.6,307.4 226.2,307.4 225.7,304.1 236.7,304.1 						"/>
						<polygon class="st9" points="254.6,307.4 243.1,307.4 241.9,304.1 252.9,304.1 						"/>
						<polygon class="st9" points="280.5,307.4 269.1,307.4 266.7,304.1 277.7,304.1 						"/>
						<polygon class="st9" points="296.1,307.4 284.6,307.4 281.6,304.1 292.6,304.1 						"/>
						<polygon class="st9" points="311.7,307.4 300.2,307.4 296.5,304.1 307.5,304.1 						"/>
						<polygon class="st10" points="255.7,347.8 177,347.8 183.2,333.1 249.5,333.1 						"/>
					</g>
					<path class="st11" d="M383.8,360.6h-335c-2.8,0-5.1-2.3-5.1-5.1v-0.7h345.2v0.7C388.9,358.3,386.7,360.6,383.8,360.6z"/>
				</g>
			</g>
			<g>
				<path class="st12" d="M125.6,281.8H85.2c-7.1,0-12.8-5.7-12.8-12.8v-40.4c0-7.1,5.7-12.8,12.8-12.8h40.4
					c7.1,0,12.8,5.7,12.8,12.8V269C138.4,276.1,132.7,281.8,125.6,281.8z"/>
				<path class="st13" d="M123.5,278.3H87.3c-6.3,0-11.4-5.1-11.4-11.4v-36.2c0-6.3,5.1-11.4,11.4-11.4h36.2
					c6.3,0,11.4,5.1,11.4,11.4v36.2C134.9,273.2,129.8,278.3,123.5,278.3z"/>
			</g>
			<g>
				<path class="st14" d="M353.9,280.1h-40.4c-7.1,0-12.8-5.7-12.8-12.8v-40.4c0-7.1,5.7-12.8,12.8-12.8h40.4
					c7.1,0,12.8,5.7,12.8,12.8v40.4C366.6,274.4,360.9,280.1,353.9,280.1z"/>
				<path class="st15" d="M351.7,276.6h-36.2c-6.3,0-11.4-5.1-11.4-11.4V229c0-6.3,5.1-11.4,11.4-11.4h36.2
					c6.3,0,11.4,5.1,11.4,11.4v36.2C363.1,271.5,358,276.6,351.7,276.6z"/>
			</g>
			<g>
				<path class="st16" d="M339.3,186.1h-28.7c-5,0-9.1-4.1-9.1-9.1v-28.7c0-5,4.1-9.1,9.1-9.1h28.7c5,0,9.1,4.1,9.1,9.1V177
					C348.4,182,344.3,186.1,339.3,186.1z"/>
				<path class="st17" d="M337.8,183.6h-25.6c-4.5,0-8.1-3.6-8.1-8.1v-25.6c0-4.5,3.6-8.1,8.1-8.1h25.6c4.5,0,8.1,3.6,8.1,8.1v25.6
					C345.9,180,342.3,183.6,337.8,183.6z"/>
			</g>
			<g>
				<path class="st18" d="M164.4,162.7H124c-7.1,0-12.8-5.7-12.8-12.8v-40.4c0-7.1,5.7-12.8,12.8-12.8h40.4
					c7.1,0,12.8,5.7,12.8,12.8v40.4C177.2,156.9,171.5,162.7,164.4,162.7z"/>
				<path class="st19" d="M162.3,159.2h-36.2c-6.3,0-11.4-5.1-11.4-11.4v-36.2c0-6.3,5.1-11.4,11.4-11.4h36.2
					c6.3,0,11.4,5.1,11.4,11.4v36.2C173.7,154,168.6,159.2,162.3,159.2z"/>
			</g>
			<path class="st20" d="M368.4,291.5c0,1.5-1.2,2.6-2.6,2.6c-1.5,0-2.6-1.2-2.6-2.6c0-1.5,1.2-2.6,2.6-2.6
				C367.2,288.9,368.4,290.1,368.4,291.5z"/>
			<path class="st20" d="M330.3,120.2c0,1.5-1.2,2.6-2.6,2.6c-1.5,0-2.6-1.2-2.6-2.6s1.2-2.6,2.6-2.6
				C329.1,117.5,330.3,118.7,330.3,120.2z"/>
			<path class="st21" d="M350.8,184.5c0,0.9-0.8,1.7-1.7,1.7s-1.7-0.8-1.7-1.7s0.8-1.7,1.7-1.7S350.8,183.5,350.8,184.5z"/>
			<circle class="st22" cx="87.5" cy="283.5" r="1.7"/>
			<circle class="st23" cx="108.8" cy="120.2" r="1.7"/>
			<path class="st24" d="M339.4,297.5c0,0.9-0.8,1.7-1.7,1.7s-1.7-0.8-1.7-1.7c0-0.9,0.8-1.7,1.7-1.7S339.4,296.5,339.4,297.5z"/>
			<path class="st20" d="M155.2,148.8c0,1.5-1.2,2.6-2.6,2.6c-1.5,0-2.6-1.2-2.6-2.6c0-1.5,1.2-2.6,2.6-2.6S155.2,147.4,155.2,148.8
				z"/>
			<path class="st20" d="M62.4,290.5c0,1.5-1.2,2.6-2.6,2.6c-1.5,0-2.6-1.2-2.6-2.6c0-1.5,1.2-2.6,2.6-2.6S62.4,289.1,62.4,290.5z"
				/>
			<path class="st20" d="M92.8,120.2c0,1.5-1.2,2.6-2.6,2.6c-1.5,0-2.6-1.2-2.6-2.6s1.2-2.6,2.6-2.6
				C91.6,117.5,92.8,118.7,92.8,120.2z"/>
		</g>
		<g>
			<g class="st25">
				<path class="st26" d="M135.2,126.5c-0.1-1-0.1-2.2-0.1-3.1h0c-0.2,0.8-0.5,1.8-0.9,2.8l-1.3,3.5h-0.7l-1.2-3.4
					c-0.3-1-0.6-2-0.8-2.8h0c0,0.9-0.1,2.1-0.1,3.2l-0.2,3.1h-0.9l0.5-7.2h1.2l1.2,3.5c0.3,0.9,0.5,1.7,0.7,2.4h0
					c0.2-0.7,0.4-1.5,0.8-2.4l1.3-3.5h1.2l0.5,7.2h-0.9L135.2,126.5z"/>
				<path class="st26" d="M143.3,129.3c-0.4,0.2-1.2,0.4-2.2,0.4c-1.1,0-2-0.3-2.7-1c-0.6-0.6-1-1.6-1-2.7c0-2.2,1.5-3.7,3.9-3.7
					c0.8,0,1.5,0.2,1.8,0.3l-0.2,0.8c-0.4-0.2-0.9-0.3-1.6-0.3c-1.8,0-2.9,1.1-2.9,2.9c0,1.8,1.1,2.9,2.8,2.9c0.6,0,1-0.1,1.2-0.2
					v-2.2h-1.5v-0.8h2.4V129.3z"/>
				<path class="st26" d="M150.8,126.5c-0.1-1-0.1-2.2-0.1-3.1h0c-0.2,0.8-0.5,1.8-0.9,2.8l-1.3,3.5h-0.7l-1.2-3.4
					c-0.3-1-0.6-2-0.8-2.8h0c0,0.9-0.1,2.1-0.1,3.2l-0.2,3.1h-0.9l0.5-7.2h1.2l1.2,3.5c0.3,0.9,0.5,1.7,0.7,2.4h0
					c0.2-0.7,0.4-1.5,0.8-2.4l1.3-3.5h1.2l0.5,7.2H151L150.8,126.5z"/>
				<path class="st26" d="M154.6,123.2h-2.2v-0.8h5.4v0.8h-2.2v6.4h-0.9V123.2z"/>
				<path class="st26" d="M158.3,129.8c-0.4,0-0.6-0.3-0.6-0.7c0-0.4,0.3-0.7,0.6-0.7s0.6,0.3,0.6,0.7
					C158.9,129.5,158.7,129.8,158.3,129.8L158.3,129.8z"/>
			</g>
			<g class="st25">
				<path class="st26" d="M138.5,135.4c0.6-0.1,1.2-0.2,2-0.2c1.3,0,2.3,0.3,2.9,0.9c0.6,0.6,1,1.4,1,2.6c0,1.2-0.4,2.1-1,2.8
					c-0.7,0.7-1.8,1-3.2,1c-0.7,0-1.2,0-1.7-0.1V135.4z M139.5,141.8c0.2,0,0.6,0.1,0.9,0.1c2,0,3.1-1.1,3.1-3.1
					c0-1.7-1-2.8-2.9-2.8c-0.5,0-0.8,0-1.1,0.1V141.8z"/>
				<path class="st26" d="M145.7,135.4c0.4-0.1,1.1-0.2,1.7-0.2c0.9,0,1.5,0.2,2,0.5c0.4,0.3,0.6,0.7,0.6,1.3c0,0.7-0.5,1.3-1.2,1.6
					v0c0.7,0.2,1.5,0.7,1.5,1.8c0,0.6-0.2,1.1-0.6,1.5c-0.5,0.5-1.3,0.7-2.5,0.7c-0.6,0-1.1,0-1.5-0.1V135.4z M146.6,138.4h0.8
					c1,0,1.6-0.5,1.6-1.2c0-0.8-0.6-1.2-1.6-1.2c-0.4,0-0.7,0-0.8,0.1V138.4z M146.6,141.8c0.2,0,0.5,0,0.8,0c1,0,1.9-0.4,1.9-1.4
					c0-1-0.8-1.4-1.9-1.4h-0.8V141.8z"/>
			</g>
		</g>
		<g>
			<g class="st25">
				<path class="st26" d="M104.1,245v7.2h-0.9V245H104.1z"/>
				<path class="st26" d="M107.2,245.8H105V245h5.4v0.8h-2.2v6.4h-0.9V245.8z"/>
			</g>
		</g>
		<g class="st25">
			<path class="st26" d="M320.3,250l-0.8,2.3h-1l2.5-7.2h1.1l2.5,7.2h-1l-0.8-2.3H320.3z M322.7,249.2l-0.7-2.1
				c-0.2-0.5-0.3-0.9-0.4-1.3h0c-0.1,0.4-0.2,0.9-0.4,1.3l-0.7,2.1H322.7z"/>
			<path class="st26" d="M325.7,245.1c0.6-0.1,1.2-0.2,2-0.2c1.3,0,2.3,0.3,2.9,0.9c0.6,0.6,1,1.4,1,2.6c0,1.2-0.4,2.1-1,2.8
				c-0.7,0.7-1.8,1-3.2,1c-0.7,0-1.2,0-1.7-0.1V245.1z M326.6,251.5c0.2,0,0.6,0.1,0.9,0.1c2,0,3.1-1.1,3.1-3.1c0-1.7-1-2.8-2.9-2.8
				c-0.5,0-0.8,0-1.1,0.1V251.5z"/>
			<path class="st26" d="M338.9,249.1c-0.1-1-0.1-2.2-0.1-3.1h0c-0.2,0.8-0.5,1.8-0.9,2.8l-1.3,3.5h-0.7l-1.2-3.4
				c-0.3-1-0.6-2-0.8-2.8h0c0,0.9-0.1,2.1-0.1,3.2l-0.2,3.1h-0.9l0.5-7.2h1.2l1.2,3.5c0.3,0.9,0.5,1.7,0.7,2.4h0
				c0.2-0.7,0.4-1.5,0.8-2.4l1.3-3.5h1.2l0.5,7.2h-0.9L338.9,249.1z"/>
			<path class="st26" d="M342.4,245v7.2h-0.9V245H342.4z"/>
			<path class="st26" d="M344,252.3V245h1l2.3,3.7c0.5,0.8,1,1.6,1.3,2.4l0,0c-0.1-1-0.1-1.8-0.1-3v-3h0.9v7.2h-0.9l-2.3-3.7
				c-0.5-0.8-1-1.6-1.4-2.4l0,0c0.1,0.9,0.1,1.8,0.1,3v3.1H344z"/>
		</g>
		<g class="st25">
			<path class="st26" d="M319.7,159.9v3h3.5v-3h0.9v7.2h-0.9v-3.4h-3.5v3.4h-0.9v-7.2H319.7z"/>
			<path class="st26" d="M325.8,160c0.5-0.1,1.1-0.2,1.8-0.2c1,0,1.6,0.2,2.1,0.6c0.4,0.3,0.6,0.8,0.6,1.4c0,1-0.6,1.6-1.4,1.8v0
				c0.6,0.2,0.9,0.7,1.1,1.5c0.2,1,0.4,1.7,0.6,2h-1c-0.1-0.2-0.3-0.8-0.5-1.7c-0.2-1-0.6-1.4-1.5-1.4h-0.9v3.1h-0.9V160z
				 M326.7,163.3h1c1,0,1.6-0.5,1.6-1.4c0-0.9-0.7-1.3-1.7-1.4c-0.5,0-0.8,0-0.9,0.1V163.3z"/>
		</g>
	</g>
	<g>
		<g>
			<path class="st27" d="M259.5,239.4c-1.3,0-2.3-1-2.3-2.3s1-2.3,2.3-2.3s2.3,1,2.3,2.3S260.7,239.4,259.5,239.4z M259.5,235.8
				c-0.8,0-1.4,0.6-1.4,1.4c0,0.8,0.6,1.4,1.4,1.4s1.4-0.6,1.4-1.4C260.8,236.4,260.2,235.8,259.5,235.8z"/>
		</g>
		<g>
			<path class="st27" d="M227.4,204.6l-2.3-5.1l6,0.8L227.4,204.6z M226.5,200.5l1.1,2.5l1.9-2.1L226.5,200.5z"/>
		</g>
		<g>
			<polygon class="st27" points="257.4,268.5 256.6,268.4 257.1,265 260.3,265.3 258.8,258.9 265.2,262.5 264.8,263.2 260,260.6 
				261.4,266.3 257.8,265.9 			"/>
		</g>
		<g>
			<g>
				<g>
					<path class="st27" d="M180.1,267.1h-2.2c-0.9,0-1.6-0.7-1.6-1.6V263c0-0.2,0.2-0.4,0.4-0.4h4.5c0.2,0,0.4,0.2,0.4,0.4v2.5
						C181.7,266.4,181,267.1,180.1,267.1z M177.2,263.5v2.1c0,0.4,0.3,0.7,0.7,0.7h2.2c0.4,0,0.7-0.3,0.7-0.7v-2.1H177.2z"/>
				</g>
				<g>
					<path class="st27" d="M181.7,262.6h-0.8v-21.4l-1.8-3.6l-1.8,3.6v21.1h-0.8v-21.2c0-0.1,0-0.1,0-0.2l2.2-4.5
						c0.1-0.1,0.2-0.2,0.4-0.2s0.3,0.1,0.4,0.2l2.2,4.5c0,0.1,0,0.1,0,0.2L181.7,262.6L181.7,262.6z"/>
				</g>
				<g>
					<rect x="178.6" y="235.5" class="st27" width="0.8" height="1.4"/>
				</g>
			</g>
			<g>
				<rect x="176.9" y="240.8" class="st27" width="3.1" height="0.8"/>
			</g>
		</g>
		<g>
			<g>
				<g>
					<g>
						<path class="st27" d="M205.5,249.5h-1.3v-7.8c0-0.7,0-1.3,0.1-1.9c-0.1,0.2-0.3,0.3-0.5,0.4c-0.5,0.4-1.1,0.9-1.7,1.4
							l-0.7-0.9l3-2.3h1.1L205.5,249.5L205.5,249.5z"/>
						<path class="st27" d="M217.1,243.8c0,1.9-0.3,3.4-0.9,4.3c-0.6,0.9-1.5,1.4-2.8,1.4c-1.2,0-2.1-0.5-2.8-1.5
							c-0.6-1-0.9-2.4-0.9-4.3c0-1.9,0.3-3.4,0.9-4.3c0.6-0.9,1.5-1.4,2.8-1.4c1.2,0,2.1,0.5,2.8,1.5
							C216.8,240.5,217.1,242,217.1,243.8z M211.1,243.8c0,1.6,0.2,2.8,0.6,3.5c0.4,0.7,1,1.1,1.8,1.1s1.4-0.4,1.8-1.1
							c0.4-0.7,0.6-1.9,0.6-3.5s-0.2-2.7-0.6-3.5c-0.4-0.7-1-1.1-1.8-1.1s-1.4,0.4-1.8,1.1C211.3,241.1,211.1,242.2,211.1,243.8z"/>
						<path class="st27" d="M223.5,249.5h-1.3v-7.8c0-0.7,0-1.3,0.1-1.9c-0.1,0.2-0.3,0.3-0.5,0.4c-0.5,0.4-1.1,0.9-1.7,1.4
							l-0.7-0.9l3-2.3h1.1L223.5,249.5L223.5,249.5z"/>
						<path class="st27" d="M235.1,243.8c0,1.9-0.3,3.4-0.9,4.3c-0.6,0.9-1.5,1.4-2.8,1.4c-1.2,0-2.1-0.5-2.8-1.5
							c-0.6-1-0.9-2.4-0.9-4.3c0-1.9,0.3-3.4,0.9-4.3c0.6-0.9,1.5-1.4,2.8-1.4c1.2,0,2.1,0.5,2.8,1.5
							C234.7,240.5,235.1,242,235.1,243.8z M229,243.8c0,1.6,0.2,2.8,0.6,3.5c0.4,0.7,1,1.1,1.8,1.1s1.4-0.4,1.8-1.1
							c0.4-0.7,0.6-1.9,0.6-3.5s-0.2-2.7-0.6-3.5c-0.4-0.7-1-1.1-1.8-1.1s-1.4,0.4-1.8,1.1C229.2,241.1,229,242.2,229,243.8z"/>
					</g>
					<g>
						<path class="st27" d="M210,261.1c0,1.9-0.3,3.4-0.9,4.3c-0.6,0.9-1.5,1.4-2.8,1.4c-1.2,0-2.1-0.5-2.8-1.5
							c-0.6-1-0.9-2.4-0.9-4.3s0.3-3.4,0.9-4.3c0.6-0.9,1.5-1.4,2.8-1.4c1.2,0,2.1,0.5,2.8,1.5C209.7,257.8,210,259.3,210,261.1z
							 M203.9,261.1c0,1.6,0.2,2.8,0.6,3.5c0.4,0.7,1,1.1,1.8,1.1s1.4-0.4,1.8-1.1c0.4-0.7,0.6-1.9,0.6-3.5s-0.2-2.7-0.6-3.5
							c-0.4-0.7-1-1.1-1.8-1.1s-1.4,0.4-1.8,1.1C204.1,258.4,203.9,259.5,203.9,261.1z"/>
						<path class="st27" d="M216.3,266.8H215V259c0-0.7,0-1.3,0.1-1.9c-0.1,0.2-0.3,0.3-0.5,0.4c-0.5,0.4-1.1,0.9-1.7,1.4l-0.7-0.9
							l3-2.3h1.1L216.3,266.8L216.3,266.8z"/>
						<path class="st27" d="M227.9,261.1c0,1.9-0.3,3.4-0.9,4.3c-0.6,0.9-1.5,1.4-2.8,1.4c-1.2,0-2.1-0.5-2.8-1.5
							c-0.6-1-0.9-2.4-0.9-4.3s0.3-3.4,0.9-4.3c0.6-0.9,1.5-1.4,2.8-1.4c1.2,0,2.1,0.5,2.8,1.5C227.6,257.8,227.9,259.3,227.9,261.1
							z M221.8,261.1c0,1.6,0.2,2.8,0.6,3.5c0.4,0.7,1,1.1,1.8,1.1s1.4-0.4,1.8-1.1c0.4-0.7,0.6-1.9,0.6-3.5s-0.2-2.7-0.6-3.5
							c-0.4-0.7-1-1.1-1.8-1.1s-1.4,0.4-1.8,1.1C222,258.4,221.8,259.5,221.8,261.1z"/>
						<path class="st27" d="M234.2,266.8h-1.3V259c0-0.7,0-1.3,0.1-1.9c-0.1,0.2-0.3,0.3-0.5,0.4c-0.5,0.4-1.1,0.9-1.7,1.4l-0.7-0.9
							l3-2.3h1.1L234.2,266.8L234.2,266.8z"/>
					</g>
				</g>
			</g>
			<g>
				<rect x="194.3" y="231.6" class="st27" width="0.8" height="43.4"/>
			</g>
			<g>
				<rect x="205.5" y="228.5" class="st27" width="22.7" height="0.8"/>
			</g>
			<g>
				<rect x="243" y="235.5" class="st27" width="0.8" height="39.5"/>
			</g>
			<g>
				<path class="st27" d="M186.2,274.9h-0.8v-35.2c0-1.6,1.3-2.9,2.9-2.9h6.6v0.8h-6.6c-1.1,0-2,0.9-2,2L186.2,274.9L186.2,274.9z"
					/>
			</g>
			<g>
				<path class="st27" d="M252.8,274.7H252v-34.9c0-1.1-0.9-2-2-2h-6.6V237h6.6c1.6,0,2.9,1.3,2.9,2.9L252.8,274.7L252.8,274.7z"/>
			</g>
			<g>
				<path class="st27" d="M190.1,275.2h-0.8v-33.8c0-0.4,0.3-0.7,0.7-0.7h2.7v0.8h-2.5L190.1,275.2L190.1,275.2z"/>
			</g>
			<g>
				<path class="st27" d="M250.9,279.4h-64.2c-2.1,0-3.9-1.7-3.9-3.9v-0.9h33.4l0.1,0.2c0.4,0.5,1,1.1,1.4,1.2h3
					c0.6-0.2,1.1-0.5,1.3-1.1l0.1-0.3h32.5v0.9C254.7,277.7,253,279.4,250.9,279.4z M183.6,275.5L183.6,275.5c0,1.7,1.4,3.1,3,3.1
					h64.2c1.7,0,3-1.4,3-3v-0.1h-31.1c-0.4,0.7-1,1.2-1.9,1.4h-0.1h-3.2c-0.7-0.2-1.5-1-1.8-1.4H183.6z"/>
			</g>
			<g>
				<rect x="250" y="278.6" class="st27" width="7.6" height="0.8"/>
			</g>
			<g>
				<rect x="181.4" y="278.6" class="st27" width="7.6" height="0.8"/>
			</g>
			<g>
				<rect x="192.9" y="283.1" class="st27" width="2" height="0.8"/>
			</g>
			<g>
				<rect x="197.1" y="283.1" class="st27" width="50.1" height="0.8"/>
			</g>
		</g>
		<g>
			<g>
				<path class="st27" d="M199.4,229.9c-1,0-2.2-0.2-3.5-0.7c-1-0.4-2-1-2.8-1.7c-1.2,0.3-2.3,0.4-3.5,0.4c-3.1,0-6-0.9-8.5-2.8
					c-3.2-2.3-5.2-5.9-5.7-9.7c-0.1-0.5-0.1-1.1-0.1-1.7c0-3.8,1.5-7.4,4.1-10.1c2.7-2.7,6.3-4.2,10.1-4.2c0,0,0,0,0.1,0
					c7.9,0,14.2,6.4,14.3,14.2c0,3.5-1.3,6.9-3.6,9.6c-0.2,0.7-0.2,1.4-0.1,2.1c0.3,1.9,1.5,3.1,2,3.5c0.1,0.1,0.2,0.3,0.1,0.4
					c0,0.2-0.2,0.3-0.3,0.3C201.3,229.8,200.5,229.9,199.4,229.9z M193.2,226.7c0.1,0,0.2,0,0.3,0.1c0.8,0.7,1.7,1.3,2.8,1.7
					c1.9,0.7,3.6,0.7,4.7,0.5c-0.7-0.7-1.4-1.9-1.7-3.5c-0.1-0.8-0.1-1.7,0.1-2.6c0-0.1,0-0.1,0.1-0.2c2.3-2.5,3.5-5.7,3.5-9.1
					c0-7.4-6.1-13.4-13.5-13.4c-3.6,0-7,1.4-9.5,4c-2.5,2.5-3.9,5.9-3.9,9.5c0,0.6,0,1.1,0.1,1.6c0.4,3.6,2.4,7,5.4,9.2
					c2.3,1.7,5.1,2.6,8,2.6l0,0C190.8,227.1,192,226.9,193.2,226.7C193.1,226.7,193.2,226.7,193.2,226.7z"/>
			</g>
			<g>
				<polygon class="st27" points="192.3,218.7 188.9,215.3 182.5,215.3 177.8,210.6 178.4,210 182.9,214.5 189.3,214.5 192.9,218.1 
									"/>
			</g>
			<g>
				<path class="st27" d="M193.8,223.2c-1.5,0-2.7-1.2-2.7-2.7s1.2-2.7,2.7-2.7s2.7,1.2,2.7,2.7S195.3,223.2,193.8,223.2z
					 M193.8,218.7c-1,0-1.8,0.8-1.8,1.8s0.8,1.8,1.8,1.8s1.8-0.8,1.8-1.8S194.9,218.7,193.8,218.7z"/>
			</g>
			<g>
				<path class="st27" d="M182.9,209.7c-1.5,0-2.7-1.2-2.7-2.7s1.2-2.7,2.7-2.7s2.7,1.2,2.7,2.7
					C185.6,208.5,184.4,209.7,182.9,209.7z M182.9,205.3c-1,0-1.8,0.8-1.8,1.8s0.8,1.8,1.8,1.8s1.8-0.8,1.8-1.8
					S183.9,205.3,182.9,205.3z"/>
			</g>
			<g>
				<polygon class="st27" points="199.9,218.2 192.6,210.9 186.2,210.9 184.4,209 184.9,208.4 186.5,210 192.9,210 200.5,217.6 				
					"/>
			</g>
			<g>
				
					<rect x="190.7" y="204.3" transform="matrix(0.7071 -0.7071 0.7071 0.7071 -87.8023 197.3804)" class="st27" width="7.3" height="0.8"/>
			</g>
			<g>
				
					<rect x="194.9" y="206.1" transform="matrix(0.7071 -0.7071 0.7071 0.7071 -88.0972 200.285)" class="st27" width="5.6" height="0.8"/>
			</g>
			<g>
				
					<rect x="177.3" y="219.5" transform="matrix(0.7071 -0.7071 0.7071 0.7071 -102.9939 191.1305)" class="st27" width="3.8" height="0.8"/>
			</g>
			<g>
				
					<rect x="182.6" y="223.6" transform="matrix(0.7071 -0.7071 0.7071 0.7071 -103.9173 197.0878)" class="st27" width="6.7" height="0.8"/>
			</g>
			<g>
				
					<rect x="179.3" y="220.8" transform="matrix(0.7071 -0.7071 0.7071 0.7071 -102.7918 194.2352)" class="st27" width="7.5" height="0.8"/>
			</g>
		</g>
		<g>
			<g>
				
					<rect x="252.5" y="210.7" transform="matrix(0.6576 -0.7533 0.7533 0.6576 -72.0191 263.6798)" class="st27" width="3.2" height="0.8"/>
			</g>
			<g>
				
					<rect x="247.3" y="206.3" transform="matrix(0.6576 -0.7533 0.7533 0.6576 -70.4874 258.3097)" class="st27" width="3.2" height="0.8"/>
			</g>
			<g>
				<path class="st27" d="M257.2,212.2l-9.5-8.3l3-3.4l9.5,8.3L257.2,212.2z M248.9,203.8l8.2,7.2l1.8-2.1l-8.2-7.2L248.9,203.8z"/>
			</g>
			<g>
				<path class="st27" d="M257.8,207.2l-0.6-0.6l4.6-5.1c0.3-0.4,0.3-1-0.1-1.4l-2.9-2.5c-0.2-0.2-0.4-0.3-0.7-0.2
					c-0.3,0-0.5,0.1-0.7,0.3l-4.6,5.1l-0.6-0.6l4.6-5.1c0.3-0.4,0.8-0.6,1.2-0.6c0.5,0,0.9,0.1,1.3,0.4l2.9,2.5
					c0.8,0.7,0.8,1.8,0.2,2.6L257.8,207.2z"/>
			</g>
			<g>
				<path class="st27" d="M242,234c-3.4,0-6.6-1.2-9.1-3.4c-5.8-5.1-6.4-13.9-1.3-19.6c5.1-5.8,13.9-6.4,19.6-1.3
					c5.8,5.1,6.4,13.9,1.3,19.6c-2.4,2.8-5.8,4.5-9.5,4.7C242.6,234,242.3,234,242,234z M232.1,211.4c-4.7,5.4-4.2,13.7,1.2,18.5
					c2.6,2.3,6,3.4,9.5,3.2s6.7-1.8,9-4.4c4.7-5.4,4.2-13.7-1.2-18.5C245.2,205.5,236.9,206,232.1,211.4L232.1,211.4z M242,230.7
					c-2.5,0-5-0.9-7-2.6c-2.1-1.9-3.4-4.5-3.6-7.3c-0.2-2.8,0.7-5.6,2.6-7.7c1.9-2.1,4.5-3.4,7.3-3.6c2.8-0.2,5.6,0.7,7.7,2.6
					c2.1,1.9,3.4,4.5,3.6,7.3c0.2,2.8-0.7,5.6-2.6,7.7C247.9,229.5,245,230.7,242,230.7z M242,210.2c-0.2,0-0.5,0-0.7,0
					c-2.6,0.2-5,1.4-6.7,3.3c-1.7,2-2.6,4.5-2.4,7.1c0.2,2.6,1.4,5,3.3,6.7c4.1,3.6,10.3,3.1,13.9-0.9c1.7-2,2.6-4.5,2.4-7.1
					s-1.4-5-3.3-6.7C246.6,211.1,244.4,210.2,242,210.2z"/>
			</g>
			<g>
				<g>
					<path class="st27" d="M246.9,217.3h-1.1v-0.8h1.1V217.3z M244.6,217.3h-1.1v-0.8h1.1V217.3z M242.4,217.3h-1.1v-0.8h1.1V217.3z
						 M240.2,217.3H239v-0.8h1.1L240.2,217.3L240.2,217.3z M237.9,217.3h-1.1v-0.8h1.1V217.3z"/>
				</g>
				<g>
					<rect x="246.3" y="219.5" class="st27" width="2.8" height="0.8"/>
				</g>
				<g>
					<rect x="234.8" y="219.5" class="st27" width="8.7" height="0.8"/>
				</g>
				<g>
					<rect x="236.8" y="222.6" class="st27" width="10.4" height="0.8"/>
				</g>
			</g>
		</g>
		<g>
			<g id="gear-5-icon_39_">
				<path class="st27" d="M211.6,225.8l-1.7-2.6c-0.6,0-1.2-0.1-1.7-0.3l-2.4,1.9l-3-1.8l0.4-0.7l2.5,1.5l2.3-1.8l0.2,0.1
					c0.6,0.2,1.3,0.3,2,0.3h0.2l1.6,2.5l2.5-0.6l0.3-2.9l0.2-0.1c0.6-0.3,1.1-0.7,1.6-1.2l0.2-0.1l2.9,0.6l1.4-2.2l-1.8-2.3l0.1-0.2
					c0.2-0.6,0.3-1.3,0.3-2v-0.2l2.5-1.6l-0.6-2.5l-2.9-0.3l-0.1-0.2c-0.3-0.6-0.7-1.1-1.2-1.6l-0.1-0.2l0.6-2.9l-2.2-1.4l-2.3,1.8
					l-0.2-0.1c-0.6-0.2-1.3-0.3-2-0.3H211l-1.6-2.5l-2.5,0.6l-0.3,2.9l-0.2,0.1c-0.6,0.3-1.1,0.7-1.6,1.2l-0.6-0.6
					c0.5-0.4,1-0.8,1.6-1.2l0.3-3.1l3.7-0.9l1.7,2.6c0.6,0,1.2,0.1,1.7,0.3l2.4-1.9l3.2,2l-0.6,3c0.4,0.4,0.7,0.9,1,1.4l3.1,0.3
					l0.9,3.7l-2.6,1.7c0,0.6-0.1,1.2-0.3,1.7l1.9,2.4l-2,3.2l-3-0.6c-0.4,0.4-0.9,0.7-1.4,1l-0.3,3.1L211.6,225.8z M210.6,218.3
					c-0.9,0-1.7-0.2-2.5-0.7c-1.1-0.7-1.8-1.7-2.1-2.9s-0.1-2.5,0.6-3.6c0.7-1.1,1.7-1.8,3-2.1c1.2-0.3,2.5-0.1,3.6,0.6
					c1.1,0.7,1.8,1.7,2.1,2.9s0.1,2.5-0.6,3.6c-0.7,1.1-1.7,1.8-3,2.1C211.3,218.2,210.9,218.3,210.6,218.3z M210.6,209.6
					c-0.3,0-0.6,0-0.9,0.1c-1,0.2-1.9,0.9-2.4,1.8c-0.5,0.9-0.7,1.9-0.5,3c0.2,1,0.9,1.9,1.8,2.4c0.9,0.5,1.9,0.7,3,0.5
					c1-0.2,1.9-0.9,2.4-1.8c0.5-0.9,0.7-1.9,0.5-3c-0.2-1-0.9-1.9-1.8-2.4C212,209.8,211.3,209.6,210.6,209.6z"/>
			</g>
		</g>
	</g>
</g>
</svg>
