<?xml version="1.0" encoding="utf-8"?>
<!-- Generator: Adobe Illustrator 24.2.1, SVG Export Plug-In . SVG Version: 6.00 Build 0)  -->
<svg version="1.1" id="Layer_1" xmlns="http://www.w3.org/2000/svg" xmlns:xlink="http://www.w3.org/1999/xlink" x="0px" y="0px"
	 viewBox="0 0 42 42" style="enable-background:new 0 0 42 42;" xml:space="preserve">
<style type="text/css">
	.st0{fill:none;stroke:#13BC86;stroke-miterlimit:10;}
	.st1{fill:none;stroke:#13BC86;stroke-width:1.25;stroke-miterlimit:10;}
	.st2{fill:#13BC86;}
</style>
<g>
	<path class="st0" d="M31.7,4.5H10.6v10.1h21.2V4.5z"/>
	<path class="st1" d="M33.7,18H8.6c-1.1,0-1.9-0.9-1.9-1.9V2.9C6.7,1.8,7.6,1,8.6,1h25.2c1.1,0,1.9,0.9,1.9,1.9V16
		C35.7,17.1,34.8,18,33.7,18z"/>
	<path class="st2" d="M18.7,8.5h-2v2h2V8.5z"/>
	<path class="st2" d="M19.9,10.5h2v-2h-2V10.5z"/>
	<path class="st2" d="M23.1,10.5h2v-2h-2V10.5z"/>
	<path class="st0" d="M7.2,37.8c1.4,0,2.5-1.1,2.5-2.5c0-1.4-1.1-2.5-2.5-2.5c-1.4,0-2.5,1.1-2.5,2.5C4.7,36.7,5.8,37.8,7.2,37.8z"
		/>
	<path class="st1" d="M7.2,41c3.2,0,5.7-2.6,5.7-5.7c0-3.2-2.6-5.7-5.7-5.7c-3.2,0-5.7,2.6-5.7,5.7C1.5,38.4,4,41,7.2,41z"/>
	<path class="st0" d="M21.2,37.8c1.4,0,2.5-1.1,2.5-2.5c0-1.4-1.1-2.5-2.5-2.5c-1.4,0-2.5,1.1-2.5,2.5
		C18.7,36.7,19.8,37.8,21.2,37.8z"/>
	<path class="st1" d="M21.2,41c3.2,0,5.7-2.6,5.7-5.7c0-3.2-2.6-5.7-5.7-5.7s-5.7,2.6-5.7,5.7C15.5,38.4,18,41,21.2,41z"/>
	<path class="st0" d="M34.8,37.8c1.4,0,2.5-1.1,2.5-2.5c0-1.4-1.1-2.5-2.5-2.5c-1.4,0-2.5,1.1-2.5,2.5
		C32.3,36.7,33.5,37.8,34.8,37.8z"/>
	<path class="st1" d="M34.8,41c3.2,0,5.7-2.6,5.7-5.7c0-3.2-2.6-5.7-5.7-5.7s-5.7,2.6-5.7,5.7C29.1,38.4,31.7,41,34.8,41z"/>
	<path class="st1" d="M7.2,27.7v-3.8h28.1v4"/>
	<path class="st1" d="M21.2,20.2v7.6"/>
</g>
</svg>
