<svg width="53" height="50" viewBox="0 0 53 50" fill="none" xmlns="http://www.w3.org/2000/svg">
<g filter="url(#filter0_d)">
<path d="M30.6145 41.628H5.29944V19.0526L15.3816 18.943L15.272 8.53207H30.6145V41.628Z" stroke="#DC67CE" stroke-width="1.25" stroke-miterlimit="10"/>
<path d="M15.546 8.36768L5.29944 18.8334" stroke="#DC67CE" stroke-width="1.25" stroke-miterlimit="10"/>
<path d="M15.8748 24.4773H26.5049" stroke="#DC67CE" stroke-width="1.25" stroke-miterlimit="10"/>
<path d="M15.8748 27.5458H26.5049" stroke="#DC67CE" stroke-width="1.25" stroke-miterlimit="10"/>
<path d="M15.8748 32.8608H26.5049" stroke="#DC67CE" stroke-width="1.25" stroke-miterlimit="10"/>
<path d="M15.8748 35.9294H26.5049" stroke="#DC67CE" stroke-width="1.25" stroke-miterlimit="10"/>
<path d="M10.8337 27.9841C12.0744 27.9841 13.0802 26.9783 13.0802 25.7376C13.0802 24.4968 12.0744 23.491 10.8337 23.491C9.59292 23.491 8.5871 24.4968 8.5871 25.7376C8.5871 26.9783 9.59292 27.9841 10.8337 27.9841Z" stroke="#DC67CE" stroke-width="1.25" stroke-miterlimit="10"/>
<path d="M10.8337 36.7512C12.0744 36.7512 13.0802 35.7454 13.0802 34.5047C13.0802 33.2639 12.0744 32.2581 10.8337 32.2581C9.59292 32.2581 8.5871 33.2639 8.5871 34.5047C8.5871 35.7454 9.59292 36.7512 10.8337 36.7512Z" stroke="#DC67CE" stroke-width="1.25" stroke-miterlimit="10"/>
<path d="M7.21725 12.5321V5.08002H41.7378C45.0803 5.08002 47.82 7.65536 47.82 10.8334C47.82 13.9567 45.2447 16.4773 42.0666 16.5869L41.957 41.2992C41.957 41.2992 46.6693 41.4636 47.7104 37.2444L47.82 10.8334" stroke="#DC67CE" stroke-width="1.25" stroke-miterlimit="10"/>
<path d="M6.28574 43.3266V45.08H28.9707V43.3266" stroke="#DC67CE" stroke-width="1.25" stroke-miterlimit="10"/>
<path d="M30.5049 35.9294H39.4364" stroke="#DC67CE" stroke-width="1.25" stroke-miterlimit="10"/>
<path d="M30.5049 30.6691H31.3268" stroke="#DC67CE" stroke-width="1.25" stroke-miterlimit="10"/>
<path d="M32.2583 30.6691H36.4775" stroke="#DC67CE" stroke-width="1.25" stroke-miterlimit="10" stroke-dasharray="2.55 2.55"/>
<path d="M36.9159 30.6691H37.7378V29.8472" stroke="#DC67CE" stroke-width="1.25" stroke-miterlimit="10"/>
<path d="M37.7378 28.5869V19.9842" stroke="#DC67CE" stroke-width="1.25" stroke-miterlimit="10" stroke-dasharray="3.38 3.38"/>
<path d="M37.7378 19.3266V18.5047" stroke="#DC67CE" stroke-width="1.25" stroke-miterlimit="10"/>
<path d="M36.5323 9.354L40.7515 13.8472" stroke="#DC67CE" stroke-width="1.25" stroke-miterlimit="10"/>
<path d="M41.0803 9.29919L36.5871 14.0115" stroke="#DC67CE" stroke-width="1.25" stroke-miterlimit="10"/>
</g>
<defs>
<filter id="filter0_d" x="0.674438" y="0.455017" width="51.7706" height="49.25" filterUnits="userSpaceOnUse" color-interpolation-filters="sRGB">
<feFlood flood-opacity="0" result="BackgroundImageFix"/>
<feColorMatrix in="SourceAlpha" type="matrix" values="0 0 0 0 0 0 0 0 0 0 0 0 0 0 0 0 0 0 127 0"/>
<feOffset/>
<feGaussianBlur stdDeviation="2"/>
<feColorMatrix type="matrix" values="0 0 0 0 0.862745 0 0 0 0 0.403922 0 0 0 0 0.807843 0 0 0 0.4 0"/>
<feBlend mode="normal" in2="BackgroundImageFix" result="effect1_dropShadow"/>
<feBlend mode="normal" in="SourceGraphic" in2="effect1_dropShadow" result="shape"/>
</filter>
</defs>
</svg>
