<?xml version="1.0" encoding="utf-8"?>
<!-- Generator: Adobe Illustrator 24.2.1, SVG Export Plug-In . SVG Version: 6.00 Build 0)  -->
<svg version="1.1" id="Layer_1" xmlns="http://www.w3.org/2000/svg" xmlns:xlink="http://www.w3.org/1999/xlink" x="0px" y="0px"
	 viewBox="0 0 42 42" style="enable-background:new 0 0 42 42;" xml:space="preserve">
<style type="text/css">
	.st0{fill:none;stroke:#DC67CE;stroke-width:1.25;stroke-miterlimit:10;}
	.st1{fill:none;stroke:#DC67CE;stroke-width:1.25;stroke-miterlimit:10;stroke-dasharray:2.55,2.55;}
	.st2{fill:none;stroke:#DC67CE;stroke-width:1.25;stroke-miterlimit:10;stroke-dasharray:3.38,3.38;}
</style>
<g>
	<path class="st0" d="M24.8,37.1H1.2V14l9.4-0.1l-0.1-9.7h14.3V37.1z"/>
	<path class="st0" d="M10.7,4.1l-9.6,9.8"/>
	<path class="st0" d="M11,19.1h9.9"/>
	<path class="st0" d="M11,21.9h9.9"/>
	<path class="st0" d="M11,26.9h9.9"/>
	<path class="st0" d="M11,29.8h9.9"/>
	<path class="st0" d="M6.3,22.3c1.2,0,2.1-0.9,2.1-2.1c0-1.2-0.9-2.1-2.1-2.1c-1.2,0-2.1,0.9-2.1,2.1C4.2,21.4,5.2,22.3,6.3,22.3z"
		/>
	<path class="st0" d="M6.3,30.5c1.2,0,2.1-0.9,2.1-2.1c0-1.2-0.9-2.1-2.1-2.1c-1.2,0-2.1,0.9-2.1,2.1C4.2,29.6,5.2,30.5,6.3,30.5z"
		/>
	<path class="st0" d="M3,7.9V1h32.2c3.1,0,5.7,2.4,5.7,5.4c0,2.9-2.4,5.3-5.4,5.4l-0.1,28c0,0,4.4,0.2,5.4-3.8l0.1-29.6"/>
	<path class="st0" d="M2.1,38.6v1.6h21.1v-1.6"/>
	<path class="st0" d="M24.7,34.8H33"/>
	<path class="st0" d="M24.7,24.9h0.8"/>
	<path class="st1" d="M26.3,24.9h3.9"/>
	<path class="st0" d="M30.7,24.9h0.8v-0.8"/>
	<path class="st2" d="M31.4,22.9v-8"/>
	<path class="st0" d="M31.4,14.3v-0.8"/>
	<path class="st0" d="M30.3,5l3.9,4.2"/>
	<path class="st0" d="M34.5,4.9l-4.2,4.4"/>
</g>
</svg>
