<svg width="51" height="45" viewBox="0 0 51 45" fill="none" xmlns="http://www.w3.org/2000/svg">
<g filter="url(#filter0_d)">
<path d="M31.7415 28.0514V37.1854C30.1717 37.1854 28.8921 38.4683 28.8921 40.042V42.8985H42.5589V40.042C42.5589 38.4683 41.2793 37.1854 39.7095 37.1854V18.9173C39.7095 18.6009 39.9655 18.3443 40.2811 18.3443H43.523L46.8075 18.3187C47.4046 18.1134 47.9677 17.5404 48.1554 16.9332L48.1724 16.9417V15.599L48.0871 15.5477C47.78 14.8378 47.0805 14.3418 46.2615 14.3418H38.5067C39.2489 13.6148 39.7095 12.6056 39.7095 11.4852C39.7095 9.27868 37.918 7.49121 35.7255 7.49121C33.533 7.49121 31.7415 9.28723 31.7415 11.4852C31.7415 12.6569 32.2448 13.7003 33.0467 14.4358C30.6836 14.8891 28.8921 16.9759 28.8921 19.4818V25.1949C28.8921 26.7771 30.1632 28.0514 31.7415 28.0514ZM35.7255 14.3503C34.1558 14.3503 32.8761 13.0674 32.8761 11.4938C32.8761 9.92012 34.1558 8.63724 35.7255 8.63724C37.2952 8.63724 38.5749 9.92012 38.5749 11.4938C38.5749 13.0674 37.2952 14.3503 35.7255 14.3503ZM31.7415 38.3315H39.7181C40.6565 38.3315 41.4243 39.1012 41.4243 40.042V41.7525H30.0267V40.042C30.0267 39.1012 30.7945 38.3315 31.7415 38.3315ZM31.7415 18.3443V26.9054C30.803 26.9054 30.0352 26.1356 30.0352 25.1949V19.4818C30.0352 17.2753 31.8268 15.4878 34.0193 15.4878H46.2615C46.7307 15.4878 47.1146 15.8727 47.1146 16.343C47.1146 16.8134 46.7307 17.1983 46.2615 17.1983H40.2811C39.3427 17.1983 38.5749 17.968 38.5749 18.9088V37.1769H36.2971V24.0574H35.1539V37.1854H32.8761V18.3443H31.7415Z" fill="#F16A21"/>
<path d="M2.83797 12.4259L3.3413 12.768C3.43515 12.8535 3.52899 12.9391 3.64842 13.016L3.66549 13.0331L4.48448 13.5548L7.79456 15.8127C8.71592 16.4285 9.27045 17.4975 9.27045 18.6436V35.3894C7.49597 35.3894 6.05421 36.9117 6.05421 38.7761V39.4518H21.4785V38.7761C21.4785 36.9117 20.0367 35.3894 18.2623 35.3894V25.9132H18.9021C20.3183 25.9132 21.47 24.6987 21.47 23.2021V18.4725C21.47 15.1456 19.3884 12.3233 16.5219 11.3654C17.5712 10.493 18.2537 9.15031 18.2537 7.63652C18.2537 5.01946 16.2319 2.89844 13.7578 2.89844C11.2838 2.89844 9.27045 5.01946 9.27045 7.63652C9.27045 8.96215 9.79085 10.1595 10.6269 11.0233H10.3624C9.76525 11.0233 9.18513 10.8523 8.6818 10.5187L8.08462 10.1253V10.2536L6.77082 9.44109C5.99449 8.88518 4.2712 8.2694 3.13656 9.78319L3.08537 9.83451C2.70147 10.4674 2.47113 11.5536 3.05124 12.4174H2.83797V12.4259ZM13.7664 11.0233C11.9919 11.0233 10.5501 9.50096 10.5501 7.63652C10.5501 5.77207 11.9919 4.24973 13.7664 4.24973C15.5408 4.24973 16.9826 5.77207 16.9826 7.63652C16.9741 9.50096 15.5323 11.0233 13.7664 11.0233ZM9.27045 36.7492H18.2708C19.1069 36.7492 19.8235 37.3137 20.0879 38.1005H7.44478C7.71778 37.3137 8.42586 36.7492 9.27045 36.7492ZM7.15472 13.7515L7.13766 13.743L5.20109 12.4259H5.04753L4.29679 11.947C3.98114 11.7246 3.87023 11.4595 3.91289 11.0917C3.94701 10.8351 4.05792 10.6042 4.09204 10.5358C4.80866 9.62925 5.96036 10.4075 6.08833 10.5016L6.12245 10.5273L8.31496 11.87L8.32349 11.8614C8.95479 12.195 9.64582 12.3746 10.3539 12.3746H13.7578H14.3977C17.5883 12.3746 20.1818 15.1114 20.1818 18.4725V23.2106C20.1818 23.9547 19.6017 24.5619 18.8936 24.5619H18.2537V17.1127H16.9655V35.3979H14.3977V23.2106H13.1095V35.3979H10.5501V18.6436C10.5501 17.0272 9.78232 15.539 8.49411 14.6667L7.15472 13.7515Z" fill="#F16A21"/>
<path d="M25.8038 4.32666H25.0445V5.78914H25.8038V4.32666Z" fill="#F16A21"/>
<path d="M25.8123 34.9532H25.053V32.0368H25.8123V34.9532ZM25.8123 29.1204H25.053V26.204H25.8123V29.1204ZM25.8123 23.2876H25.053V20.3712H25.8123V23.2876ZM25.8123 17.4548H25.053V14.5384H25.8123V17.4548ZM25.8123 11.622H25.053V8.70557H25.8123V11.622Z" fill="#F16A21"/>
<path d="M25.8037 37.8696H25.0445V39.3407H25.8037V37.8696Z" fill="#F16A21"/>
</g>
<defs>
<filter id="filter0_d" x="0.700195" y="0.898438" width="49.4722" height="44.0001" filterUnits="userSpaceOnUse" color-interpolation-filters="sRGB">
<feFlood flood-opacity="0" result="BackgroundImageFix"/>
<feColorMatrix in="SourceAlpha" type="matrix" values="0 0 0 0 0 0 0 0 0 0 0 0 0 0 0 0 0 0 127 0"/>
<feOffset/>
<feGaussianBlur stdDeviation="1"/>
<feColorMatrix type="matrix" values="0 0 0 0 0.945098 0 0 0 0 0.415686 0 0 0 0 0.129412 0 0 0 0.4 0"/>
<feBlend mode="normal" in2="BackgroundImageFix" result="effect1_dropShadow"/>
<feBlend mode="normal" in="SourceGraphic" in2="effect1_dropShadow" result="shape"/>
</filter>
</defs>
</svg>
