<?xml version="1.0" encoding="utf-8"?>
<!-- Generator: Adobe Illustrator 24.2.1, SVG Export Plug-In . SVG Version: 6.00 Build 0)  -->
<svg version="1.1" id="Layer_1" xmlns="http://www.w3.org/2000/svg" xmlns:xlink="http://www.w3.org/1999/xlink" x="0px" y="0px"
	 viewBox="0 0 42 42" style="enable-background:new 0 0 42 42;" xml:space="preserve">
<style type="text/css">
	.st0{fill:none;stroke:#239EC5;stroke-width:1.0438;stroke-miterlimit:10;}
	.st1{fill:none;stroke:#239EC5;stroke-width:0.8872;stroke-miterlimit:10;}
	.st2{fill:none;stroke:#239EC5;stroke-miterlimit:10;}
	.st3{fill:none;stroke:#239EC5;stroke-width:1.5;stroke-miterlimit:10;}
</style>
<g>
	<path class="st0" d="M29.4,28.5c-0.8,1.2-1.9,2-3.3,2s-2.5-0.8-3.3-2c-2.2,1.2-3.7,3.4-3.7,6c0,0.1,0,0.1,0,0.1H33
		c0-0.1,0-0.1,0-0.1C33.1,31.8,31.6,29.6,29.4,28.5z"/>
	<path class="st1" d="M26.1,28.1c1.7,0,3-1.4,3-3.1s-1.3-3.1-3-3.1s-3,1.4-3,3.1C23.1,26.8,24.4,28.1,26.1,28.1z"/>
	<path class="st2" d="M26,41c6,0,10.9-4.9,10.9-10.8S32,19.3,26,19.3s-11,4.9-11,10.9S19.9,41,26,41z"/>
	<path class="st0" d="M19.1,10.8c-0.8,1.2-1.9,2-3.3,2s-2.5-0.8-3.3-2c-2.2,1.2-3.7,3.4-3.7,6c0,0.1,0,0.1,0,0.1h13.9
		c0-0.1,0-0.1,0-0.1C22.8,14.2,21.4,12,19.1,10.8z"/>
	<path class="st1" d="M15.9,10.5c1.7,0,3-1.4,3-3.1s-1.3-3.1-3-3.1s-3,1.4-3,3.1S14.2,10.5,15.9,10.5z"/>
	<path class="st2" d="M15,22.6c-5.4-0.7-9.6-5.2-9.6-10.8C5.5,5.9,10.4,1,16.4,1s10.9,4.9,10.9,10.8c0,1.7-0.4,3.3-1.1,4.7"/>
	<path class="st3" d="M4.8,20.7v14.2H13"/>
	<path class="st3" d="M29.4,7.8h8.2v13.6"/>
</g>
</svg>
