<svg width="51" height="58" viewBox="0 0 51 58" fill="none" xmlns="http://www.w3.org/2000/svg">
<g filter="url(#filter0_d)">
<path d="M33.8847 36.5417C33.1335 37.7621 31.9727 38.5078 30.6071 38.5078C29.2414 38.5078 28.0806 37.6943 27.3295 36.5417C25.1444 37.6943 23.6422 39.9315 23.6422 42.5078C23.6422 42.5756 23.6422 42.6434 23.6422 42.6434H37.572C37.572 42.5756 37.572 42.5078 37.572 42.5078C37.572 39.9315 36.138 37.6943 33.8847 36.5417Z" stroke="#239EC5" stroke-width="1.0438" stroke-miterlimit="10"/>
<path d="M30.607 36.2027C32.2664 36.2027 33.6115 34.8368 33.6115 33.1519C33.6115 31.467 32.2664 30.101 30.607 30.101C28.9477 30.101 27.6026 31.467 27.6026 33.1519C27.6026 34.8368 28.9477 36.2027 30.607 36.2027Z" stroke="#239EC5" stroke-width="0.8872" stroke-miterlimit="10"/>
<path d="M30.4705 49.084C36.5044 49.084 41.3959 44.2275 41.3959 38.2366C41.3959 32.2457 36.5044 27.3891 30.4705 27.3891C24.4366 27.3891 19.5452 32.2457 19.5452 38.2366C19.5452 44.2275 24.4366 49.084 30.4705 49.084Z" stroke="#239EC5" stroke-miterlimit="10"/>
<path d="M23.6422 18.9146C22.8911 20.1349 21.7302 20.8807 20.3646 20.8807C18.9989 20.8807 17.8381 20.0671 17.087 18.9146C14.9019 20.0671 13.3997 22.3044 13.3997 24.8807C13.3997 24.9485 13.3997 25.0162 13.3997 25.0162H27.3295C27.3295 24.9484 27.3295 24.8807 27.3295 24.8807C27.3295 22.3044 25.8955 20.0671 23.6422 18.9146Z" stroke="#239EC5" stroke-width="1.0438" stroke-miterlimit="10"/>
<path d="M20.3646 18.5756C22.0239 18.5756 23.369 17.2097 23.369 15.5247C23.369 13.8398 22.0239 12.4739 20.3646 12.4739C18.7053 12.4739 17.3601 13.8398 17.3601 15.5247C17.3601 17.2097 18.7053 18.5756 20.3646 18.5756Z" stroke="#239EC5" stroke-width="0.8872" stroke-miterlimit="10"/>
<path d="M19.5452 30.7112C14.1508 30.0332 9.98547 25.4908 9.98547 19.9315C9.98547 13.9654 14.9019 9.08405 20.9108 9.08405C26.9198 9.08405 31.8362 13.9654 31.8362 19.9315C31.8362 21.6264 31.4265 23.1857 30.7436 24.6095" stroke="#239EC5" stroke-miterlimit="10"/>
<path d="M9.30264 28.7451V42.9823H17.4967" stroke="#239EC5" stroke-width="1.5" stroke-miterlimit="10"/>
<path d="M33.8847 15.8637H42.0787V29.423" stroke="#239EC5" stroke-width="1.5" stroke-miterlimit="10"/>
</g>
<defs>
<filter id="filter0_d" x="0.552643" y="0.584045" width="50.276" height="57" filterUnits="userSpaceOnUse" color-interpolation-filters="sRGB">
<feFlood flood-opacity="0" result="BackgroundImageFix"/>
<feColorMatrix in="SourceAlpha" type="matrix" values="0 0 0 0 0 0 0 0 0 0 0 0 0 0 0 0 0 0 127 0"/>
<feOffset/>
<feGaussianBlur stdDeviation="4"/>
<feColorMatrix type="matrix" values="0 0 0 0 0.137255 0 0 0 0 0.619608 0 0 0 0 0.772549 0 0 0 0.25 0"/>
<feBlend mode="normal" in2="BackgroundImageFix" result="effect1_dropShadow"/>
<feBlend mode="normal" in="SourceGraphic" in2="effect1_dropShadow" result="shape"/>
</filter>
</defs>
</svg>
