<svg width="22" height="22" viewBox="0 0 22 22" fill="none" xmlns="http://www.w3.org/2000/svg">
<path d="M14.5065 15.3674V14.4273C14.5065 13.9287 14.312 13.4505 13.966 13.0979C13.6199 12.7453 13.1506 12.5472 12.6612 12.5472H8.97064C8.48124 12.5472 8.01189 12.7453 7.66583 13.0979C7.31978 13.4505 7.12537 13.9287 7.12537 14.4273V15.3674" stroke="#B4B0B0" stroke-width="0.8" stroke-linecap="round" stroke-linejoin="round"/>
<path d="M10.816 10.6672C11.8351 10.6672 12.6612 9.82542 12.6612 8.78707C12.6612 7.74873 11.8351 6.90698 10.816 6.90698C9.79686 6.90698 8.9707 7.74873 8.9707 8.78707C8.9707 9.82542 9.79686 10.6672 10.816 10.6672Z" stroke="#B4B0B0" stroke-width="0.8" stroke-linecap="round" stroke-linejoin="round"/>
<circle cx="10.6237" cy="11.1355" r="10" stroke="#B4B0B0"/>
</svg>
