<svg width="40" height="41" viewBox="0 0 40 41" fill="none" xmlns="http://www.w3.org/2000/svg">
<circle cx="20" cy="20.3355" r="19.5" stroke="white"/>
<path d="M31.87 17.0013H27.197V31.0308H31.87V17.0013Z" stroke="white" stroke-width="0.8" stroke-miterlimit="10"/>
<path d="M14.3661 28.6991C14.3661 29.5858 14.3661 30.4329 14.3661 31.3594C14.0876 31.3594 13.7965 31.3991 13.5181 31.3594C13.4169 31.3594 13.3029 31.1344 13.265 31.0285C13.189 30.6182 13.1258 30.2079 13.0878 29.8108C13.0498 29.6256 12.9865 29.5197 12.8093 29.4005C12.1385 28.9505 11.6323 29.1094 11.0627 29.6255C10.3919 30.2609 10.4173 30.1814 9.84772 29.5461C9.37942 29.0697 8.92379 28.5799 8.49347 28.1432C8.24034 27.8784 8.24034 27.7726 8.4555 27.5078C8.70863 27.1769 8.9491 26.8461 9.16426 26.5152C9.2402 26.4093 9.20223 26.2504 9.20223 26.1446C9.20223 26.1049 9.16426 26.0651 9.16426 25.999C9.02504 25.2578 8.59472 24.9666 7.88596 25.0063C7.7847 25.0063 7.6708 24.9666 7.53157 24.9666C7 24.8078 7 24.8078 7 24.2519C7 23.5107 7 22.7695 7 22.0283C7 21.5782 7.07594 21.5121 7.46829 21.4724C7.86064 21.4327 8.25299 21.3665 8.64535 21.2871C8.15174 21.3929 8.92379 21.0621 8.89848 21.1018L8.93645 21.0621C9.36677 20.0694 9.36677 20.0694 8.72129 19.2091C8.15174 18.4679 8.22768 18.5473 8.79723 17.9517C9.22755 17.5017 9.68318 17.0252 10.1135 16.5884C10.4299 16.2575 10.5059 16.2575 10.8602 16.5487C11.1387 16.7737 11.4298 17.0252 11.7462 17.2105C11.8474 17.2899 12.0246 17.3164 12.1385 17.2502C12.455 17.1443 12.8473 17.0649 13.0245 16.8002C13.2017 16.5752 13.1637 16.1384 13.2397 15.8075C13.2397 15.7678 13.2397 15.7678 13.2397 15.7281C13.3409 14.881 13.3156 14.9075 14.2016 14.9472C14.2775 14.9472 14.3787 15.053 14.3787 15.1325C14.3787 15.9531 14.3787 16.7605 14.3787 17.6075C12.5689 17.7531 11.1387 18.5737 10.1388 20.162C9.49333 21.1547 9.17692 22.2665 9.29083 23.418C9.55662 26.8063 12.012 28.5932 14.3661 28.6991Z" fill="white"/>
<path d="M27.0942 9.16084H14.7332V31.0178H27.0942V9.16084Z" fill="white" stroke="white" stroke-width="0.8" stroke-miterlimit="10"/>
<path d="M24.5234 11.3488H17.4247V14.0013H24.5234V11.3488Z" fill="#023047" stroke="white" stroke-width="0.8" stroke-miterlimit="10"/>
<path d="M24.5234 21.1177H17.4247V23.7702H24.5234V21.1177Z" fill="#023047" stroke="white" stroke-width="0.8" stroke-miterlimit="10"/>
<path d="M24.5234 16.0276H17.4247V18.6801H24.5234V16.0276Z" fill="#023047" stroke="white" stroke-width="0.8" stroke-miterlimit="10"/>
<path d="M24.5234 25.7965H17.4247V28.449H24.5234V25.7965Z" fill="#023047" stroke="white" stroke-width="0.8" stroke-miterlimit="10"/>
<path d="M14.3661 19.4977C12.4676 19.4977 10.9362 21.071 10.9362 23.0214C10.9362 24.9717 12.4676 26.545 14.3661 26.545V19.4977Z" fill="white" stroke="white" stroke-width="0.7"/>
</svg>
