<svg width="40" height="41" viewBox="0 0 40 41" fill="none" xmlns="http://www.w3.org/2000/svg">
<circle cx="20" cy="20.2397" r="19.5" stroke="#B3C1C8"/>
<path d="M31.87 16.9054H27.197V30.935H31.87V16.9054Z" stroke="#B3C1C8" stroke-width="0.8" stroke-miterlimit="10"/>
<path d="M14.3661 28.6032C14.3661 29.49 14.3661 30.3371 14.3661 31.2636C14.0876 31.2636 13.7965 31.3033 13.5181 31.2636C13.4169 31.2636 13.3029 31.0386 13.265 30.9327C13.189 30.5224 13.1258 30.1121 13.0878 29.715C13.0498 29.5297 12.9865 29.4238 12.8093 29.3047C12.1385 28.8547 11.6323 29.0135 11.0627 29.5297C10.3919 30.165 10.4173 30.0856 9.84772 29.4503C9.37942 28.9738 8.92379 28.4841 8.49347 28.0473C8.24034 27.7826 8.24034 27.6767 8.4555 27.412C8.70863 27.0811 8.9491 26.7502 9.16426 26.4193C9.2402 26.3134 9.20223 26.1546 9.20223 26.0487C9.20223 26.009 9.16426 25.9693 9.16426 25.9031C9.02504 25.1619 8.59472 24.8708 7.88596 24.9105C7.7847 24.9105 7.6708 24.8708 7.53157 24.8708C7 24.7119 7 24.7119 7 24.156C7 23.4148 7 22.6736 7 21.9324C7 21.4824 7.07594 21.4162 7.46829 21.3765C7.86064 21.3368 8.25299 21.2707 8.64535 21.1912C8.15174 21.2971 8.92379 20.9662 8.89848 21.0059L8.93645 20.9662C9.36677 19.9736 9.36677 19.9736 8.72129 19.1132C8.15174 18.372 8.22768 18.4514 8.79722 17.8558C9.22755 17.4058 9.68318 16.9293 10.1135 16.4926C10.4299 16.1617 10.5059 16.1617 10.8602 16.4529C11.1387 16.6779 11.4298 16.9293 11.7462 17.1146C11.8474 17.1941 12.0246 17.2205 12.1385 17.1543C12.455 17.0485 12.8473 16.969 13.0245 16.7043C13.2017 16.4793 13.1637 16.0425 13.2397 15.7117C13.2397 15.6719 13.2397 15.672 13.2397 15.6322C13.3409 14.7852 13.3156 14.8116 14.2016 14.8513C14.2775 14.8513 14.3787 14.9572 14.3787 15.0366C14.3787 15.8572 14.3787 16.6646 14.3787 17.5117C12.5689 17.6573 11.1387 18.4779 10.1388 20.0662C9.49333 21.0589 9.17692 22.1707 9.29083 23.3222C9.55662 26.7105 12.012 28.4973 14.3661 28.6032Z" fill="#B3C1C8"/>
<path d="M27.0942 9.06502H14.7332V30.922H27.0942V9.06502Z" stroke="#B3C1C8" stroke-width="0.8" stroke-miterlimit="10"/>
<path d="M24.5234 11.253H17.4247V13.9054H24.5234V11.253Z" stroke="#B3C1C8" stroke-width="0.8" stroke-miterlimit="10"/>
<path d="M24.5234 21.0219H17.4247V23.6744H24.5234V21.0219Z" stroke="#B3C1C8" stroke-width="0.8" stroke-miterlimit="10"/>
<path d="M24.5234 15.9318H17.4247V18.5842H24.5234V15.9318Z" stroke="#B3C1C8" stroke-width="0.8" stroke-miterlimit="10"/>
<path d="M24.5234 25.7007H17.4247V28.3532H24.5234V25.7007Z" stroke="#B3C1C8" stroke-width="0.8" stroke-miterlimit="10"/>
<path d="M14.3661 19.4019C12.4676 19.4019 10.9362 20.9752 10.9362 22.9255C10.9362 24.8759 12.4676 26.4492 14.3661 26.4492V19.4019Z" fill="#B3C1C8" stroke="#B3C1C8" stroke-width="0.7"/>
</svg>
