<?xml version="1.0" encoding="utf-8"?>
<!-- Generator: Adobe Illustrator 24.2.1, SVG Export Plug-In . SVG Version: 6.00 Build 0)  -->
<svg version="1.1" id="Admin_x5F_h" xmlns="http://www.w3.org/2000/svg" xmlns:xlink="http://www.w3.org/1999/xlink" x="0px"
	 y="0px" viewBox="0 0 40.5 40.5" style="enable-background:new 0 0 40.5 40.5;" xml:space="preserve">
<style type="text/css">
	.st0{fill:none;stroke:#FFFFFF;}
	.st1{fill:none;stroke:#FFFFFF;stroke-width:0.8;stroke-miterlimit:10;}
	.st2{fill:#FFFFFF;}
	.st3{fill:#FFFFFF;stroke:#FFFFFF;stroke-width:0.7;}
</style>
<g>
	<circle class="st0" cx="20.3" cy="20.3" r="19.5"/>
	<path class="st1" d="M32.1,16.9h-4.7v14h4.7V16.9z"/>
	<path class="st2" d="M14.6,28.6c0,0.9,0,1.7,0,2.7c-0.3,0-0.6,0-0.8,0c-0.1,0-0.2-0.2-0.3-0.3c-0.1-0.4-0.1-0.8-0.2-1.2
		c0-0.2-0.1-0.3-0.3-0.4c-0.7-0.5-1.2-0.3-1.7,0.2c-0.7,0.6-0.6,0.6-1.2-0.1c-0.5-0.5-0.9-1-1.4-1.4c-0.3-0.3-0.3-0.4,0-0.6
		c0.3-0.3,0.5-0.7,0.7-1c0.1-0.1,0-0.3,0-0.4c0,0,0-0.1,0-0.1c-0.1-0.7-0.6-1-1.3-1c-0.1,0-0.2,0-0.4,0c-0.5-0.2-0.5-0.2-0.5-0.7
		c0-0.7,0-1.5,0-2.2c0-0.4,0.1-0.5,0.5-0.6c0.4,0,0.8-0.1,1.2-0.2C8.4,21.3,9.2,21,9.1,21l0,0c0.4-1,0.4-1-0.2-1.9
		c-0.6-0.7-0.5-0.7,0.1-1.3c0.4-0.5,0.9-0.9,1.3-1.4c0.3-0.3,0.4-0.3,0.7,0c0.3,0.2,0.6,0.5,0.9,0.7c0.1,0.1,0.3,0.1,0.4,0
		c0.3-0.1,0.7-0.2,0.9-0.5c0.2-0.2,0.1-0.7,0.2-1c0,0,0,0,0-0.1c0.1-0.8,0.1-0.8,1-0.8c0.1,0,0.2,0.1,0.2,0.2c0,0.8,0,1.6,0,2.5
		c-1.8,0.1-3.2,1-4.2,2.6c-0.6,1-1,2.1-0.8,3.3C9.8,26.7,12.3,28.5,14.6,28.6z"/>
	<path class="st1" d="M27.3,9.1H15v21.9h12.4V9.1z"/>
	<path class="st1" d="M24.8,11.3h-7.1v2.7h7.1V11.3z"/>
	<path class="st1" d="M24.8,21h-7.1v2.7h7.1V21z"/>
	<path class="st1" d="M24.8,15.9h-7.1v2.7h7.1V15.9z"/>
	<path class="st1" d="M24.8,25.7h-7.1v2.7h7.1V25.7z"/>
	<path class="st3" d="M14.6,19.4c-1.9,0-3.4,1.6-3.4,3.5c0,2,1.5,3.5,3.4,3.5V19.4z"/>
</g>
</svg>
