<svg width="40" height="41" viewBox="0 0 40 41" fill="none" xmlns="http://www.w3.org/2000/svg">
<g opacity="0.9">
<circle cx="20" cy="20.7941" r="19.5" stroke="white"/>
</g>
<g clip-path="url(#clip0)">
<path d="M10.9413 26.3801V14.5102C10.9413 14.1735 11.2781 13.9209 11.6148 13.9209H28.3674C28.7041 13.9209 29.0408 14.1735 29.0408 14.5102V26.3801" fill="white"/>
<path d="M10.9413 26.3801V14.5102C10.9413 14.1735 11.2781 13.9209 11.6148 13.9209H28.3674C28.7041 13.9209 29.0408 14.1735 29.0408 14.5102V26.3801" stroke="#023047" stroke-width="0.923" stroke-miterlimit="10"/>
<path d="M13.2143 16.1097V24.6123H26.852" stroke="#023047" stroke-width="0.8968" stroke-miterlimit="10" stroke-linecap="round"/>
<path d="M13.3827 24.6122L15.5715 21.4133L17.6761 22.5918L20.4541 19.0561" stroke="#023047" stroke-width="0.8968" stroke-miterlimit="10" stroke-linecap="round"/>
<path d="M21.2117 19.3087C21.7697 19.3087 22.2219 18.8564 22.2219 18.2985C22.2219 17.7406 21.7697 17.2883 21.2117 17.2883C20.6538 17.2883 20.2015 17.7406 20.2015 18.2985C20.2015 18.8564 20.6538 19.3087 21.2117 19.3087Z" stroke="#023047" stroke-width="0.8968" stroke-miterlimit="10" stroke-linecap="round"/>
<path d="M22.4745 18.2985H25.2525" stroke="#023047" stroke-width="0.8968" stroke-miterlimit="10" stroke-linecap="round"/>
<path d="M27.0204 20.9082H24.2424" stroke="#023047" stroke-width="0.8968" stroke-miterlimit="10" stroke-linecap="round"/>
<path d="M26.852 22.7602H22.8112" stroke="#023047" stroke-width="0.8968" stroke-miterlimit="10" stroke-linecap="round"/>
<path d="M30.3878 26.3801H22.1378V27.222C22.1378 27.9796 21.5485 28.6531 20.7066 28.6531H19.1913C18.4337 28.6531 17.7602 28.0638 17.7602 27.222V26.3801H9.59439C9.0051 26.3801 8.5 26.8852 8.5 27.4745V28.9056C8.5 29.4949 9.0051 30 9.59439 30H30.3878C30.977 30 31.4821 29.4949 31.4821 28.9056V27.4745C31.4821 26.8852 30.977 26.3801 30.3878 26.3801ZM13.7194 28.9056H12.0357C11.699 28.9056 11.3622 28.6531 11.3622 28.2322C11.3622 27.8954 11.6148 27.5587 12.0357 27.5587H13.7194C14.0561 27.5587 14.3929 27.8112 14.3929 28.2322C14.3929 28.5689 14.0561 28.9056 13.7194 28.9056ZM27.7781 28.9056H26.0102C25.6735 28.9056 25.3367 28.5689 25.3367 28.2322C25.3367 27.8954 25.6735 27.5587 26.0102 27.5587H27.7781C28.1148 27.5587 28.4515 27.8954 28.4515 28.2322C28.4515 28.6531 28.1148 28.9056 27.7781 28.9056Z" fill="white"/>
</g>
<defs>
<clipPath id="clip0">
<rect width="22.9821" height="16.5" fill="white" transform="translate(8.5 13.5)"/>
</clipPath>
</defs>
</svg>
