<svg width="40" height="41" viewBox="0 0 40 41" fill="none" xmlns="http://www.w3.org/2000/svg">
<g opacity="0.9">
<circle cx="20" cy="20.7316" r="19.5" stroke="#B3C1C8"/>
</g>
<g clip-path="url(#clip0)">
<path d="M10.9413 26.3176V14.4477C10.9413 14.111 11.2781 13.8584 11.6148 13.8584H28.3674C28.7041 13.8584 29.0408 14.111 29.0408 14.4477V26.3176" stroke="#B3C1C8" stroke-width="0.923" stroke-miterlimit="10"/>
<path d="M13.2143 16.0472V24.5497H26.852" stroke="#B3C1C8" stroke-width="0.8968" stroke-miterlimit="10" stroke-linecap="round"/>
<path d="M13.3827 24.5497L15.5715 21.3508L17.6761 22.5293L20.4541 18.9936" stroke="#B3C1C8" stroke-width="0.8968" stroke-miterlimit="10" stroke-linecap="round"/>
<path d="M21.2117 19.2462C21.7697 19.2462 22.2219 18.7939 22.2219 18.236C22.2219 17.6781 21.7697 17.2258 21.2117 17.2258C20.6538 17.2258 20.2015 17.6781 20.2015 18.236C20.2015 18.7939 20.6538 19.2462 21.2117 19.2462Z" stroke="#B3C1C8" stroke-width="0.8968" stroke-miterlimit="10" stroke-linecap="round"/>
<path d="M22.4745 18.236H25.2525" stroke="#B3C1C8" stroke-width="0.8968" stroke-miterlimit="10" stroke-linecap="round"/>
<path d="M27.0204 20.8457H24.2424" stroke="#B3C1C8" stroke-width="0.8968" stroke-miterlimit="10" stroke-linecap="round"/>
<path d="M26.852 22.6977H22.8112" stroke="#B3C1C8" stroke-width="0.8968" stroke-miterlimit="10" stroke-linecap="round"/>
<path d="M22.6378 27.1594V26.8176H30.3878C30.7009 26.8176 30.9821 27.0989 30.9821 27.412V28.8431C30.9821 29.1563 30.7009 29.4375 30.3878 29.4375H9.59439C9.28125 29.4375 9 29.1563 9 28.8431V27.412C9 27.0989 9.28124 26.8176 9.59439 26.8176H17.2602V27.1594C17.2602 28.2965 18.177 29.0906 19.1913 29.0906H20.7066C21.8437 29.0906 22.6378 28.1738 22.6378 27.1594ZM12.0357 29.3431H13.7194C14.0504 29.3431 14.3395 29.1827 14.536 28.9862C14.7324 28.7898 14.8929 28.5006 14.8929 28.1697C14.8929 27.4325 14.2904 26.9962 13.7194 26.9962H12.0357C11.2986 26.9962 10.8622 27.5986 10.8622 28.1697C10.8622 28.9068 11.4647 29.3431 12.0357 29.3431ZM26.0102 29.3431H27.7781C28.3491 29.3431 28.9515 28.9068 28.9515 28.1697C28.9515 27.8387 28.7911 27.5495 28.5946 27.3531C28.3982 27.1566 28.109 26.9962 27.7781 26.9962H26.0102C25.6792 26.9962 25.3901 27.1566 25.1936 27.3531C24.9972 27.5495 24.8367 27.8387 24.8367 28.1697C24.8367 28.5006 24.9972 28.7898 25.1936 28.9862C25.3901 29.1827 25.6792 29.3431 26.0102 29.3431Z" fill="#B3C1C8" stroke="#B3C1C8"/>
</g>
<defs>
<clipPath id="clip0">
<rect width="22.9821" height="16.5" fill="white" transform="translate(8.5 13.4375)"/>
</clipPath>
</defs>
</svg>
