<svg width="40" height="41" viewBox="0 0 40 41" fill="none" xmlns="http://www.w3.org/2000/svg">
<circle cx="20" cy="20.5697" r="19.5" stroke="white"/>
<path d="M14.8641 29.3336C14.9807 28.4629 15.004 27.5686 15.2372 26.745C15.6803 25.1918 17.2196 24.1563 18.8054 24.1563C19.6917 24.1563 20.5779 24.1563 21.4641 24.1563C23.633 24.1798 25.3122 25.8742 25.3355 28.0628C25.3589 29.0277 25.3355 29.969 25.3355 30.9339C25.3355 31.1692 25.2422 31.2869 25.0324 31.381C23.8196 31.8987 22.5369 32.1341 21.2076 32.2047C19.1786 32.2988 17.1962 31.9929 15.2372 31.381C15.004 31.3104 14.9107 31.2163 14.9107 30.9574C14.934 30.4162 14.9107 29.8749 14.9107 29.3336C14.934 29.3336 14.8874 29.3336 14.8641 29.3336Z" fill="white"/>
<path d="M17.3828 23.4974C14.934 24.4858 13.9778 26.392 14.1411 29.0042C13.4881 28.91 12.8817 28.863 12.2753 28.7453C11.5057 28.5806 10.7361 28.3688 9.94316 28.204C9.68662 28.1334 9.57001 27.9922 9.57001 27.7099C9.59333 26.6744 9.57001 25.6389 9.59333 24.627C9.66329 22.7443 11.2492 21.097 13.1149 21.0029C14.0711 20.9558 15.0273 20.9793 15.9835 20.9793C16.1001 20.9793 16.2867 21.097 16.31 21.1911C16.4266 22.0619 16.7764 22.8149 17.3828 23.4974Z" fill="white"/>
<path d="M26.1751 28.9336C26.2451 27.7569 26.1518 26.6273 25.5221 25.6154C24.9157 24.627 24.0528 23.921 23.0267 23.5445C23.3065 23.0032 23.5631 22.4855 23.8196 21.9677C23.8663 21.8501 23.8896 21.7324 23.9129 21.6147C24.0528 20.9558 24.0528 20.9558 24.7058 20.9558C25.3588 20.9558 26.0352 20.9323 26.6882 20.9558C28.8105 21.0735 30.373 22.7208 30.4197 24.8623C30.443 25.8272 30.4197 26.7685 30.4197 27.7334C30.4197 27.8511 30.3497 28.0393 30.2331 28.0864C29.5101 28.5571 27.0613 29.0748 26.1751 28.9336Z" fill="white"/>
<path d="M16.7298 11.4484C16.7998 9.63631 18.3157 8.15371 20.0881 8.22431C21.8839 8.29491 23.3532 9.84811 23.2832 11.6366C23.2366 13.4252 21.6973 14.9078 19.9482 14.8372C18.1058 14.7901 16.6832 13.284 16.7298 11.4484Z" fill="white"/>
<path d="M23.1666 20.7675C23.1666 22.4149 21.814 23.8033 20.1814 23.8033C18.5023 23.8033 17.1263 22.4149 17.1263 20.744C17.1263 19.0967 18.5256 17.7082 20.1814 17.7317C21.814 17.7317 23.1899 19.1202 23.1666 20.7675Z" fill="white"/>
<path d="M14.7707 20.6734C13.1149 20.5793 11.7622 19.2379 11.7389 17.5906C11.7156 15.9903 13.0216 14.6018 14.6541 14.5077C16.2167 14.4136 17.6626 15.7314 17.7792 17.3317C17.8025 17.567 17.7559 17.7318 17.5693 17.8965C16.9863 18.4378 16.5898 19.0967 16.4032 19.8733C16.3799 20.0145 16.24 20.2027 16.1001 20.2498C15.6803 20.4381 15.2138 20.5557 14.7707 20.6734Z" fill="white"/>
<path d="M25.1256 20.6028C25.0556 20.6028 24.8924 20.5793 24.7291 20.5557C24.2627 20.4851 23.9362 20.3439 23.8429 19.7556C23.703 18.8613 23.1433 18.1789 22.4203 17.6141C22.3037 17.5199 22.2337 17.3317 22.2337 17.1905C22.397 15.6138 23.8662 14.39 25.4055 14.5077C27.0613 14.6489 28.2974 16.0373 28.2274 17.6847C28.1807 19.332 26.8514 20.6028 25.1256 20.6028Z" fill="white"/>
<path d="M21.3724 15.7607H21.3982C21.3707 15.8437 21.3434 15.9263 21.3162 16.0087L21.3158 16.0099C21.2666 16.1591 21.2175 16.3075 21.168 16.4561C20.3972 16.272 19.6183 16.3032 18.8638 16.5384C18.843 16.473 18.8221 16.4072 18.8012 16.3411C18.7407 16.15 18.6792 15.9561 18.6157 15.7607H18.6306H18.6631H18.6712H18.6793H18.6955H18.7604H18.8253H18.8902H18.9552H19.0202H19.0364H19.0446H19.0527H19.0852H19.1502H19.2153H19.2478H19.2804H19.2967H19.3048H19.3129H19.3211H19.3292H19.3374H19.3455H19.3536H19.3618H19.3699H19.3781H19.3862H19.3943H19.4025H19.4106H19.4188H19.4269H19.4351H19.4432H19.4513H19.4595H19.4676H19.4758H19.4839H19.4921H19.5002H19.5084H19.5165H19.5247H19.5328H19.541H19.5491H19.5573H19.5654H19.5735H19.5817H19.5898H19.598H19.6062H19.6143H19.6225H19.6306H19.6388H19.6469H19.6551H19.6632H19.6714H19.6795H19.6877H19.6958H19.704H19.7121H19.7203H19.7284H19.7366H19.7448H19.7529H19.7611H19.7692H19.7774H19.7855H19.7937H19.8019H19.81H19.8182H19.8263H19.8345H19.8427H19.8508H19.859H19.8671H19.8753H19.8835H19.8916H19.8998H19.9079H19.9161H19.9243H19.9324H19.9406H19.9488H19.9569H19.9651H19.9732H19.9814H19.9896H19.9977H20.0059H20.0141H20.0222H20.0304H20.0386H20.0467H20.0549H20.0631H20.0712H20.0794H20.0876H20.0957H20.1039H20.1121H20.1202H20.1284H20.1366H20.1447H20.1529H20.1611H20.1693H20.1774H20.1856H20.1938H20.2019H20.2101H20.2183H20.2265H20.2346H20.2428H20.251H20.2591H20.2673H20.2755H20.2837H20.2918H20.3H20.3082H20.3164H20.3245H20.3327H20.3409H20.3491H20.3572H20.3654H20.3736H20.3818H20.3899H20.3981H20.4063H20.4145H20.4226H20.4308H20.439H20.4472H20.4554H20.4635H20.4717H20.4799H20.4881H20.4963H20.5044H20.5126H20.5208H20.529H20.5372H20.5453H20.5535H20.5617H20.5699H20.5781H20.5862H20.5944H20.6026H20.6108H20.619H20.6271H20.6353H20.6435H20.6517H20.6599H20.6681H20.6762H20.6844H20.7172H20.7826H20.8481H20.9136H20.93H20.9382H20.9464H20.9791H21.0447H21.1102H21.1757H21.2085H21.2249H21.2331H21.2413H21.3068H21.3724Z" stroke="white"/>
</svg>
