<svg width="40" height="41" viewBox="0 0 40 41" fill="none" xmlns="http://www.w3.org/2000/svg">
<circle cx="20" cy="20.0697" r="19.5" stroke="white"/>
<path d="M15.4107 28.8336H15.3684C15.4007 28.5819 15.4272 28.3188 15.4527 28.0648C15.4696 27.8966 15.4862 27.7324 15.5037 27.5782C15.5522 27.1519 15.6127 26.7542 15.7182 26.3817C16.0936 25.0666 17.4181 24.1563 18.8054 24.1563H18.8106H18.8158H18.821H18.8262H18.8314H18.8366H18.8418H18.847H18.8522H18.8574H18.8626H18.8678H18.873H18.8781H18.8833H18.8885H18.8937H18.8989H18.9041H18.9093H18.9145H18.9197H18.9249H18.9301H18.9353H18.9405H18.9457H18.9508H18.956H18.9612H18.9664H18.9716H18.9768H18.982H18.9872H18.9924H18.9976H19.0028H19.008H19.0132H19.0184H19.0235H19.0287H19.0339H19.0391H19.0443H19.0495H19.0547H19.0599H19.0651H19.0703H19.0755H19.0807H19.0859H19.091H19.0962H19.1014H19.1066H19.1118H19.117H19.1222H19.1274H19.1326H19.1378H19.143H19.1482H19.1534H19.1586H19.1637H19.1689H19.1741H19.1793H19.1845H19.1897H19.1949H19.2001H19.2053H19.2105H19.2157H19.2209H19.2261H19.2313H19.2364H19.2416H19.2468H19.252H19.2572H19.2624H19.2676H19.2728H19.278H19.2832H19.2884H19.2936H19.2988H19.304H19.3091H19.3143H19.3195H19.3247H19.3299H19.3351H19.3403H19.3455H19.3507H19.3559H19.3611H19.3663H19.3715H19.3766H19.3818H19.387H19.3922H19.3974H19.4026H19.4078H19.413H19.4182H19.4234H19.4286H19.4338H19.439H19.4442H19.4493H19.4545H19.4597H19.4649H19.4701H19.4753H19.4805H19.4857H19.4909H19.4961H19.5013H19.5065H19.5117H19.5169H19.522H19.5272H19.5324H19.5376H19.5428H19.548H19.5532H19.5584H19.5636H19.5688H19.574H19.5792H19.5844H19.5896H19.5947H19.5999H19.6051H19.6103H19.6155H19.6207H19.6259H19.6311H19.6363H19.6415H19.6467H19.6519H19.6571H19.6622H19.6674H19.6726H19.6778H19.683H19.6882H19.6934H19.6986H19.7038H19.709H19.7142H19.7194H19.7246H19.7298H19.7349H19.7401H19.7453H19.7505H19.7557H19.7609H19.7661H19.7713H19.7765H19.7817H19.7869H19.7921H19.7973H19.8025H19.8076H19.8128H19.818H19.8232H19.8284H19.8336H19.8388H19.844H19.8492H19.8544H19.8596H19.8648H19.87H19.8752H19.8803H19.8855H19.8907H19.8959H19.9011H19.9063H19.9115H19.9167H19.9219H19.9271H19.9323H19.9375H19.9427H19.9478H19.953H19.9582H19.9634H19.9686H19.9738H19.979H19.9842H19.9894H19.9946H19.9998H20.005H20.0102H20.0154H20.0205H20.0257H20.0309H20.0361H20.0413H20.0465H20.0517H20.0569H20.0621H20.0673H20.0725H20.0777H20.0829H20.0881H20.0932H20.0984H20.1036H20.1088H20.114H20.1192H20.1244H20.1296H20.1348H20.14H20.1452H20.1504H20.1556H20.1608H20.1659H20.1711H20.1763H20.1815H20.1867H20.1919H20.1971H20.2023H20.2075H20.2127H20.2179H20.2231H20.2283H20.2334H20.2386H20.2438H20.249H20.2542H20.2594H20.2646H20.2698H20.275H20.2802H20.2854H20.2906H20.2958H20.301H20.3061H20.3113H20.3165H20.3217H20.3269H20.3321H20.3373H20.3425H20.3477H20.3529H20.3581H20.3633H20.3685H20.3737H20.3788H20.384H20.3892H20.3944H20.3996H20.4048H20.41H20.4152H20.4204H20.4256H20.4308H20.436H20.4412H20.4464H20.4515H20.4567H20.4619H20.4671H20.4723H20.4775H20.4827H20.4879H20.4931H20.4983H20.5035H20.5087H20.5139H20.519H20.5242H20.5294H20.5346H20.5398H20.545H20.5502H20.5554H20.5606H20.5658H20.571H20.5762H20.5814H20.5866H20.5917H20.5969H20.6021H20.6073H20.6125H20.6177H20.6229H20.6281H20.6333H20.6385H20.6437H20.6489H20.6541H20.6593H20.6644H20.6696H20.6748H20.68H20.6852H20.6904H20.6956H20.7008H20.706H20.7112H20.7164H20.7216H20.7268H20.732H20.7371H20.7423H20.7475H20.7527H20.7579H20.7631H20.7683H20.7735H20.7787H20.7839H20.7891H20.7943H20.7995H20.8046H20.8098H20.815H20.8202H20.8254H20.8306H20.8358H20.841H20.8462H20.8514H20.8566H20.8618H20.867H20.8722H20.8773H20.8825H20.8877H20.8929H20.8981H20.9033H20.9085H20.9137H20.9189H20.9241H20.9293H20.9345H20.9397H20.9449H20.95H20.9552H20.9604H20.9656H20.9708H20.976H20.9812H20.9864H20.9916H20.9968H21.002H21.0072H21.0124H21.0176H21.0227H21.0279H21.0331H21.0383H21.0435H21.0487H21.0539H21.0591H21.0643H21.0695H21.0747H21.0799H21.0851H21.0903H21.0954H21.1006H21.1058H21.111H21.1162H21.1214H21.1266H21.1318H21.137H21.1422H21.1474H21.1526H21.1578H21.1629H21.1681H21.1733H21.1785H21.1837H21.1889H21.1941H21.1993H21.2045H21.2097H21.2149H21.2201H21.2253H21.2305H21.2356H21.2408H21.246H21.2512H21.2564H21.2616H21.2668H21.272H21.2772H21.2824H21.2876H21.2928H21.298H21.3032H21.3083H21.3135H21.3187H21.3239H21.3291H21.3343H21.3395H21.3447H21.3499H21.3551H21.3603H21.3655H21.3707H21.3759H21.381H21.3862H21.3914H21.3966H21.4018H21.407H21.4122H21.4174H21.4226H21.4278H21.433H21.4382H21.4434H21.4485H21.4537H21.4589H21.4613C23.3529 24.1782 24.8151 25.6483 24.8356 27.5682L24.8355 27.5682L24.8357 27.5749C24.851 28.2096 24.846 28.8272 24.8408 29.4574C24.8382 29.7743 24.8356 30.0943 24.8355 30.4212C24.8342 30.4219 24.8328 30.4225 24.8313 30.4232C23.6881 30.9104 22.4684 31.1369 21.1827 31.2053C19.2301 31.2957 17.3156 31.0035 15.4129 30.412C15.4257 30.0583 15.4206 29.6952 15.4157 29.3478C15.4132 29.1713 15.4107 28.9988 15.4107 28.8336ZM25.0324 30.881L24.8437 30.4391C24.8424 30.4414 24.8412 30.4438 24.8402 30.4462C24.8397 30.4473 24.8392 30.4483 24.8388 30.4494L25.0324 30.881Z" stroke="white"/>
<path d="M15.8491 20.9792C15.9684 21.645 16.2167 22.2496 16.5982 22.8058C15.5922 23.3209 14.843 24.0203 14.3473 24.8955C13.8487 25.7759 13.6258 26.8007 13.6234 27.9322C13.5701 27.9257 13.5175 27.9194 13.4654 27.9131C13.089 27.8679 12.7416 27.8262 12.3753 27.7554C12.0208 27.6794 11.6656 27.5931 11.3002 27.5044C11.2788 27.4992 11.2574 27.494 11.236 27.4888C10.8567 27.3967 10.4671 27.3028 10.0701 27.2198C10.0701 27.2181 10.07 27.2163 10.07 27.2145C10.0817 26.6933 10.0817 26.1732 10.0817 25.6623V25.6596C10.0817 25.145 10.0817 24.6402 10.0931 24.1422C10.1556 22.5117 11.5424 21.083 13.1398 21.0022C13.8418 20.9677 14.5391 20.972 15.2524 20.9764C15.45 20.9776 15.6487 20.9788 15.8491 20.9792Z" stroke="white"/>
<path d="M25.9475 24.8526C25.3874 23.9403 24.6227 23.2419 23.7154 22.7959C23.9053 22.421 24.0866 22.0552 24.2668 21.6914L24.2676 21.6897L24.2768 21.6712L24.2844 21.652C24.3481 21.4914 24.379 21.3353 24.401 21.2241C24.4015 21.2211 24.4021 21.2182 24.4027 21.2153C24.4277 21.0976 24.4451 21.017 24.46 20.958C24.5169 20.9561 24.594 20.9558 24.7058 20.9558C24.9357 20.9558 25.1615 20.9531 25.3847 20.9504C25.8185 20.9453 26.2421 20.9402 26.6652 20.9553C28.5179 21.0603 29.8787 22.4879 29.9198 24.3732L29.9198 24.3744C29.9352 25.0091 29.9301 25.6267 29.9249 26.2569C29.9224 26.5646 29.9199 26.8752 29.9197 27.1923C29.7877 27.2691 29.5651 27.3635 29.2637 27.4618C28.9389 27.5677 28.5552 27.6677 28.1627 27.7501C27.7702 27.8324 27.3766 27.8954 27.0323 27.9294C26.9086 27.9416 26.7954 27.9496 26.6938 27.9537C26.7096 26.9014 26.5586 25.8355 25.9475 24.8526Z" stroke="white"/>
<path d="M20.0682 8.22392L20.0685 8.22393C21.5959 8.28398 22.8425 9.6119 22.7836 11.1171L22.7836 11.1171L22.7834 11.1236C22.7437 12.6459 21.4263 13.8964 19.9684 13.8376L19.9684 13.8375L19.961 13.8373C18.3968 13.7974 17.1917 12.5235 17.2296 10.9644C17.2914 9.40933 18.5932 8.16517 20.0682 8.22392Z" stroke="white"/>
<path d="M22.6667 20.2605L22.6666 20.2604V20.2675C22.6666 21.6481 21.5286 22.8033 20.1814 22.8033C18.7802 22.8033 17.6263 21.6405 17.6263 20.244C17.6263 18.8746 18.7984 17.7121 20.1743 17.7317L20.1743 17.7317H20.1814C21.5349 17.7317 22.686 18.8919 22.6667 20.2605Z" stroke="white"/>
<path d="M12.2388 17.0835L12.2388 17.0833C12.2195 15.7575 13.3109 14.586 14.6829 14.5069L14.6842 14.5068C15.9576 14.4301 17.1826 15.5245 17.2805 16.868L17.2804 16.868L17.2817 16.881C17.2854 16.9185 17.2852 16.9424 17.284 16.957C17.2835 16.964 17.2827 16.9685 17.2822 16.971C17.2817 16.9735 17.2814 16.9746 17.2813 16.9747L17.2809 16.9755C17.2807 16.976 17.2797 16.9778 17.2774 16.981C17.2729 16.9873 17.2619 17.0009 17.2384 17.0217L17.2383 17.0216L17.2291 17.0301C16.577 17.6355 16.1276 18.3801 15.9171 19.2565L15.9136 19.2711C15.9109 19.2758 15.907 19.2818 15.902 19.2882C15.9009 19.2896 15.8999 19.2909 15.8989 19.2921L15.8955 19.2936C15.5436 19.4514 15.1503 19.5556 14.725 19.6683C14.7243 19.6685 14.7236 19.6686 14.7228 19.6688C13.3492 19.5527 12.2579 18.4285 12.2388 17.0835Z" stroke="white"/>
<path d="M27.7278 17.1635L27.7278 17.1635L27.7276 17.1705C27.689 18.5338 26.5949 19.6018 25.1277 19.6028C25.1275 19.6028 25.1202 19.6025 25.1034 19.6009C25.0832 19.599 25.0571 19.5961 25.0249 19.592C24.9607 19.5839 24.8844 19.573 24.8023 19.5611C24.5873 19.5285 24.4979 19.49 24.4527 19.4549C24.4281 19.4358 24.3696 19.3838 24.3368 19.1778C24.1706 18.1169 23.5128 17.3379 22.7489 16.7364C22.7476 16.7339 22.746 16.7306 22.7444 16.7266C22.7406 16.7177 22.7377 16.7084 22.7358 16.7001C22.8931 15.4101 24.1141 14.4117 25.3652 14.5061C26.7576 14.626 27.7862 15.7891 27.7278 17.1635Z" stroke="white"/>
<path d="M21.3724 15.2607H21.3982C21.3708 15.3437 21.3435 15.4263 21.3162 15.5087L21.3158 15.5099C21.2666 15.6591 21.2175 15.8074 21.168 15.9561C20.3972 15.772 19.6183 15.8032 18.8638 16.0384C18.843 15.973 18.8221 15.9072 18.8012 15.8411C18.7407 15.65 18.6792 15.4561 18.6157 15.2607H18.6306H18.6631H18.6712H18.6793H18.6955H18.7604H18.8253H18.8902H18.9552H19.0202H19.0364H19.0446H19.0527H19.0852H19.1502H19.2153H19.2804H19.2967H19.3048H19.3129H19.3211H19.3292H19.3374H19.3455H19.3536H19.3618H19.3699H19.3781H19.3862H19.3943H19.4025H19.4106H19.4188H19.4269H19.4351H19.4432H19.4513H19.4595H19.4676H19.4758H19.4839H19.4921H19.5002H19.5084H19.5165H19.5247H19.5328H19.541H19.5491H19.5573H19.5654H19.5735H19.5817H19.5898H19.598H19.6062H19.6143H19.6225H19.6306H19.6388H19.6469H19.6551H19.6632H19.6714H19.6795H19.6877H19.6958H19.704H19.7121H19.7203H19.7284H19.7366H19.7448H19.7529H19.7611H19.7692H19.7774H19.7855H19.7937H19.8019H19.81H19.8182H19.8263H19.8345H19.8427H19.8508H19.859H19.8671H19.8753H19.8835H19.8916H19.8998H19.9079H19.9161H19.9243H19.9324H19.9406H19.9488H19.9569H19.9651H19.9732H19.9814H19.9896H19.9977H20.0059H20.0141H20.0222H20.0304H20.0386H20.0467H20.0549H20.0631H20.0712H20.0794H20.0876H20.0957H20.1039H20.1121H20.1202H20.1284H20.1366H20.1447H20.1529H20.1611H20.1693H20.1774H20.1856H20.1938H20.2019H20.2101H20.2183H20.2265H20.2346H20.2428H20.251H20.2591H20.2673H20.2755H20.2837H20.2918H20.3H20.3082H20.3164H20.3245H20.3327H20.3409H20.3491H20.3572H20.3654H20.3736H20.3818H20.3899H20.3981H20.4063H20.4145H20.4226H20.4308H20.439H20.4472H20.4554H20.4635H20.4717H20.4799H20.4881H20.4963H20.5044H20.5126H20.5208H20.529H20.5372H20.5453H20.5535H20.5617H20.5699H20.5781H20.5862H20.5944H20.6026H20.6108H20.619H20.6271H20.6353H20.6435H20.6517H20.6599H20.6681H20.6762H20.6844H20.7172H20.7826H20.8481H20.9136H20.93H20.9382H20.9464H20.9791H21.0447H21.1102H21.1757H21.2085H21.2249H21.2331H21.2413H21.3068H21.3724Z" stroke="white"/>
</svg>
