<svg width="40" height="41" viewBox="0 0 40 41" fill="none" xmlns="http://www.w3.org/2000/svg">
<circle cx="20" cy="20.9539" r="19.5" stroke="white"/>
<path d="M15.3191 18.7248H11.8C11.3352 18.7248 11.0032 19.1231 11.0032 19.5215V27.622C11.0032 27.622 8.81211 28.2196 8.81211 30.5435C8.81211 30.5435 8.74571 31.8051 10.9368 31.6723H29.993C29.993 31.6723 31.1881 31.4067 31.1881 30.2779C31.1881 30.2779 31.1881 28.0868 28.4658 27.5556V19.5215C28.4658 19.0567 28.0674 18.7248 27.6691 18.7248H24.2164" fill="white"/>
<path d="M15.3191 18.7248H11.8C11.3352 18.7248 11.0032 19.1231 11.0032 19.5215V27.622C11.0032 27.622 8.81211 28.2196 8.81211 30.5435C8.81211 30.5435 8.74571 31.8051 10.9368 31.6723H29.993C29.993 31.6723 31.1881 31.4067 31.1881 30.2779C31.1881 30.2779 31.1881 28.0868 28.4658 27.5556V19.5215C28.4658 19.0567 28.0674 18.7248 27.6691 18.7248H24.2164" stroke="white" stroke-width="0.9806" stroke-miterlimit="10"/>
<path d="M12.7296 16.5337C13.6097 16.5337 14.3231 15.8202 14.3231 14.9401C14.3231 14.06 13.6097 13.3466 12.7296 13.3466C11.8495 13.3466 11.136 14.06 11.136 14.9401C11.136 15.8202 11.8495 16.5337 12.7296 16.5337Z" stroke="white" stroke-width="0.9806" stroke-miterlimit="10"/>
<path d="M14.5887 14.9401H16.2446C16.9731 14.9401 17.5692 15.5526 17.5692 16.3013V18.7307" stroke="white" stroke-width="0.9806" stroke-miterlimit="10"/>
<path d="M17.5601 18.7332L17.5601 22.364" stroke="#023047" stroke-width="0.9806" stroke-miterlimit="10"/>
<path d="M21.4919 18.7332L21.4919 22.364" stroke="#023047" stroke-width="0.9806" stroke-miterlimit="10"/>
<path d="M19.5782 18.7332L19.5782 25.4892" stroke="#023047" stroke-width="0.9806" stroke-miterlimit="10"/>
<path d="M26.4075 16.7992C27.2876 16.7992 28.0011 16.0858 28.0011 15.2057C28.0011 14.3256 27.2876 13.6122 26.4075 13.6122C25.5274 13.6122 24.814 14.3256 24.814 15.2057C24.814 16.0858 25.5274 16.7992 26.4075 16.7992Z" stroke="white" stroke-width="0.9806" stroke-miterlimit="10"/>
<path d="M24.482 15.2057H22.822C22.0917 15.2057 21.4941 15.8033 21.4941 16.5336V18.8374" stroke="white" stroke-width="0.9806" stroke-miterlimit="10"/>
<path d="M19.5685 13.4129C20.4486 13.4129 21.1621 12.6995 21.1621 11.8194C21.1621 10.9393 20.4486 10.2259 19.5685 10.2259C18.6884 10.2259 17.975 10.9393 17.975 11.8194C17.975 12.6995 18.6884 13.4129 19.5685 13.4129Z" stroke="white" stroke-width="0.9806" stroke-miterlimit="10"/>
<path d="M19.5685 13.3466V18.7389" stroke="white" stroke-width="0.9806" stroke-miterlimit="10"/>
<path d="M13.0616 21.1151V27.954H26.4075V20.7831" stroke="#023047" stroke-width="0.9806" stroke-miterlimit="10"/>
<path d="M18.1742 29.8796H21.8925" stroke="#023047" stroke-width="0.9806" stroke-miterlimit="10"/>
</svg>
