<svg width="40" height="41" viewBox="0 0 40 41" fill="none" xmlns="http://www.w3.org/2000/svg">
<circle cx="20" cy="20.4097" r="19.5" stroke="#B3C1C8"/>
<path d="M15.3191 18.1805H11.8C11.3352 18.1805 11.0032 18.5789 11.0032 18.9773V27.0778C11.0032 27.0778 8.81211 27.6754 8.81211 29.9993C8.81211 29.9993 8.74571 31.2609 10.9368 31.1281H29.993C29.993 31.1281 31.1881 30.8625 31.1881 29.7337C31.1881 29.7337 31.1881 27.5426 28.4658 27.0114V18.9773C28.4658 18.5125 28.0674 18.1805 27.6691 18.1805H24.2164" stroke="#B3C1C8" stroke-width="0.9806" stroke-miterlimit="10"/>
<path d="M12.7296 15.9894C13.6097 15.9894 14.3231 15.2759 14.3231 14.3959C14.3231 13.5158 13.6097 12.8023 12.7296 12.8023C11.8495 12.8023 11.136 13.5158 11.136 14.3959C11.136 15.2759 11.8495 15.9894 12.7296 15.9894Z" stroke="#B3C1C8" stroke-width="0.9806" stroke-miterlimit="10"/>
<path d="M14.5887 14.3958H16.2487C16.9791 14.3958 17.5766 14.9934 17.5766 15.7238V23.0939" stroke="#B3C1C8" stroke-width="0.9806" stroke-miterlimit="10"/>
<path d="M26.4075 16.255C27.2876 16.255 28.0011 15.5415 28.0011 14.6614C28.0011 13.7814 27.2876 13.0679 26.4075 13.0679C25.5274 13.0679 24.814 13.7814 24.814 14.6614C24.814 15.5415 25.5274 16.255 26.4075 16.255Z" stroke="#B3C1C8" stroke-width="0.9806" stroke-miterlimit="10"/>
<path d="M24.482 14.6614H22.822C22.0917 14.6614 21.4941 15.259 21.4941 15.9894V23.2931" stroke="#B3C1C8" stroke-width="0.9806" stroke-miterlimit="10"/>
<path d="M19.5685 12.8687C20.4486 12.8687 21.1621 12.1552 21.1621 11.2752C21.1621 10.3951 20.4486 9.68161 19.5685 9.68161C18.6884 9.68161 17.975 10.3951 17.975 11.2752C17.975 12.1552 18.6884 12.8687 19.5685 12.8687Z" stroke="#B3C1C8" stroke-width="0.9806" stroke-miterlimit="10"/>
<path d="M19.5685 12.8023V24.8867" stroke="#B3C1C8" stroke-width="0.9806" stroke-miterlimit="10"/>
<path d="M13.0616 20.5708V27.4098H26.4075V20.2388" stroke="#B3C1C8" stroke-width="0.9806" stroke-miterlimit="10"/>
<path d="M18.1742 29.3353H21.8925" stroke="#B3C1C8" stroke-width="0.9806" stroke-miterlimit="10"/>
</svg>
